<?xml version="1.0" encoding="UTF-8"?>
<svg id="_图层_2" data-name="图层 2" xmlns="http://www.w3.org/2000/svg" viewBox="0 0 305.94 317.76">
  <defs>
    <style>
      .cls-1 {
        stroke: #977252;
      }

      .cls-1, .cls-2, .cls-3, .cls-4, .cls-5, .cls-6, .cls-7, .cls-8, .cls-9, .cls-10, .cls-11, .cls-12, .cls-13, .cls-14, .cls-15, .cls-16, .cls-17, .cls-18, .cls-19, .cls-20, .cls-21, .cls-22, .cls-23, .cls-24, .cls-25, .cls-26, .cls-27, .cls-28, .cls-29 {
        fill: none;
        stroke-linejoin: round;
        stroke-width: 2.24px;
      }

      .cls-2 {
        stroke: #eed8b1;
      }

      .cls-3 {
        stroke: #e5c9b3;
      }

      .cls-4 {
        stroke: #e6c89e;
      }

      .cls-30 {
        fill: #d2a883;
      }

      .cls-31 {
        fill: #e3c5a4;
      }

      .cls-5 {
        stroke: #b1a391;
      }

      .cls-32 {
        fill: #e9ca98;
      }

      .cls-33 {
        fill: #f6eee0;
      }

      .cls-34 {
        fill: #f2e3c0;
      }

      .cls-6 {
        stroke: #9c7f66;
      }

      .cls-7 {
        stroke: #f2e4c5;
      }

      .cls-8 {
        stroke: #a28d86;
      }

      .cls-9 {
        stroke: #947058;
      }

      .cls-10 {
        stroke: #d7ac85;
      }

      .cls-11 {
        stroke: #eed7ac;
      }

      .cls-12 {
        stroke: #fbf7f0;
      }

      .cls-35 {
        fill: #451a0c;
      }

      .cls-13 {
        stroke: #e2c6a2;
      }

      .cls-14 {
        stroke: #dbb794;
      }

      .cls-15 {
        stroke: #735848;
      }

      .cls-16 {
        stroke: #daae7f;
      }

      .cls-17 {
        stroke: #836555;
      }

      .cls-36 {
        fill: #c1b09d;
      }

      .cls-18 {
        stroke: #ebd5b7;
      }

      .cls-19 {
        stroke: #eddac2;
      }

      .cls-20 {
        stroke: #e4cbb2;
      }

      .cls-21 {
        stroke: #9e8476;
      }

      .cls-37 {
        fill: #f2e5ca;
      }

      .cls-22 {
        stroke: #885639;
      }

      .cls-23 {
        stroke: #f1e2d2;
      }

      .cls-24 {
        stroke: #e9d4c1;
      }

      .cls-25 {
        stroke: #e2c7a7;
      }

      .cls-26 {
        stroke: #8c6148;
      }

      .cls-27 {
        stroke: #f4ead5;
      }

      .cls-38 {
        fill: #ca9266;
      }

      .cls-28 {
        stroke: #9c806b;
      }

      .cls-39 {
        fill: #a19584;
      }

      .cls-29 {
        stroke: #f4e9d0;
      }
    </style>
  </defs>
  <g id="_图层_1-2" data-name="图层 1">
    <g>
      <path class="cls-23" d="M1.82,67.09c-.99,2.36-.93,4.27.2,5.74"/>
      <path class="cls-8" d="M2.02,72.83c.25,1.79.76,3.57,1.53,5.34,3.48,7.98,8.35,14.91,14.63,20.77"/>
      <path class="cls-23" d="M18.18,98.94l-.48.58"/>
      <path class="cls-24" d="M17.7,99.52c-.34.08-.59.3-.74.65C3.13,133.31.48,166.74,9.01,200.46c6.03,23.82,17.67,45.76,33.91,63.57,6.45,7.09,14.01,14.1,22.66,21.04"/>
      <path class="cls-8" d="M65.58,285.07c-.35,6.51,1.05,12.23,4.2,17.18,6.09,9.57,14.94,14.36,26.57,14.38,39.14.04,78.29.03,117.43-.02,12.37-.01,21.55-5.2,27.54-15.55,1.87-3.22,3.04-7.08,3.5-11.57"/>
      <path class="cls-3" d="M244.81,289.47l.12-5.94c0-.36.19-.69.49-.9,1.87-1.24,4.01-2.87,6.41-4.9,38.83-32.84,57.54-82.01,52.03-132.58-2.89-26.43-11.37-49.92-25.45-70.48-22.38-32.67-53.31-53.53-92.79-62.59"/>
      <path class="cls-23" d="M185.64,12.09c-22.55-4.77-44.89-4.38-67.01,1.19"/>
      <path class="cls-12" d="M118.63,13.28c-1.41-.32-2.35-.25-2.82.2"/>
      <path class="cls-8" d="M115.81,13.48c-2.4-2.92-4.29-4.94-5.66-6.07C100.82-.22,91.08-.91,80.95,5.34c-9.34,5.77-29.7,18.61-61.07,38.54-5.98,3.8-9.97,6.92-12,9.37-3.25,3.92-5.28,8.54-6.08,13.84"/>
      <path class="cls-21" d="M115.81,13.48l7.45,11.48"/>
      <path class="cls-28" d="M123.26,24.96c4.79,10.84,4.05,20.14-2.22,27.9-2.25,2.78-7.1,6.5-14.55,11.16-18.79,11.73-37.58,23.49-56.37,35.27-5.27,3.3-10.55,5.08-15.86,5.33"/>
      <path class="cls-21" d="M34.28,104.61c-4.36-.34-8.04-1.14-11.06-2.39"/>
      <path class="cls-9" d="M23.22,102.22l-5.05-3.28"/>
      <path class="cls-9" d="M2.02,72.83l-.2-5.74"/>
      <path class="cls-19" d="M23.22,102.22c-1.45,4.74-2.95,9.47-4.5,14.21-1.88,5.77-3.2,10.54-3.97,14.31-2.88,14.19-3.89,28.23-3.03,42.12,1.06,17.12,5.42,33.7,13.09,49.73"/>
      <path class="cls-14" d="M24.81,222.59c-2.19,1.98-2.63,4.52-1.33,7.64,1.31,3.13,2.23,5.45,2.76,6.96.02.08,0,.16-.07.2l-.26.15c-.16.09-.37.04-.46-.12,0,0,0,0,0,0-9.04-15.3-14.54-32.3-17.92-50.07-.75-3.92-1.23-8.6-1.45-14.02-.31-7.36-.45-12.06-.4-14.1.48-20.27,4.51-39.67,12.11-58.2.12-.29.09-.79-.1-1.51"/>
      <path class="cls-2" d="M277.67,87.05l-7.74-3.31c-.12-.06-.26,0-.31.11-.04.07-.03.16.01.23,4.31,7.81,7.69,14.1,10.13,18.86.33.63.93,2.16,1.8,4.58,5.38,14.91,8.34,31.1,8.9,48.55.55,17.58-2.53,35.85-9.23,54.81-1.14,3.23-4.29,9.66-9.44,19.28-3.89,7.3-9.33,13.33-15.44,21.32-3.39,4.43-9.36,10.35-17.9,17.77"/>
      <path class="cls-28" d="M238.42,269.24c-3.69-4.63-8.36-7.87-13.99-9.71-3.57-1.17-9.03-1.74-16.4-1.7-35.37.18-70.74.19-106.11.03-7.23-.04-12.59.53-16.09,1.71-6.58,2.22-11.91,6.43-15.98,12.63"/>
      <path class="cls-7" d="M69.85,272.21c-1-2.72-2.23-4.72-3.69-6.01-11.12-9.83-20.66-21.02-28.61-33.57-.17-.28-.53-.38-.83-.25l-6.01,2.76"/>
      <path class="cls-25" d="M30.71,235.15l-5.17-10.14"/>
      <path class="cls-27" d="M25.54,225.01c-.02-2.07.36-4,1.14-5.77.68-1.54,1.02-2.56,1.02-3.08.01-3.57-1.58-7.64-3.49-13.53-2.35-7.21-4.02-17.8-4.88-24.27-2.36-17.77-.82-36.29,4.63-55.55,2.09-7.4,3.46-13.83,10.32-18.2"/>
      <path class="cls-27" d="M245.78,49.29l-8.35.1c-.34,0-.68-.1-.96-.29-5.23-3.45-9.6-6.23-13.13-8.31-8.02-4.77-16.7-8.28-25.88-11.43-15.54-5.32-31.58-7.59-48.12-6.83-8.77.41-17.46,1.22-26.07,2.43"/>
      <path class="cls-20" d="M24.81,222.59l.73,2.42"/>
      <path class="cls-13" d="M30.71,235.15c5.71,10.06,12.65,19.25,20.79,27.57,4.96,5.06,10.28,9.82,15.96,14.28"/>
      <path class="cls-26" d="M67.46,277l-1.88,8.07"/>
      <path class="cls-6" d="M69.85,272.21l-2.39,4.79"/>
      <path class="cls-1" d="M242.78,276.66l-4.35-7.42"/>
      <path class="cls-10" d="M185.64,12.09c-.3.12-.5.31-.6.57-.06.17.03.36.21.42,0,0,.02,0,.03,0,11.54,2.58,23,5.87,33.62,11.2,20.12,10.08,37.14,23.74,51.06,40.98,5.9,7.31,11.34,15.74,16.33,25.29.98,1.89,1.64,3.71,1.98,5.46.03.14-.06.29-.2.32-.07.02-.15,0-.21-.05l-8.08-6.08"/>
      <path class="cls-4" d="M279.76,90.21l-2.09-3.16"/>
      <path class="cls-18" d="M277.67,87.05c-8.55-14.62-19.18-27.21-31.89-37.77"/>
      <path class="cls-19" d="M245.78,49.29c-14.27-12.28-29.32-20.97-45.14-26.07-13.29-4.29-25.97-6.82-38.04-7.59-7.39-.48-13.26-.47-17.61.02-7.59.87-14.85,2.05-21.78,3.56-.88.19-1.8-.13-2.38-.83-.95-1.15-1.5-2.03-1.67-2.65-.09-.34-.36-.6-.7-.68-.41-.1-.73-.32-.97-.66-.15-.22-.09-.52.13-.67.05-.04.12-.06.18-.08.34-.07.62-.19.84-.36"/>
      <path class="cls-22" d="M244.81,289.47c.28-4.52-.4-8.79-2.04-12.81"/>
      <path class="cls-16" d="M242.78,276.66c.66-.4,1.28-.92,1.86-1.57.91-1,1.47-1.59,1.69-1.78,13.32-11.3,23.88-23.84,31.7-37.61,19.02-33.53,24.36-69.47,16.01-107.82-2.69-12.33-7.45-24.89-14.28-37.68"/>
      <path class="cls-6" d="M6.45,78.69c.88,1.86,2.97,5.34,6.28,10.45,2.73,4.24,6.08,7.3,10.06,9.2"/>
      <path class="cls-1" d="M22.79,98.34c6.36,4.01,13.44,4.23,21.26.64,2.31-1.06,4.53-2.26,6.68-3.59,20.06-12.46,40.05-25.02,59.97-37.68,6.56-4.17,10.46-8.97,11.69-14.4"/>
      <path class="cls-6" d="M122.39,43.31c1.48-5.14,1.16-10.06-.96-14.75-2.48-5.47-5.25-10.24-8.31-14.3"/>
      <path class="cls-21" d="M113.11,14.26c-7.34-10.89-20.55-13.66-31.71-6.56-21.74,13.83-43.53,27.58-65.36,41.25-9.95,6.23-14.55,18.6-9.59,29.74"/>
      <path class="cls-29" d="M113.11,14.26c-.07.35-.13.54-.17.58-.23.19-.57.16-.76-.06-.01-.02-.03-.03-.04-.05-5.14-7.92-19.47-10.55-27.2-5.42-4.71,3.12-8.66,5.55-11.86,7.3-7.67,4.16-13.79,9.78-21.92,13.23-.36.16-.7.36-1.01.59-3.22,2.48-7.01,4.96-11.38,7.46-5.32,3.04-9.06,5.47-11.24,7.28-2.82,2.36-5.69,4.47-8.62,6.32-3.91,2.48-8.1,7.51-8.89,11.09-1.11,5.1-2.31,10.47-3.59,16.1"/>
      <path class="cls-11" d="M122.39,43.31c-.17-6.84-1.05-12.04-2.63-15.59-.51-1.13-2.75-5.01-6.73-11.66-.22-.36-.69-.48-1.05-.27l-.03.02c-.35.2-.47.64-.27,1,2.3,4.15,4.01,7.36,5.13,9.62,4.24,8.6,3.41,16.18-2.5,22.74-2.04,2.27-6.43,5.04-8.5,6.43-14.48,9.76-30.08,19.05-45.39,28.84-6.45,4.13-12.37,7.69-17.75,10.69-7.56,4.22-18.77,1.6-24.51-4.19-1.88-1.9-4.11-5.01-6.7-9.32-.12-.21-.3-.38-.5-.51l-.37-.24c-.22-.14-.51-.08-.65.14-.09.14-.1.33-.02.48,3.1,5.86,7.39,11.47,12.87,16.85"/>
      <path class="cls-6" d="M50.31,60.86c4.05,6.19,9.84,10.04,17.48,8.61,5.55-1.04,11.26-4.8,12.85-10.46.91-3.19-2.58-4.27-5.01-4.07-.42.04-.79.28-.98.66l-1.61,3.05c-.11.19-.24.37-.4.53-5.42,5.27-11.41,2.83-15.21-2.95-3.79-5.8-3.63-12.26,3.37-15.13.21-.09.43-.14.65-.16l3.45-.25c.42-.03.8-.27,1-.64,1.15-2.15,1.56-5.79-1.72-6.23-5.83-.81-11.56,2.92-14.73,7.6-4.39,6.42-3.17,13.27.88,19.45"/>
      <path class="cls-28" d="M85.27,129.25c-2.36,3.55-4.14,7.56-5.34,12.04-.15.56-.61.98-1.19,1.09l-12.78,2.35c-1.67.31-2.95,1.66-3.14,3.35-.81,6.89-.82,13.97-.04,21.25.14,1.33.94,2.5,2.13,3.12,3.74,1.96,9.33,2.61,13.6,3.35.7.12,1.27.62,1.48,1.31,1.28,4.31,2.42,7.31,3.41,8.99.87,1.45,1.46,2.55,1.78,3.28.14.32.1.7-.12.98-3.25,4.1-6.74,8.4-7.95,11.53-.69,1.79.03,3.86,2.15,6.21,3.02,3.35,6.05,6.44,9.08,9.27,4.31,4.03,6.83,6.88,12.22,2.81,2.66-2.01,5.39-3.95,8.19-5.81.33-.22.76-.23,1.11-.03,4.46,2.47,8.73,4.26,12.8,5.38.47.13.83.52.92,1.01l2.26,12.32c.29,1.59,1.47,2.88,3.02,3.32,6.38,1.79,16.82,1.31,22.48.48,1.78-.26,2.91-1.1,3.4-2.52,1.23-3.51,2.19-7.81,2.86-12.88.08-.59.46-1.09,1.01-1.31l13.39-5.43c.22-.09.48-.07.68.07l10.06,6.46c.5.32.87.81,1.04,1.38.14.46.47,1.56,1,3.32,4.17,14.11,20.15,20.66,33.64,16.73,5.08-1.48,6.05-4.85,1.58-8.53-2.01-1.65-5.77-4.64-11.29-8.96-1.92-1.5-2.33-2.39-1.49-4.62,1.45-3.81,4.09-6.67,7.92-8.58.55-.27,1.21-.2,1.68.19,4.51,3.68,9.18,7.31,14.01,10.9,1.09.81,2.57.8,3.64-.01.69-.51,1.17-1.4,1.44-2.64,2.35-10.41-2.57-20.85-11.57-26.72-6.71-4.38-13.97-5.25-21.8-2.61-.37.12-.77.13-1.15.01-1.18-.37-2.25-1.16-3.2-2.38-.26-.32-.34-.75-.21-1.14l3.4-10.69c.17-.54.63-.93,1.17-1.02,2.31-.39,5.19-.88,8.65-1.47,3.82-.65,6.88-1.86,7.22-5.87.56-6.65.6-13.28.13-19.86-.09-1.25-.8-2.38-1.88-3-3.54-2.05-9.81-2.79-13.69-3.32-.6-.08-1.11-.48-1.34-1.04l-5.16-12.75c-.14-.35-.09-.74.15-1.03,1.5-1.84,3.22-4.06,5.16-6.67,2.76-3.72,3.99-6.54.64-10.46-3.18-3.72-6.68-7.3-10.5-10.77-2.02-1.84-3.5-3-4.42-3.47-.56-.28-1.19-.36-1.8-.21-4.83,1.16-10.17,5.91-13.09,7.65-.35.21-.79.2-1.13-.02-3.54-2.22-7.68-4.07-12.41-5.54-.72-.22-1.28-.81-1.47-1.54-.89-3.54-1.62-7.02-2.2-10.42-.56-3.27-2.54-4.99-5.95-5.17-6.5-.35-11.81-.38-15.93-.09-4.55.32-7.3.98-8.03,5.98,0,.06-.63,3.5-1.86,10.32-.1.57-.52,1.03-1.09,1.2-4.14,1.16-8.3,2.99-12.49,5.47-.47.28-1.06.23-1.48-.12-3.01-2.51-6.15-4.64-9.44-6.4-2.93-1.56-5.72-1.15-8.36,1.24-4.54,4.1-8.55,8.07-12.05,11.91-2.2,2.41-2.4,5.04-.6,7.9,2.86,4.54,5.21,7.8,7.06,9.77.3.33.34.82.1,1.2"/>
      <path class="cls-15" d="M81.6,204.52c3.27,3.68,6.58,7.09,9.9,10.25,2.74,2.6,3.69,4.24,6.97,1.99,2.87-1.98,5.77-4.08,8.69-6.3,1.12-.85,2.64-.94,3.85-.23,4.74,2.77,9.49,4.82,14.25,6.14.98.27,1.72,1.09,1.9,2.09l2.28,12.41c.21,1.16,1.16,2.03,2.33,2.14,6.53.63,12.43.65,17.7.07,1.22-.14,2.2-1.07,2.39-2.27l1.92-11.49c.19-1.12.94-2.06,1.98-2.48l15.14-6.13c1.01-.41,2.16-.31,3.09.29l8.46,5.43c.34.22.8.12,1.02-.23.1-.16.14-.35.11-.53l-.4-2.18c-.17-.93-.65-1.77-1.38-2.37l-17.81-15.12c-.56-.47-1.37-.52-1.98-.12-13.29,8.57-31.87,7.44-44.5-1.21-8.03-5.5-13.66-12.95-16.89-22.35-3.75-10.94-2.79-22.31,2.9-34.12"/>
      <path class="cls-17" d="M103.54,138.18c7.91-12.85,19.17-20.13,33.79-21.83"/>
      <path class="cls-15" d="M137.33,116.35c12.12-.56,22.41,2.7,30.86,9.78,13.16,11.03,19.02,29.61,12.39,46.44-.21.54-.06,1.16.39,1.54l12.86,10.91c.29.25.72.21.97-.09.07-.08.12-.17.14-.27l2.75-10.63c.25-.99,1.06-1.74,2.07-1.92l13.13-2.41c1.03-.19,1.78-1.1,1.78-2.15v-17.1c0-1.02-.74-1.89-1.75-2.06l-12.25-2.05c-1.05-.18-1.93-.89-2.33-1.88l-6.24-15.39c-.45-1.1-.28-2.36.46-3.3l7.08-9.03c.8-1.03.81-2.46.03-3.49-3.48-4.6-7.87-8.92-13.19-12.98-.51-.4-1.23-.42-1.77-.06l-10.89,7.45c-.91.63-2.1.68-3.07.13-5.15-2.92-10.24-5.13-15.27-6.65-.75-.22-1.32-.84-1.49-1.61l-2.66-12.58"/>
      <path class="cls-17" d="M151.33,86.97c-.32-1.25-.85-1.89-1.58-1.92-5.9-.34-10.1-.5-12.6-.47-2.91.04-5,.26-6.28.66-.81.26-1.41.95-1.56,1.8l-2.07,12.4c-.16.95-.84,1.72-1.76,1.99-4.55,1.38-9.53,3.57-14.94,6.56-.8.45-1.79.4-2.55-.12-6.03-4.12-9.34-6.38-9.93-6.78-1.63-1.09-3.16-.98-4.59.34-5,4.6-8.85,8.46-11.56,11.6-.81.94-.89,2.31-.19,3.33l7.33,10.71c.59.86.64,1.97.13,2.86-2.61,4.64-4.51,9.33-5.68,14.08-.28,1.11-1.19,1.95-2.33,2.14-3.76.6-7.81,1.26-12.14,1.97-2.9.47-2.55,2.31-2.61,4.57-.1,3.87-.09,8.63.03,14.28.04,1.73.95,2.75,2.75,3.05,2.52.44,6.76,1.16,12.7,2.17.82.14,1.47.78,1.63,1.6,1.01,5.18,2.91,10.03,5.68,14.53.7,1.13.57,2.59-.32,3.57-3.61,4-6.05,8.21-7.32,12.63"/>
      <path class="cls-5" d="M151.33,86.97l-4.01-.95c-.1-.03-.21-.04-.31-.03l-11.97.12c-1.3.01-2.36,1.05-2.38,2.35l-.44,25.95c-.01.42.32.77.74.79.03,0,.05,0,.08,0,2.66-.2,4.09.18,4.3,1.15"/>
      <path class="cls-5" d="M103.54,138.18c-.37-1.63-.96-3.01-1.77-4.12-.54-.73-1.49-1.02-2.34-.7-5.9,2.2-9.66,13.71-10.51,19.52-.81,5.45-1.63,10.03-2.47,13.76-1.9,8.4,1.2,14.02,4.82,22.58.16.38.15.81-.03,1.18-2.57,5.07-5.79,9.77-9.63,14.12"/>
      <path class="cls-28" d="M177.2,170.64c4.42-15.37,1.34-28.33-9.23-38.89-24.91-24.86-67.03-5.53-65.22,29.11,1.03,19.62,16.77,36.13,36.58,36.87,6.65.25,13.26-1.32,19.83-4.71.28-.14.39-.49.24-.78-.03-.07-.08-.13-.14-.18l-7.61-6.45c-.8-.69-1.89-.97-2.93-.75-7.55,1.57-14.04,1.78-20.87-2.42-9.41-5.8-15.35-16.47-13.16-27.29.26-1.31.71-2.29,1.35-2.97,1.01-1.07,2.68-1.17,3.82-.22l12.31,10.22c.93.78,2.2,1.03,3.36.67,3.9-1.21,6.45-3.69,7.64-7.44.62-1.94,1.3-3.87-.13-4.93-3.57-2.64-7.09-5.28-10.54-7.91-1.74-1.32-3.02-2.73-3.84-4.22-.6-1.08-.35-2.44.6-3.25,1.6-1.35,3.48-2.22,5.62-2.61,10.31-1.85,18.82.47,25.53,6.95,3.25,3.14,5.43,6.66,6.52,10.56,1.02,3.66,1.28,7.83.78,12.51-.01.17.06.35.19.47l9.09,7.71c.06.05.14.04.19-.02.01-.01.02-.03.02-.05"/>
      <path class="cls-17" d="M118.31,156.61c-1.12,14.79,10.9,27.49,26.22,24.85,1.23-.22,2.95-.52,5.16-.92,1.06-.18,2.15.1,2.98.78,10.43,8.57,20.95,17.44,31.57,26.6,2.74,2.37,3.3,4.39,2.95,7.84-.1.95.02,2.36.35,4.23,1.92,10.75,8.38,17.27,19.39,19.55,3.45.72,7.08.53,10.91-.56.33-.1.53-.44.43-.78-.04-.13-.11-.24-.22-.32l-13.94-10.92c-.94-.74-1.46-1.88-1.4-3.08.39-7.83,4.36-13.19,11.93-16.08.51-.2,1.07-.23,1.59-.09,1.47.4,2.98,1.16,4.52,2.29,2.75,2.02,6.41,4.92,11,8.71.2.16.5.13.66-.07.06-.07.09-.16.1-.25.93-12.91-7.45-23.3-20.68-24.6-2.92-.29-6.41.87-9.6,1.49-1.45.28-2.94-.12-4.05-1.09-12.75-11-23.34-20.13-31.78-27.37-3.45-2.95-2.7-6.42-2.64-10.19.11-6.73-3.84-13.46-9.71-17.08-6.1-3.75-12.89-4.61-20.39-2.61-.31.09-.49.41-.4.72.03.12.1.22.2.3l13.23,10.35c1.09.86,1.62,2.26,1.37,3.63-.55,3.03-1.39,5.8-2.51,8.3-1.41,3.14-5.54,5.16-8.69,6.4-2.9,1.15-4.41.72-6.68-1.09-2.54-2.01-6.19-5.12-10.97-9.32-.23-.19-.56-.17-.76.06-.07.08-.12.19-.13.3"/>
      <path class="cls-6" d="M71.04,297.2c2.42,5.45,6.28,9.73,11.58,12.86"/>
      <path class="cls-1" d="M82.62,310.05c4.33,2.49,8.8,3.73,13.41,3.73,37.18-.08,74.36-.09,111.53-.02,7.09.01,12.17-.5,15.25-1.56,4.89-1.67,9.08-4.54,12.58-8.61"/>
      <path class="cls-6" d="M235.39,303.6c7.71-9.57,7.89-22.66.31-32.28"/>
      <path class="cls-21" d="M235.7,271.31c-5.73-6.94-12.85-10.41-21.35-10.42-34.35-.05-71.49-.06-111.42-.01-7.27,0-12.56.56-15.85,1.67-13.97,4.69-22.37,20.33-16.05,34.65"/>
      <path class="cls-29" d="M235.7,271.31c-8.29-3.56-13.83-7.39-23.88-7.5-7.52-.08-15.15.54-22.54.45-19.57-.26-30.95-.55-44.73-.12-4.2.13-8.49.22-12.88.26-2.14.01-4.32.9-6.52,2.66"/>
      <path class="cls-21" d="M125.16,267.06c-.76-.04-1.44.09-2.05.41-.35.19-.58.55-.58.95l-.07,3.46c0,.38-.31.68-.68.67h-.41c-.52-.02-.93-.45-.92-.97,0-.02,0-.05,0-.07.06-.66.06-1.18-.01-1.58-.21-1.31-1.45-2.2-2.76-1.99-.27.04-.54.13-.78.27-.55.31-1.01,1.04-1.39,2.19-.34,1.02-1.2,3.5-2.6,7.42-.14.4-.08.84.17,1.17.26.37.91.71,1.96,1.03.14.04.22.19.18.34-.02.06-.06.12-.11.15-.25.17-.43.25-.54.22-1.54-.35-2.28.55-2.19,2.71.02.78.65,1.4,1.43,1.41l8.18.13c.57.01,1.03.49,1.02,1.06h0s-.01.65-.01.65c-.01.7-.59,1.27-1.29,1.25h0l-5.33-.09c-1.1-.02-2.01.84-2.05,1.94l-.32,9.4"/>
      <path class="cls-29" d="M114.01,299.21c-1.04-6-2.11-11.84-3.19-17.51-.93-4.87,0-9.22,2.78-13.04.54-.75.7-2.06.47-3.94-.05-.38-.37-.66-.75-.66-9.2.07-15.2.21-18.01.43-5.28.4-10.19,2.5-14.73,6.28-8.61,7.18-8.93,16.16-9.55,26.43"/>
      <path class="cls-21" d="M128.71,299.77l2.28-1.14c.36-.19.59-.56.59-.96v-4.34c0-.44-.36-.81-.79-.81h-2.08c-.39,0-.71.32-.72.72l-.04,6.08"/>
      <path class="cls-11" d="M235.39,303.6c-.37.07-.68.09-.93.04-.26-.04-.43-.28-.4-.53.01-.07.04-.14.08-.2,6.87-9.7,7.65-21.14.16-30.7-.36-.45-1.01-.53-1.46-.17-.12.1-.22.22-.29.36-.06.12,2.74,6.85,3.02,7.83,3.23,11.24-1.56,20.99-11.73,26.39-4.46,2.36-10.05,3.46-16.76,3.3-24.16-.56-59.98-.64-107.45-.23-6.42.05-12.12-1.16-17.08-3.65-.16-.08-.34-.01-.42.14-.03.06-.04.13-.03.19l.5,3.67"/>
      <path class="cls-6" d="M114.01,299.21l.79,3c.09.31.34.56.65.64,1.34.34,2.45.18,3.35-.48.31-.23.49-.59.49-.97v-8.18c0-.41.33-.75.74-.75h1.86c.46,0,.83.38.83.84v11.02c0,1.11.9,2.01,2.01,2.01h1.28c1.09,0,1.97-.88,1.97-1.97h0s-.02-5.06-.02-5.06"/>
      <path class="cls-29" d="M127.95,299.31c.34.34.59.5.76.46"/>
      <path class="cls-6" d="M128.71,299.77c.27,2.83,1.83,4.01,4.69,3.54,3.2-.53,3.32-4.2,3.26-7.07-.09-3.74-.15-5.86-.18-6.38-.08-1.13-1.03-2.01-2.17-2.01h-5.66c-.56,0-1.01-.45-1.01-1.01h0v-1.1c0-.43.35-.77.77-.77h7.77c.64,0,1.17-.5,1.2-1.13l.11-2.28c.03-.65-.47-1.21-1.13-1.24-.02,0-.04,0-.06,0h-7.87c-.38,0-.68-.31-.68-.68h0v-1.96c0-.36.3-.66.66-.66h5.65c.85,0,1.53-.68,1.53-1.52v-1.25c0-.88-.71-1.59-1.59-1.59h-6.01c-.33,0-.61-.27-.61-.6,0-.03,0-.06,0-.08.21-1.77.84-5.14-2.24-4.9"/>
      <path class="cls-6" d="M142.37,304.48c.16.88.88,1.56,1.77,1.66,2.86.34,5.15,0,6.85-1.01,1.08-.65,1.75-1.82,1.75-3.08v-32.04c0-1.32-1.07-2.39-2.39-2.39h-.6c-1.24,0-2.25,1.01-2.25,2.26h0v30.18c0,.7-.56,1.26-1.25,1.26h-3.4c-.48,0-.86.38-.86.86,0,.05,0,.11.01.16l.39,2.14"/>
      <path class="cls-6" d="M162.49,286.51l-.04,17.17c0,1.53,1.2,2.78,2.73,2.83h.13c1.46.11,2.73-1,2.83-2.47,0-.07,0-.13,0-.2l-.25-24.37c0-1.08.23-2.15.68-3.13l2.47-5.28c.57-1.22.05-2.67-1.16-3.25l-.36-.17c-1.21-.57-2.66-.04-3.23,1.17,0,.01-.01.02-.02.04-1.95,4.33-4.45,8.42-7.5,12.26-1.92,2.44-.92,4.12.66,6.09.3.38.85.44,1.23.13.04-.03.07-.06.1-.1.22-.24.63-.56,1.25-.97.14-.09.33-.05.41.09.03.05.05.1.04.16"/>
      <path class="cls-6" d="M181.72,273.27l1.19-2.54c.42-.88.04-1.93-.84-2.35,0,0,0,0,0,0l-1.34-.63c-.87-.41-1.91-.03-2.32.84-.01.03-.03.06-.04.09-2.21,5.48-4.71,9.78-7.5,12.92-.96,1.08-.86,2.73.21,3.68,0,0,0,0,0,0l.16.15c1.06.94,2.68.84,3.62-.22.05-.06.11-.13.15-.19,2.35-3.26,4.04-6,4.99-6.36.33-.12.68.05.8.38.02.07.04.14.04.21v24.93c0,1.29,1.04,2.33,2.33,2.33h.92c1.25,0,2.26-1.01,2.26-2.26h0v-6.39c0-.37.29-.67.65-.67l9.22-.13c1.17-.02,2.11-.98,2.09-2.15,0-.01,0-.02,0-.03v-.22c0-1.23-.99-2.23-2.22-2.24h-9.05c-.46-.01-.83-.38-.83-.84v-3.14c0-.41.34-.75.75-.75,0,0,0,0,.01,0l8.77.06c1.12.01,2.04-.88,2.05-2,0-.03,0-.06,0-.09v-.32c.02-1.29-1-2.35-2.28-2.37-.02,0-.03,0-.05,0h-8.53c-.37,0-.67-.3-.67-.67v-2.91c0-.43.35-.77.77-.77h9.88c1.09,0,1.97-.88,1.97-1.96h0v-.45c0-1.25-1.02-2.27-2.28-2.27h-14.48c-.25,0-.45-.2-.45-.45,0-.06.01-.13.04-.19"/>
      <path class="cls-6" d="M144.51,272.56c0-1.09-.87-1.97-1.96-1.98h-1.05c-1.09,0-1.97.87-1.98,1.96l-.07,20.12c0,1.09.87,1.97,1.96,1.98h1.05c1.09,0,1.97-.87,1.98-1.96h0s.07-20.12.07-20.12"/>
      <path class="cls-21" d="M117.75,280.35l3.64-.08c.88-.02,1.57-.75,1.55-1.63-.02-.65-.43-1.22-1.03-1.45-2.08-.77-3.61.07-4.59,2.52-.1.23,0,.5.24.6.06.03.13.04.19.04"/>
      <path class="cls-35" d="M115.81,13.48l7.45,11.48c4.79,10.84,4.05,20.14-2.22,27.9-2.25,2.78-7.1,6.5-14.55,11.16-18.79,11.73-37.58,23.49-56.37,35.27-5.27,3.3-10.55,5.08-15.86,5.33-4.36-.34-8.04-1.14-11.06-2.39l-5.05-3.28c-6.27-5.86-11.15-12.79-14.63-20.77-.77-1.77-1.28-3.55-1.53-5.34l-.2-5.74c.8-5.3,2.82-9.92,6.08-13.84,2.02-2.45,6.02-5.57,12-9.37C51.26,23.95,71.61,11.11,80.95,5.34c10.13-6.25,19.86-5.56,29.2,2.07,1.37,1.13,3.26,3.15,5.66,6.07ZM6.45,78.69c.88,1.86,2.97,5.34,6.28,10.45,2.73,4.24,6.08,7.3,10.06,9.2,6.36,4.01,13.44,4.23,21.26.64,2.31-1.06,4.53-2.26,6.68-3.59,20.06-12.46,40.05-25.02,59.97-37.68,6.56-4.17,10.46-8.97,11.69-14.4,1.48-5.14,1.16-10.06-.96-14.75-2.48-5.47-5.25-10.24-8.31-14.3-7.34-10.89-20.55-13.66-31.71-6.56-21.74,13.83-43.53,27.58-65.36,41.25-9.95,6.23-14.55,18.6-9.59,29.74Z"/>
      <path class="cls-33" d="M113.11,14.26c-.07.35-.13.54-.17.58-.23.19-.57.16-.76-.06-.01-.02-.03-.03-.04-.05-5.14-7.92-19.47-10.55-27.2-5.42-4.71,3.12-8.66,5.55-11.86,7.3-7.67,4.16-13.79,9.78-21.92,13.23-.36.16-.7.36-1.01.59-3.22,2.48-7.01,4.96-11.38,7.46-5.32,3.04-9.06,5.47-11.24,7.28-2.82,2.36-5.69,4.47-8.62,6.32-3.91,2.48-8.1,7.51-8.89,11.09-1.11,5.1-2.31,10.47-3.59,16.1-4.96-11.15-.36-23.51,9.59-29.74,21.84-13.67,43.62-27.42,65.36-41.25,11.17-7.11,24.37-4.33,31.71,6.56Z"/>
      <path class="cls-34" d="M113.11,14.26c3.07,4.07,5.84,8.83,8.31,14.3,2.13,4.69,2.45,9.61.96,14.75-.17-6.84-1.05-12.04-2.63-15.59-.51-1.13-2.75-5.01-6.73-11.66-.22-.36-.69-.48-1.05-.27l-.03.02c-.35.2-.47.64-.27,1,2.3,4.15,4.01,7.36,5.13,9.62,4.24,8.6,3.41,16.18-2.5,22.74-2.04,2.27-6.43,5.04-8.5,6.43-14.48,9.76-30.08,19.05-45.39,28.84-6.45,4.13-12.37,7.69-17.75,10.69-7.56,4.22-18.77,1.6-24.51-4.19-1.88-1.9-4.11-5.01-6.7-9.32-.12-.21-.3-.38-.5-.51l-.37-.24c-.22-.14-.51-.08-.65.14-.09.14-.1.33-.02.48,3.1,5.86,7.39,11.47,12.87,16.85-3.98-1.89-7.33-4.96-10.06-9.2-3.3-5.11-5.4-8.59-6.28-10.45,1.28-5.63,2.48-11,3.59-16.1.78-3.58,4.98-8.61,8.89-11.09,2.92-1.85,5.8-3.96,8.62-6.32,2.17-1.81,5.92-4.24,11.24-7.28,4.37-2.5,8.17-4.99,11.38-7.46.3-.24.64-.44,1.01-.59,8.14-3.45,14.26-9.06,21.92-13.23,3.2-1.75,7.15-4.18,11.86-7.3,7.73-5.14,22.07-2.51,27.2,5.42.16.25.5.31.74.15.02-.01.03-.02.05-.04.04-.04.09-.23.17-.58ZM50.31,60.86c4.05,6.19,9.84,10.04,17.48,8.61,5.55-1.04,11.26-4.8,12.85-10.46.91-3.19-2.58-4.27-5.01-4.07-.42.04-.79.28-.98.66l-1.61,3.05c-.11.19-.24.37-.4.53-5.42,5.27-11.41,2.83-15.21-2.95-3.79-5.8-3.63-12.26,3.37-15.13.21-.09.43-.14.65-.16l3.45-.25c.42-.03.8-.27,1-.64,1.15-2.15,1.56-5.79-1.72-6.23-5.83-.81-11.56,2.92-14.73,7.6-4.39,6.42-3.17,13.27.88,19.45Z"/>
      <path class="cls-31" d="M185.64,12.09c-.3.12-.5.31-.6.57-.06.17.03.36.21.42,0,0,.02,0,.03,0,11.54,2.58,23,5.87,33.62,11.2,20.12,10.08,37.14,23.74,51.06,40.98,5.9,7.31,11.34,15.74,16.33,25.29.98,1.89,1.64,3.71,1.98,5.46.03.14-.06.29-.2.32-.07.02-.15,0-.21-.05l-8.08-6.08-2.09-3.16c-8.55-14.62-19.18-27.21-31.89-37.77-14.27-12.28-29.32-20.97-45.14-26.07-13.29-4.29-25.97-6.82-38.04-7.59-7.39-.48-13.26-.47-17.61.02-7.59.87-14.85,2.05-21.78,3.56-.88.19-1.8-.13-2.38-.83-.95-1.15-1.5-2.03-1.67-2.65-.09-.34-.36-.6-.7-.68-.41-.1-.73-.32-.97-.66-.15-.22-.09-.52.13-.67.05-.04.12-.06.18-.08.34-.07.62-.19.84-.36,22.12-5.57,44.46-5.96,67.01-1.19Z"/>
      <path class="cls-38" d="M185.64,12.09c39.48,9.06,70.41,29.92,92.79,62.59,14.08,20.55,22.56,44.05,25.45,70.48,5.51,50.57-13.2,99.74-52.03,132.58-2.4,2.03-4.54,3.66-6.41,4.9-.3.2-.49.54-.49.9l-.12,5.94c.28-4.52-.4-8.79-2.04-12.81.66-.4,1.28-.92,1.86-1.57.91-1,1.47-1.59,1.69-1.78,13.32-11.3,23.88-23.84,31.7-37.61,19.02-33.53,24.36-69.47,16.01-107.82-2.69-12.33-7.45-24.89-14.28-37.68l8.08,6.08c.11.09.27.07.36-.05.05-.06.07-.14.05-.22-.34-1.75-1-3.57-1.98-5.46-4.98-9.55-10.43-17.98-16.33-25.29-13.92-17.24-30.94-30.9-51.06-40.98-10.62-5.33-22.08-8.62-33.62-11.2-.18-.05-.29-.23-.24-.4,0,0,0-.02,0-.03.1-.26.31-.45.6-.57Z"/>
      <path class="cls-33" d="M118.63,13.28c-.22.17-.5.29-.84.36-.27.05-.44.31-.39.57.01.06.04.12.08.18.24.34.56.56.97.66.34.08.61.34.7.68.16.62.72,1.5,1.67,2.65.58.7,1.5,1.02,2.38.83,6.93-1.51,14.19-2.69,21.78-3.56,4.36-.49,10.23-.5,17.61-.02,12.07.77,24.75,3.3,38.04,7.59,15.82,5.1,30.87,13.79,45.14,26.07l-8.35.1c-.34,0-.68-.1-.96-.29-5.23-3.45-9.6-6.23-13.13-8.31-8.02-4.77-16.7-8.28-25.88-11.43-15.54-5.32-31.58-7.59-48.12-6.83-8.77.41-17.46,1.22-26.07,2.43l-7.45-11.48c.47-.46,1.41-.52,2.82-.2Z"/>
      <path class="cls-32" d="M122.39,43.31c-1.23,5.43-5.13,10.23-11.69,14.4-19.92,12.66-39.91,25.22-59.97,37.68-2.15,1.34-4.38,2.53-6.68,3.59-7.82,3.59-14.91,3.38-21.26-.64-5.48-5.38-9.77-11-12.87-16.85-.12-.23-.04-.51.19-.64.15-.08.34-.07.48.02l.37.24c.21.13.38.31.5.51,2.59,4.31,4.82,7.42,6.7,9.32,5.74,5.79,16.94,8.4,24.51,4.19,5.38-3,11.29-6.56,17.75-10.69,15.31-9.79,30.91-19.08,45.39-28.84,2.07-1.4,6.47-4.16,8.5-6.43,5.91-6.56,6.74-14.14,2.5-22.74-1.12-2.27-2.83-5.48-5.13-9.62-.2-.35-.08-.8.27-1l.03-.02c.36-.21.83-.09,1.05.27,3.98,6.65,6.22,10.53,6.73,11.66,1.58,3.55,2.46,8.75,2.63,15.59Z"/>
      <path class="cls-37" d="M245.78,49.29c12.71,10.56,23.34,23.15,31.89,37.77l-7.74-3.31c-.12-.06-.26,0-.31.11-.04.07-.03.16.01.23,4.31,7.81,7.69,14.1,10.13,18.86.33.63.93,2.16,1.8,4.58,5.38,14.91,8.34,31.1,8.9,48.55.55,17.58-2.53,35.85-9.23,54.81-1.14,3.23-4.29,9.66-9.44,19.28-3.89,7.3-9.33,13.33-15.44,21.32-3.39,4.43-9.36,10.35-17.9,17.77-3.69-4.63-8.36-7.87-13.99-9.71-3.57-1.17-9.03-1.74-16.4-1.7-35.37.18-70.74.19-106.11.03-7.23-.04-12.59.53-16.09,1.71-6.58,2.22-11.91,6.43-15.98,12.63-1-2.72-2.23-4.72-3.69-6.01-11.12-9.83-20.66-21.02-28.61-33.57-.17-.28-.53-.38-.83-.25l-6.01,2.76-5.17-10.14c-.02-2.07.36-4,1.14-5.77.68-1.54,1.02-2.56,1.02-3.08.01-3.57-1.58-7.64-3.49-13.53-2.35-7.21-4.02-17.8-4.88-24.27-2.36-17.77-.82-36.29,4.63-55.55,2.09-7.4,3.46-13.83,10.32-18.2,5.3-.25,10.59-2.02,15.86-5.33,18.78-11.78,37.57-23.54,56.37-35.27,7.45-4.66,12.29-8.37,14.55-11.16,6.27-7.76,7.01-17.06,2.22-27.9,8.61-1.21,17.3-2.02,26.07-2.43,16.54-.77,32.58,1.51,48.12,6.83,9.19,3.14,17.86,6.66,25.88,11.43,3.52,2.09,7.9,4.86,13.13,8.31.29.19.62.29.96.29l8.35-.1ZM85.27,129.25c-2.36,3.55-4.14,7.56-5.34,12.04-.15.56-.61.98-1.19,1.09l-12.78,2.35c-1.67.31-2.95,1.66-3.14,3.35-.81,6.89-.82,13.97-.04,21.25.14,1.33.94,2.5,2.13,3.12,3.74,1.96,9.33,2.61,13.6,3.35.7.12,1.27.62,1.48,1.31,1.28,4.31,2.42,7.31,3.41,8.99.87,1.45,1.46,2.55,1.78,3.28.14.32.1.7-.12.98-3.25,4.1-6.74,8.4-7.95,11.53-.69,1.79.03,3.86,2.15,6.21,3.02,3.35,6.05,6.44,9.08,9.27,4.31,4.03,6.83,6.88,12.22,2.81,2.66-2.01,5.39-3.95,8.19-5.81.33-.22.76-.23,1.11-.03,4.46,2.47,8.73,4.26,12.8,5.38.47.13.83.52.92,1.01l2.26,12.32c.29,1.59,1.47,2.88,3.02,3.32,6.38,1.79,16.82,1.31,22.48.48,1.78-.26,2.91-1.1,3.4-2.52,1.23-3.51,2.19-7.81,2.86-12.88.08-.59.46-1.09,1.01-1.31l13.39-5.43c.22-.09.48-.07.68.07l10.06,6.46c.5.32.87.81,1.04,1.38.14.46.47,1.56,1,3.32,4.17,14.11,20.15,20.66,33.64,16.73,5.08-1.48,6.05-4.85,1.58-8.53-2.01-1.65-5.77-4.64-11.29-8.96-1.92-1.5-2.33-2.39-1.49-4.62,1.45-3.81,4.09-6.67,7.92-8.58.55-.27,1.21-.2,1.68.19,4.51,3.68,9.18,7.31,14.01,10.9,1.09.81,2.57.8,3.64-.01.69-.51,1.17-1.4,1.44-2.64,2.35-10.41-2.57-20.85-11.57-26.72-6.71-4.38-13.97-5.25-21.8-2.61-.37.12-.77.13-1.15.01-1.18-.37-2.25-1.16-3.2-2.38-.26-.32-.34-.75-.21-1.14l3.4-10.69c.17-.54.63-.93,1.17-1.02,2.31-.39,5.19-.88,8.65-1.47,3.82-.65,6.88-1.86,7.22-5.87.56-6.65.6-13.28.13-19.86-.09-1.25-.8-2.38-1.88-3-3.54-2.05-9.81-2.79-13.69-3.32-.6-.08-1.11-.48-1.34-1.04l-5.16-12.75c-.14-.35-.09-.74.15-1.03,1.5-1.84,3.22-4.06,5.16-6.67,2.76-3.72,3.99-6.54.64-10.46-3.18-3.72-6.68-7.3-10.5-10.77-2.02-1.84-3.5-3-4.42-3.47-.56-.28-1.19-.36-1.8-.21-4.83,1.16-10.17,5.91-13.09,7.65-.35.21-.79.2-1.13-.02-3.54-2.22-7.68-4.07-12.41-5.54-.72-.22-1.28-.81-1.47-1.54-.89-3.54-1.62-7.02-2.2-10.42-.56-3.27-2.54-4.99-5.95-5.17-6.5-.35-11.81-.38-15.93-.09-4.55.32-7.3.98-8.03,5.98,0,.06-.63,3.5-1.86,10.32-.1.57-.52,1.03-1.09,1.2-4.14,1.16-8.3,2.99-12.49,5.47-.47.28-1.06.23-1.48-.12-3.01-2.51-6.15-4.64-9.44-6.4-2.93-1.56-5.72-1.15-8.36,1.24-4.54,4.1-8.55,8.07-12.05,11.91-2.2,2.41-2.4,5.04-.6,7.9,2.86,4.54,5.21,7.8,7.06,9.77.3.33.34.82.1,1.2Z"/>
      <path class="cls-35" d="M57.42,56.21c3.79,5.79,9.79,8.22,15.21,2.95.16-.16.3-.33.4-.53l1.61-3.05c.19-.38.57-.63.98-.66,2.43-.2,5.92.88,5.01,4.07-1.59,5.66-7.3,9.42-12.85,10.46-7.64,1.43-13.43-2.42-17.48-8.61-4.05-6.18-5.27-13.03-.88-19.45,3.17-4.68,8.9-8.4,14.73-7.6,3.28.45,2.88,4.08,1.72,6.23-.2.37-.57.61-1,.64l-3.45.25c-.22.02-.44.07-.65.16-6.99,2.86-7.16,9.33-3.37,15.13Z"/>
      <path class="cls-31" d="M1.82,67.09l.2,5.74c-1.13-1.47-1.19-3.38-.2-5.74Z"/>
      <path class="cls-35" d="M85.17,128.05c-1.85-1.97-4.2-5.23-7.06-9.77-1.8-2.86-1.6-5.49.6-7.9,3.5-3.83,7.52-7.8,12.05-11.91,2.64-2.39,5.43-2.8,8.36-1.24,3.29,1.76,6.44,3.89,9.44,6.4.42.35,1.01.4,1.48.12,4.19-2.48,8.35-4.31,12.49-5.47.56-.16.98-.63,1.09-1.2,1.23-6.82,1.85-10.26,1.86-10.32.74-4.99,3.48-5.65,8.03-5.98,4.13-.29,9.44-.26,15.93.09,3.41.18,5.39,1.9,5.95,5.17.58,3.4,1.32,6.87,2.2,10.42.19.74.74,1.32,1.47,1.54,4.73,1.47,8.87,3.32,12.41,5.54.34.22.78.23,1.13.02,2.92-1.75,8.26-6.49,13.09-7.65.61-.14,1.25-.07,1.8.21.93.47,2.4,1.63,4.42,3.47,3.82,3.46,7.32,7.05,10.5,10.77,3.36,3.93,2.13,6.75-.64,10.46-1.94,2.61-3.66,4.83-5.16,6.67-.23.29-.29.68-.15,1.03l5.16,12.75c.23.56.74.96,1.34,1.04,3.87.54,10.15,1.28,13.69,3.32,1.08.62,1.79,1.75,1.88,3,.47,6.59.43,13.21-.13,19.86-.34,4.02-3.4,5.23-7.22,5.87-3.46.59-6.34,1.08-8.65,1.47-.55.09-1,.48-1.17,1.02l-3.4,10.69c-.13.39-.05.82.21,1.14.95,1.22,2.02,2.02,3.2,2.38.38.12.78.11,1.15-.01,7.83-2.64,15.09-1.77,21.8,2.61,9,5.87,13.92,16.32,11.57,26.72-.28,1.25-.76,2.13-1.44,2.64-1.07.81-2.55.82-3.64.01-4.83-3.59-9.5-7.22-14.01-10.9-.47-.39-1.13-.46-1.68-.19-3.83,1.91-6.48,4.77-7.92,8.58-.84,2.23-.44,3.12,1.49,4.62,5.52,4.33,9.28,7.31,11.29,8.96,4.48,3.68,3.5,7.05-1.58,8.53-13.48,3.93-29.46-2.62-33.64-16.73-.52-1.76-.85-2.87-1-3.32-.17-.57-.54-1.06-1.04-1.38l-10.06-6.46c-.2-.13-.46-.16-.68-.07l-13.39,5.43c-.55.22-.93.72-1.01,1.31-.68,5.07-1.63,9.37-2.86,12.88-.49,1.42-1.63,2.26-3.4,2.52-5.66.83-16.1,1.31-22.48-.48-1.56-.44-2.73-1.73-3.02-3.32l-2.26-12.32c-.09-.49-.45-.88-.92-1.01-4.07-1.12-8.34-2.91-12.8-5.38-.35-.2-.78-.19-1.11.03-2.81,1.86-5.54,3.79-8.19,5.81-5.39,4.07-7.91,1.22-12.22-2.81-3.03-2.83-6.05-5.92-9.08-9.27-2.12-2.35-2.83-4.42-2.15-6.21,1.21-3.12,4.7-7.43,7.95-11.53.22-.28.27-.66.12-.98-.32-.73-.91-1.82-1.78-3.28-.99-1.68-2.13-4.67-3.41-8.99-.21-.69-.78-1.19-1.48-1.31-4.26-.74-9.86-1.39-13.6-3.35-1.19-.62-1.99-1.79-2.13-3.12-.78-7.28-.76-14.36.04-21.25.2-1.68,1.47-3.04,3.14-3.35l12.78-2.35c.57-.1,1.03-.52,1.19-1.09,1.19-4.48,2.97-8.49,5.34-12.04.24-.38.2-.87-.1-1.2ZM81.6,204.52c3.27,3.68,6.58,7.09,9.9,10.25,2.74,2.6,3.69,4.24,6.97,1.99,2.87-1.98,5.77-4.08,8.69-6.3,1.12-.85,2.64-.94,3.85-.23,4.74,2.77,9.49,4.82,14.25,6.14.98.27,1.72,1.09,1.9,2.09l2.28,12.41c.21,1.16,1.16,2.03,2.33,2.14,6.53.63,12.43.65,17.7.07,1.22-.14,2.2-1.07,2.39-2.27l1.92-11.49c.19-1.12.94-2.06,1.98-2.48l15.14-6.13c1.01-.41,2.16-.31,3.09.29l8.46,5.43c.34.22.8.12,1.02-.23.1-.16.14-.35.11-.53l-.4-2.18c-.17-.93-.65-1.77-1.38-2.37l-17.81-15.12c-.56-.47-1.37-.52-1.98-.12-13.29,8.57-31.87,7.44-44.5-1.21-8.03-5.5-13.66-12.95-16.89-22.35-3.75-10.94-2.79-22.31,2.9-34.12,7.91-12.85,19.17-20.13,33.79-21.83,12.12-.56,22.41,2.7,30.86,9.78,13.16,11.03,19.02,29.61,12.39,46.44-.21.54-.06,1.16.39,1.54l12.86,10.91c.29.25.72.21.97-.09.07-.08.12-.17.14-.27l2.75-10.63c.25-.99,1.06-1.74,2.07-1.92l13.13-2.41c1.03-.19,1.78-1.1,1.78-2.15v-17.1c0-1.02-.74-1.89-1.75-2.06l-12.25-2.05c-1.05-.18-1.93-.89-2.33-1.88l-6.24-15.39c-.45-1.1-.28-2.36.46-3.3l7.08-9.03c.8-1.03.81-2.46.03-3.49-3.48-4.6-7.87-8.92-13.19-12.98-.51-.4-1.23-.42-1.77-.06l-10.89,7.45c-.91.63-2.1.68-3.07.13-5.15-2.92-10.24-5.13-15.27-6.65-.75-.22-1.32-.84-1.49-1.61l-2.66-12.58c-.32-1.25-.85-1.89-1.58-1.92-5.9-.34-10.1-.5-12.6-.47-2.91.04-5,.26-6.28.66-.81.26-1.41.95-1.56,1.8l-2.07,12.4c-.16.95-.84,1.72-1.76,1.99-4.55,1.38-9.53,3.57-14.94,6.56-.8.45-1.79.4-2.55-.12-6.03-4.12-9.34-6.38-9.93-6.78-1.63-1.09-3.16-.98-4.59.34-5,4.6-8.85,8.46-11.56,11.6-.81.94-.89,2.31-.19,3.33l7.33,10.71c.59.86.64,1.97.13,2.86-2.61,4.64-4.51,9.33-5.68,14.08-.28,1.11-1.19,1.95-2.33,2.14-3.76.6-7.81,1.26-12.14,1.97-2.9.47-2.55,2.31-2.61,4.57-.1,3.87-.09,8.63.03,14.28.04,1.73.95,2.75,2.75,3.05,2.52.44,6.76,1.16,12.7,2.17.82.14,1.47.78,1.63,1.6,1.01,5.18,2.91,10.03,5.68,14.53.7,1.13.57,2.59-.32,3.57-3.61,4-6.05,8.21-7.32,12.63ZM177.2,170.64c4.42-15.37,1.34-28.33-9.23-38.89-24.91-24.86-67.03-5.53-65.22,29.11,1.03,19.62,16.77,36.13,36.58,36.87,6.65.25,13.26-1.32,19.83-4.71.28-.14.39-.49.24-.78-.03-.07-.08-.13-.14-.18l-7.61-6.45c-.8-.69-1.89-.97-2.93-.75-7.55,1.57-14.04,1.78-20.87-2.42-9.41-5.8-15.35-16.47-13.16-27.29.26-1.31.71-2.29,1.35-2.97,1.01-1.07,2.68-1.17,3.82-.22l12.31,10.22c.93.78,2.2,1.03,3.36.67,3.9-1.21,6.45-3.69,7.64-7.44.62-1.94,1.3-3.87-.13-4.93-3.57-2.64-7.09-5.28-10.54-7.91-1.74-1.32-3.02-2.73-3.84-4.22-.6-1.08-.35-2.44.6-3.25,1.6-1.35,3.48-2.22,5.62-2.61,10.31-1.85,18.82.47,25.53,6.95,3.25,3.14,5.43,6.66,6.52,10.56,1.02,3.66,1.28,7.83.78,12.51-.01.17.06.35.19.47l9.09,7.71c.06.05.14.04.19-.02.01-.01.02-.03.02-.05ZM118.31,156.61c-1.12,14.79,10.9,27.49,26.22,24.85,1.23-.22,2.95-.52,5.16-.92,1.06-.18,2.15.1,2.98.78,10.43,8.57,20.95,17.44,31.57,26.6,2.74,2.37,3.3,4.39,2.95,7.84-.1.95.02,2.36.35,4.23,1.92,10.75,8.38,17.27,19.39,19.55,3.45.72,7.08.53,10.91-.56.33-.1.53-.44.43-.78-.04-.13-.11-.24-.22-.32l-13.94-10.92c-.94-.74-1.46-1.88-1.4-3.08.39-7.83,4.36-13.19,11.93-16.08.51-.2,1.07-.23,1.59-.09,1.47.4,2.98,1.16,4.52,2.29,2.75,2.02,6.41,4.92,11,8.71.2.16.5.13.66-.07.06-.07.09-.16.1-.25.93-12.91-7.45-23.3-20.68-24.6-2.92-.29-6.41.87-9.6,1.49-1.45.28-2.94-.12-4.05-1.09-12.75-11-23.34-20.13-31.78-27.37-3.45-2.95-2.7-6.42-2.64-10.19.11-6.73-3.84-13.46-9.71-17.08-6.1-3.75-12.89-4.61-20.39-2.61-.31.09-.49.41-.4.72.03.12.1.22.2.3l13.23,10.35c1.09.86,1.62,2.26,1.37,3.63-.55,3.03-1.39,5.8-2.51,8.3-1.41,3.14-5.54,5.16-8.69,6.4-2.9,1.15-4.41.72-6.68-1.09-2.54-2.01-6.19-5.12-10.97-9.32-.23-.19-.56-.17-.76.06-.07.08-.12.19-.13.3Z"/>
      <path class="cls-32" d="M277.67,87.05l2.09,3.16c6.83,12.79,11.59,25.35,14.28,37.68,8.35,38.35,3.01,74.28-16.01,107.82-7.82,13.77-18.39,26.31-31.7,37.61-.22.19-.78.78-1.69,1.78-.58.65-1.2,1.17-1.86,1.57l-4.35-7.42c8.54-7.42,14.51-13.34,17.9-17.77,6.11-7.99,11.55-14.02,15.44-21.32,5.16-9.62,8.3-16.05,9.44-19.28,6.71-18.96,9.78-37.23,9.23-54.81-.55-17.46-3.52-33.64-8.9-48.55-.87-2.42-1.47-3.94-1.8-4.58-2.44-4.76-5.82-11.04-10.13-18.86-.07-.11-.04-.26.07-.32.07-.04.15-.05.23-.01l7.74,3.31Z"/>
      <path class="cls-36" d="M151.33,86.97l-4.01-.95c-.1-.03-.21-.04-.31-.03l-11.97.12c-1.3.01-2.36,1.05-2.38,2.35l-.44,25.95c-.01.42.32.77.74.79.03,0,.05,0,.08,0,2.66-.2,4.09.18,4.3,1.15-14.62,1.7-25.89,8.98-33.79,21.83-.37-1.63-.96-3.01-1.77-4.12-.54-.73-1.49-1.02-2.34-.7-5.9,2.2-9.66,13.71-10.51,19.52-.81,5.45-1.63,10.03-2.47,13.76-1.9,8.4,1.2,14.02,4.82,22.58.16.38.15.81-.03,1.18-2.57,5.07-5.79,9.77-9.63,14.12,1.27-4.42,3.71-8.64,7.32-12.63.89-.98,1.03-2.44.32-3.57-2.78-4.5-4.67-9.34-5.68-14.53-.16-.82-.81-1.46-1.63-1.6-5.95-1.01-10.18-1.73-12.7-2.17-1.8-.31-2.72-1.32-2.75-3.05-.12-5.65-.13-10.41-.03-14.28.06-2.26-.29-4.1,2.61-4.57,4.33-.71,8.38-1.37,12.14-1.97,1.14-.18,2.05-1.03,2.33-2.14,1.18-4.74,3.07-9.44,5.68-14.08.51-.9.45-2.01-.13-2.86l-7.33-10.71c-.7-1.03-.62-2.4.19-3.33,2.71-3.14,6.56-7.01,11.56-11.6,1.43-1.31,2.96-1.42,4.59-.34.59.4,3.9,2.66,9.93,6.78.76.52,1.75.57,2.55.12,5.41-2.99,10.39-5.18,14.94-6.56.92-.27,1.6-1.05,1.76-1.99l2.07-12.4c.14-.85.74-1.54,1.56-1.8,1.28-.4,3.37-.62,6.28-.66,2.5-.03,6.7.13,12.6.47.73.04,1.26.68,1.58,1.92Z"/>
      <path class="cls-39" d="M151.33,86.97l2.66,12.58c.16.77.74,1.39,1.49,1.61,5.04,1.51,10.13,3.73,15.27,6.65.96.55,2.15.5,3.07-.13l10.89-7.45c.54-.37,1.26-.34,1.77.06,5.32,4.06,9.72,8.39,13.19,12.98.78,1.03.77,2.47-.03,3.49l-7.08,9.03c-.73.94-.91,2.2-.46,3.3l6.24,15.39c.4.99,1.28,1.7,2.33,1.88l12.25,2.05c1.01.17,1.74,1.04,1.75,2.06v17.1c0,1.05-.75,1.95-1.78,2.15l-13.13,2.41c-1.01.19-1.82.94-2.07,1.92l-2.75,10.63c-.1.37-.48.59-.84.5-.1-.03-.19-.07-.27-.14l-12.86-10.91c-.45-.38-.61-1-.39-1.54,6.64-16.83.77-35.41-12.39-46.44-8.45-7.08-18.74-10.34-30.86-9.78-.21-.97-1.64-1.35-4.3-1.15-.42.03-.78-.28-.82-.7,0-.03,0-.05,0-.08l.44-25.95c.02-1.3,1.08-2.34,2.38-2.35l11.97-.12c.1,0,.21,0,.31.03l4.01.95Z"/>
      <path class="cls-31" d="M18.18,98.94l5.05,3.28c-1.45,4.74-2.95,9.47-4.5,14.21-1.88,5.77-3.2,10.54-3.97,14.31-2.88,14.19-3.89,28.23-3.03,42.12,1.06,17.12,5.42,33.7,13.09,49.73-2.19,1.98-2.63,4.52-1.33,7.64,1.31,3.13,2.23,5.45,2.76,6.96.02.08,0,.16-.07.2l-.26.15c-.16.09-.37.04-.46-.12,0,0,0,0,0,0-9.04-15.3-14.54-32.3-17.92-50.07-.75-3.92-1.23-8.6-1.45-14.02-.31-7.36-.45-12.06-.4-14.1.48-20.27,4.51-39.67,12.11-58.2.12-.29.09-.79-.1-1.51l.48-.58Z"/>
      <path class="cls-30" d="M17.7,99.52c.19.72.22,1.22.1,1.51-7.59,18.53-11.63,37.93-12.11,58.2-.04,2.04.09,6.74.4,14.1.22,5.42.71,10.1,1.45,14.02,3.38,17.77,8.87,34.77,17.92,50.07.09.16.3.22.46.12,0,0,0,0,0,0l.26-.15c.06-.04.09-.12.07-.2-.54-1.51-1.46-3.83-2.76-6.96-1.3-3.12-.85-5.67,1.33-7.64l.73,2.42,5.17,10.14c5.71,10.06,12.65,19.25,20.79,27.57,4.96,5.06,10.28,9.82,15.96,14.28l-1.88,8.07c-8.65-6.94-16.21-13.95-22.66-21.04-16.24-17.81-27.88-39.75-33.91-63.57C.48,166.74,3.13,133.31,16.96,100.17c.15-.35.4-.57.74-.65Z"/>
      <path class="cls-33" d="M34.28,104.61c-6.86,4.36-8.22,10.8-10.32,18.2-5.45,19.26-7,37.78-4.63,55.55.86,6.47,2.53,17.07,4.88,24.27,1.91,5.89,3.5,9.96,3.49,13.53,0,.51-.34,1.54-1.02,3.08-.78,1.78-1.16,3.7-1.14,5.77l-.73-2.42c-7.67-16.03-12.03-32.61-13.09-49.73-.86-13.89.15-27.93,3.03-42.12.77-3.77,2.09-8.55,3.97-14.31,1.55-4.74,3.05-9.47,4.5-14.21,3.01,1.25,6.7,2.05,11.06,2.39Z"/>
      <path class="cls-37" d="M177.2,170.64c-.02.07-.1.11-.17.09-.02,0-.03-.01-.05-.02l-9.09-7.71c-.13-.12-.2-.3-.19-.47.5-4.68.24-8.85-.78-12.51-1.1-3.9-3.27-7.42-6.52-10.56-6.71-6.48-15.22-8.8-25.53-6.95-2.14.39-4.01,1.26-5.62,2.61-.95.8-1.2,2.16-.6,3.25.82,1.49,2.1,2.9,3.84,4.22,3.45,2.63,6.97,5.27,10.54,7.91,1.43,1.06.75,3,.13,4.93-1.19,3.75-3.74,6.23-7.64,7.44-1.16.36-2.42.1-3.36-.67l-12.31-10.22c-1.14-.94-2.81-.85-3.82.22-.64.67-1.09,1.66-1.35,2.97-2.19,10.82,3.75,21.5,13.16,27.29,6.83,4.2,13.32,3.98,20.87,2.42,1.04-.22,2.13.06,2.93.75l7.61,6.45c.24.21.28.57.07.81-.05.06-.11.1-.17.14-6.57,3.39-13.17,4.96-19.83,4.71-19.81-.74-35.55-17.26-36.58-36.87-1.81-34.63,40.31-53.97,65.22-29.11,10.57,10.56,13.65,23.52,9.23,38.89Z"/>
      <path class="cls-39" d="M103.54,138.18c-5.68,11.81-6.65,23.18-2.9,34.12,3.22,9.4,8.85,16.85,16.89,22.35,12.63,8.65,31.21,9.78,44.5,1.21.62-.4,1.42-.35,1.98.12l17.81,15.12c.72.61,1.21,1.45,1.38,2.37l.4,2.18c.07.41-.2.8-.6.87-.18.03-.37,0-.53-.11l-8.46-5.43c-.93-.6-2.08-.71-3.09-.29l-15.14,6.13c-1.04.42-1.79,1.36-1.98,2.48l-1.92,11.49c-.2,1.21-1.18,2.13-2.39,2.27-5.27.58-11.18.56-17.7-.07-1.17-.11-2.12-.98-2.33-2.14l-2.28-12.41c-.18-1.01-.92-1.82-1.9-2.09-4.75-1.33-9.5-3.38-14.25-6.14-1.21-.7-2.73-.61-3.85.23-2.92,2.22-5.82,4.32-8.69,6.3-3.28,2.25-4.23.6-6.97-1.99-3.33-3.16-6.63-6.57-9.9-10.25,3.85-4.35,7.06-9.06,9.63-14.12.18-.37.2-.8.03-1.18-3.63-8.56-6.73-14.18-4.82-22.58.84-3.73,1.67-8.32,2.47-13.76.85-5.81,4.61-17.31,10.51-19.52.85-.32,1.8-.03,2.34.7.81,1.11,1.4,2.48,1.77,4.12Z"/>
      <path class="cls-36" d="M118.31,156.61c.03-.3.29-.51.58-.48.11.01.22.05.3.13,4.77,4.2,8.43,7.31,10.97,9.32,2.27,1.8,3.78,2.24,6.68,1.09,3.16-1.24,7.28-3.26,8.69-6.4,1.12-2.51,1.95-5.27,2.51-8.3.25-1.37-.27-2.77-1.37-3.63l-13.23-10.35c-.25-.2-.3-.56-.1-.82.08-.1.18-.17.3-.2,7.5-2.01,14.29-1.14,20.39,2.61,5.87,3.61,9.83,10.35,9.71,17.08-.06,3.77-.81,7.24,2.64,10.19,8.44,7.24,19.03,16.37,31.78,27.37,1.11.96,2.6,1.36,4.05,1.09,3.19-.62,6.68-1.78,9.6-1.49,13.23,1.3,21.61,11.68,20.68,24.6-.02.26-.25.45-.51.42-.09,0-.18-.04-.25-.1-4.59-3.78-8.25-6.68-11-8.71-1.54-1.13-3.05-1.9-4.52-2.29-.52-.14-1.08-.11-1.59.09-7.56,2.89-11.54,8.25-11.93,16.08-.06,1.19.46,2.34,1.4,3.08l13.94,10.92c.27.21.32.61.11.88-.08.1-.19.18-.32.22-3.83,1.09-7.46,1.28-10.91.56-11.01-2.28-17.48-8.8-19.39-19.55-.33-1.87-.44-3.28-.35-4.23.35-3.46-.21-5.47-2.95-7.84-10.62-9.16-21.14-18.03-31.57-26.6-.83-.68-1.92-.97-2.98-.78-2.21.4-3.93.7-5.16.92-15.32,2.64-27.34-10.06-26.22-24.85Z"/>
      <path class="cls-34" d="M69.85,272.21l-2.39,4.79c-5.68-4.46-11-9.22-15.96-14.28-8.15-8.32-15.08-17.51-20.79-27.57l6.01-2.76c.3-.14.66-.03.83.25,7.95,12.55,17.49,23.74,28.61,33.57,1.46,1.29,2.69,3.29,3.69,6.01Z"/>
      <path class="cls-35" d="M238.42,269.24l4.35,7.42c1.64,4.02,2.32,8.29,2.04,12.81-.46,4.49-1.63,8.35-3.5,11.57-5.99,10.35-15.17,15.54-27.54,15.55-39.14.05-78.29.06-117.43.02-11.62-.01-20.48-4.81-26.57-14.38-3.15-4.95-4.55-10.67-4.2-17.18l1.88-8.07,2.39-4.79c4.07-6.21,9.4-10.42,15.98-12.63,3.5-1.18,8.86-1.75,16.09-1.71,35.37.16,70.74.15,106.11-.03,7.37-.04,12.84.53,16.4,1.7,5.63,1.84,10.3,5.08,13.99,9.71ZM71.04,297.2c2.42,5.45,6.28,9.73,11.58,12.86,4.33,2.49,8.8,3.73,13.41,3.73,37.18-.08,74.36-.09,111.53-.02,7.09.01,12.17-.5,15.25-1.56,4.89-1.67,9.08-4.54,12.58-8.61,7.71-9.57,7.89-22.66.31-32.28-5.73-6.94-12.85-10.41-21.35-10.42-34.35-.05-71.49-.06-111.42-.01-7.27,0-12.56.56-15.85,1.67-13.97,4.69-22.37,20.33-16.05,34.65Z"/>
      <path class="cls-33" d="M235.7,271.31c-8.29-3.56-13.83-7.39-23.88-7.5-7.52-.08-15.15.54-22.54.45-19.57-.26-30.95-.55-44.73-.12-4.2.13-8.49.22-12.88.26-2.14.01-4.32.9-6.52,2.66-.76-.04-1.44.09-2.05.41-.35.19-.58.55-.58.95l-.07,3.46c0,.38-.31.68-.68.67h-.41c-.52-.02-.93-.45-.92-.97,0-.02,0-.05,0-.07.06-.66.06-1.18-.01-1.58-.21-1.31-1.45-2.2-2.76-1.99-.27.04-.54.13-.78.27-.55.31-1.01,1.04-1.39,2.19-.34,1.02-1.2,3.5-2.6,7.42-.14.4-.08.84.17,1.17.26.37.91.71,1.96,1.03.14.04.22.19.18.34-.02.06-.06.12-.11.15-.25.17-.43.25-.54.22-1.54-.35-2.28.55-2.19,2.71.02.78.65,1.4,1.43,1.41l8.18.13c.57.01,1.03.49,1.02,1.06h0s-.01.65-.01.65c-.01.7-.59,1.27-1.29,1.25h0l-5.33-.09c-1.1-.02-2.01.84-2.05,1.94l-.32,9.4c-1.04-6-2.11-11.84-3.19-17.51-.93-4.87,0-9.22,2.78-13.04.54-.75.7-2.06.47-3.94-.05-.38-.37-.66-.75-.66-9.2.07-15.2.21-18.01.43-5.28.4-10.19,2.5-14.73,6.28-8.61,7.18-8.93,16.16-9.55,26.43-6.32-14.31,2.08-29.96,16.05-34.65,3.29-1.1,8.57-1.66,15.85-1.67,39.93-.04,77.08-.04,111.42.01,8.5,0,15.62,3.48,21.35,10.42Z"/>
      <path class="cls-34" d="M235.7,271.31c7.58,9.62,7.4,22.72-.31,32.28-.37.07-.68.09-.93.04-.26-.04-.43-.28-.4-.53.01-.07.04-.14.08-.2,6.87-9.7,7.65-21.14.16-30.7-.36-.45-1.01-.53-1.46-.17-.12.1-.22.22-.29.36-.06.12,2.74,6.85,3.02,7.83,3.23,11.24-1.56,20.99-11.73,26.39-4.46,2.36-10.05,3.46-16.76,3.3-24.16-.56-59.98-.64-107.45-.23-6.42.05-12.12-1.16-17.08-3.65-.16-.08-.34-.01-.42.14-.03.06-.04.13-.03.19l.5,3.67c-5.3-3.13-9.16-7.41-11.58-12.86.62-10.27.94-19.25,9.55-26.43,4.54-3.78,9.44-5.87,14.73-6.28,2.81-.22,8.81-.36,18.01-.43.38,0,.7.29.75.66.23,1.88.07,3.19-.47,3.94-2.78,3.82-3.71,8.17-2.78,13.04,1.08,5.68,2.14,11.51,3.19,17.51l.79,3c.09.31.34.56.65.64,1.34.34,2.45.18,3.35-.48.31-.23.49-.59.49-.97v-8.18c0-.41.33-.75.74-.75h1.86c.46,0,.83.38.83.84v11.02c0,1.11.9,2.01,2.01,2.01h1.28c1.09,0,1.97-.88,1.97-1.97h0s-.02-5.06-.02-5.06c.34.34.59.5.76.46.27,2.83,1.83,4.01,4.69,3.54,3.2-.53,3.32-4.2,3.26-7.07-.09-3.74-.15-5.86-.18-6.38-.08-1.13-1.03-2.01-2.17-2.01h-5.66c-.56,0-1.01-.45-1.01-1.01h0v-1.1c0-.43.35-.77.77-.77h7.77c.64,0,1.17-.5,1.2-1.13l.11-2.28c.03-.65-.47-1.21-1.13-1.24-.02,0-.04,0-.06,0h-7.87c-.38,0-.68-.31-.68-.68h0v-1.96c0-.36.3-.66.66-.66h5.65c.85,0,1.53-.68,1.53-1.52v-1.25c0-.88-.71-1.59-1.59-1.59h-6.01c-.33,0-.61-.27-.61-.6,0-.03,0-.06,0-.08.21-1.77.84-5.14-2.24-4.9,2.21-1.76,4.38-2.65,6.52-2.66,4.39-.04,8.68-.12,12.88-.26,13.78-.43,25.16-.13,44.73.12,7.39.09,15.02-.53,22.54-.45,10.05.11,15.59,3.94,23.88,7.5ZM142.37,304.48c.16.88.88,1.56,1.77,1.66,2.86.34,5.15,0,6.85-1.01,1.08-.65,1.75-1.82,1.75-3.08v-32.04c0-1.32-1.07-2.39-2.39-2.39h-.6c-1.24,0-2.25,1.01-2.25,2.26h0v30.18c0,.7-.56,1.26-1.25,1.26h-3.4c-.48,0-.86.38-.86.86,0,.05,0,.11.01.16l.39,2.14ZM162.49,286.51l-.04,17.17c0,1.53,1.2,2.78,2.73,2.83h.13c1.46.11,2.73-1,2.83-2.47,0-.07,0-.13,0-.2l-.25-24.37c0-1.08.23-2.15.68-3.13l2.47-5.28c.57-1.22.05-2.67-1.16-3.25l-.36-.17c-1.21-.57-2.66-.04-3.23,1.17,0,.01-.01.02-.02.04-1.95,4.33-4.45,8.42-7.5,12.26-1.92,2.44-.92,4.12.66,6.09.3.38.85.44,1.23.13.04-.03.07-.06.1-.1.22-.24.63-.56,1.25-.97.14-.09.33-.05.41.09.03.05.05.1.04.16ZM181.72,273.27l1.19-2.54c.42-.88.04-1.93-.84-2.35,0,0,0,0,0,0l-1.34-.63c-.87-.41-1.91-.03-2.32.84-.01.03-.03.06-.04.09-2.21,5.48-4.71,9.78-7.5,12.92-.96,1.08-.86,2.73.21,3.68,0,0,0,0,0,0l.16.15c1.06.94,2.68.84,3.62-.22.05-.06.11-.13.15-.19,2.35-3.26,4.04-6,4.99-6.36.33-.12.68.05.8.38.02.07.04.14.04.21v24.93c0,1.29,1.04,2.33,2.33,2.33h.92c1.25,0,2.26-1.01,2.26-2.26h0v-6.39c0-.37.29-.67.65-.67l9.22-.13c1.17-.02,2.11-.98,2.09-2.15,0-.01,0-.02,0-.03v-.22c0-1.23-.99-2.23-2.22-2.24h-9.05c-.46-.01-.83-.38-.83-.84v-3.14c0-.41.34-.75.75-.75,0,0,0,0,.01,0l8.77.06c1.12.01,2.04-.88,2.05-2,0-.03,0-.06,0-.09v-.32c.02-1.29-1-2.35-2.28-2.37-.02,0-.03,0-.05,0h-8.53c-.37,0-.67-.3-.67-.67v-2.91c0-.43.35-.77.77-.77h9.88c1.09,0,1.97-.88,1.97-1.96h0v-.45c0-1.25-1.02-2.27-2.28-2.27h-14.48c-.25,0-.45-.2-.45-.45,0-.06.01-.13.04-.19ZM144.51,272.56c0-1.09-.87-1.97-1.96-1.98h-1.05c-1.09,0-1.97.87-1.98,1.96l-.07,20.12c0,1.09.87,1.97,1.96,1.98h1.05c1.09,0,1.97-.87,1.98-1.96h0s.07-20.12.07-20.12Z"/>
      <path class="cls-35" d="M125.16,267.06c3.08-.24,2.45,3.13,2.24,4.9-.04.33.19.63.52.68.03,0,.06,0,.08,0h6.01c.88,0,1.59.71,1.59,1.59h0v1.25c0,.84-.69,1.52-1.53,1.52h-5.65c-.36,0-.66.3-.66.66v1.96c0,.38.31.68.68.68h7.87c.66,0,1.19.53,1.19,1.18,0,.02,0,.04,0,.06l-.11,2.28c-.03.63-.56,1.13-1.2,1.13h-7.77c-.43,0-.77.35-.77.77h0v1.1c0,.56.45,1.01,1.01,1.01h5.66c1.14,0,2.09.88,2.17,2.01.03.51.09,2.64.18,6.38.07,2.88-.06,6.55-3.26,7.07-2.86.47-4.42-.71-4.69-3.54l2.28-1.14c.36-.19.59-.56.59-.96v-4.34c0-.44-.36-.81-.79-.81h-2.08c-.39,0-.71.32-.72.72l-.04,6.08.02,5.05c0,1.09-.87,1.97-1.96,1.98h-1.29c-1.11,0-2.01-.9-2.01-2.01h0v-11.02c0-.46-.37-.84-.83-.84h-1.86c-.41,0-.74.34-.74.75h0v8.18c0,.39-.18.75-.49.97-.9.66-2.01.82-3.35.48-.31-.08-.56-.32-.65-.64l-.79-3,.32-9.4c.04-1.09.95-1.96,2.05-1.94l5.33.09c.7.01,1.27-.55,1.29-1.25h0s.01-.65.01-.65c.01-.57-.44-1.05-1.02-1.06h0l-8.18-.13c-.78-.01-1.41-.63-1.43-1.41-.08-2.16.65-3.06,2.19-2.71.11.02.29-.05.54-.22.13-.09.16-.26.08-.38-.03-.05-.09-.09-.15-.11-1.04-.32-1.7-.66-1.96-1.03-.25-.34-.31-.78-.17-1.17,1.4-3.92,2.26-6.4,2.6-7.42.37-1.16.84-1.89,1.39-2.19,1.16-.64,2.63-.22,3.27.95.13.24.22.5.27.78.07.4.07.92.01,1.58-.05.52.33.98.85,1.03.02,0,.05,0,.07,0h.41c.37.02.68-.28.68-.66h0s.07-3.46.07-3.46c0-.4.23-.76.58-.95.6-.32,1.29-.46,2.05-.41ZM117.75,280.35l3.64-.08c.88-.02,1.57-.75,1.55-1.63-.02-.65-.43-1.22-1.03-1.45-2.08-.77-3.61.07-4.59,2.52-.1.23,0,.5.24.6.06.03.13.04.19.04Z"/>
      <path class="cls-35" d="M142.37,304.48l-.39-2.14c-.09-.47.22-.92.69-1,.05,0,.11-.01.16-.01h3.4c.69,0,1.25-.57,1.25-1.26v-30.18c0-1.25,1.01-2.26,2.25-2.26h.6c1.32,0,2.39,1.07,2.39,2.39v32.04c0,1.26-.66,2.43-1.75,3.08-1.7,1.01-3.98,1.34-6.85,1.01-.89-.1-1.61-.77-1.77-1.66Z"/>
      <path class="cls-35" d="M162.03,286.26c-.62.41-1.04.73-1.25.97-.32.36-.87.39-1.23.07-.04-.03-.07-.07-.1-.1-1.58-1.97-2.58-3.65-.66-6.09,3.04-3.85,5.54-7.94,7.5-12.26.55-1.22,1.98-1.77,3.21-1.23.01,0,.02.01.04.02l.36.17c1.22.58,1.74,2.03,1.16,3.25l-2.47,5.28c-.46.98-.69,2.05-.68,3.13l.25,24.37c0,1.47-1.17,2.67-2.64,2.68-.07,0-.13,0-.2,0h-.13c-1.53-.06-2.74-1.31-2.73-2.84l.04-17.17c0-.16-.13-.29-.29-.29-.06,0-.12.02-.16.05Z"/>
      <path class="cls-35" d="M181.72,273.27c-.11.22,0,.49.21.6.06.03.12.04.19.04h14.48c1.26,0,2.28,1.02,2.28,2.27h0v.45c0,1.08-.88,1.96-1.97,1.96h-9.88c-.43,0-.77.35-.77.77h0v2.91c0,.37.3.67.67.67h8.53c1.29,0,2.33,1.04,2.33,2.33,0,.02,0,.03,0,.05v.32c.04,1.12-.84,2.05-1.96,2.09-.03,0-.06,0-.09,0l-8.77-.06c-.41,0-.75.32-.76.74,0,0,0,0,0,.01v3.14c0,.46.37.83.83.83h9.05c1.23.02,2.22,1.02,2.22,2.25h0v.22c.04,1.17-.88,2.14-2.06,2.18-.01,0-.02,0-.03,0l-9.22.13c-.36,0-.65.31-.65.67v6.39c0,1.25-1.01,2.26-2.26,2.26h-.92c-1.29,0-2.33-1.04-2.33-2.33h0v-24.93c0-.35-.29-.62-.63-.62-.07,0-.14.01-.21.04-.95.36-2.64,3.1-4.99,6.36-.83,1.15-2.43,1.4-3.58.57-.07-.05-.13-.1-.19-.15l-.16-.15c-1.07-.95-1.17-2.6-.21-3.68,0,0,0,0,0,0,2.79-3.14,5.29-7.45,7.5-12.92.36-.89,1.38-1.33,2.27-.97.03.01.06.03.09.04l1.34.63c.88.41,1.26,1.46.84,2.35,0,0,0,0,0,0l-1.19,2.54Z"/>
      <rect class="cls-35" x="129.95" y="280.12" width="24.06" height="4.99" rx="1.97" ry="1.97" transform="translate(-141.13 423.6) rotate(-89.8)"/>
      <path class="cls-32" d="M235.39,303.6c-3.5,4.07-7.69,6.93-12.58,8.61-3.08,1.05-8.17,1.57-15.25,1.56-37.17-.07-74.35-.06-111.53.02-4.6,0-9.07-1.23-13.41-3.73l-.5-3.67c-.03-.17.08-.33.25-.36.07-.01.13,0,.19.03,4.96,2.48,10.65,3.7,17.08,3.65,47.47-.4,83.29-.32,107.45.23,6.71.16,12.3-.94,16.76-3.3,10.17-5.39,14.96-15.15,11.73-26.39-.28-.98-3.08-7.71-3.02-7.83.24-.51.86-.73,1.38-.48.14.07.27.17.37.29,7.5,9.56,6.71,20.99-.16,30.7-.15.2-.1.49.11.64.06.04.13.07.2.08.25.04.56.03.93-.04Z"/>
      <path class="cls-33" d="M117.31,279.72c.98-2.45,2.51-3.29,4.59-2.52.82.31,1.24,1.22.93,2.04-.23.61-.8,1.02-1.45,1.03l-3.64.08c-.25,0-.46-.19-.47-.44,0-.07.01-.13.04-.19Z"/>
      <path class="cls-33" d="M128.71,299.77c-.17.04-.43-.12-.76-.46l.04-6.08c0-.4.32-.72.72-.72h2.08c.44,0,.79.36.79.81h0v4.34c0,.41-.23.78-.59.96l-2.28,1.14Z"/>
    </g>
  </g>
</svg>