<?xml version="1.0" encoding="UTF-8"?>
<svg id="_图层_2" data-name="图层 2" xmlns="http://www.w3.org/2000/svg" viewBox="0 0 303.89 305.76">
  <defs>
    <style>
      .cls-1 {
        stroke: #977252;
      }

      .cls-1, .cls-2, .cls-3, .cls-4, .cls-5, .cls-6, .cls-7, .cls-8, .cls-9, .cls-10, .cls-11, .cls-12, .cls-13, .cls-14, .cls-15, .cls-16, .cls-17, .cls-18, .cls-19, .cls-20, .cls-21, .cls-22 {
        fill: none;
        stroke-linejoin: round;
        stroke-width: 2.24px;
      }

      .cls-2 {
        stroke: #eed8b1;
      }

      .cls-3 {
        stroke: #e5c9b3;
      }

      .cls-4 {
        stroke: #e6c89e;
      }

      .cls-23 {
        fill: #d2a883;
      }

      .cls-24 {
        fill: #e3c5a4;
      }

      .cls-25 {
        fill: #e9ca98;
      }

      .cls-26 {
        fill: #f6eee0;
      }

      .cls-27 {
        fill: #f2e3c0;
      }

      .cls-5 {
        stroke: #9c7f66;
      }

      .cls-6 {
        stroke: #a28d86;
      }

      .cls-7 {
        stroke: #947058;
      }

      .cls-8 {
        stroke: #d7ac85;
      }

      .cls-9 {
        stroke: #eed7ac;
      }

      .cls-28 {
        fill: #451a0c;
      }

      .cls-10 {
        stroke: #dbb794;
      }

      .cls-11 {
        stroke: #daae7f;
      }

      .cls-12 {
        stroke: #ebd5b7;
      }

      .cls-13 {
        stroke: #eddac2;
      }

      .cls-14 {
        stroke: #9e8476;
      }

      .cls-29 {
        fill: #f2e5ca;
      }

      .cls-15 {
        stroke: #885639;
      }

      .cls-16 {
        stroke: #f1e2d2;
      }

      .cls-17 {
        stroke: #e9d4c1;
      }

      .cls-18 {
        stroke: #e2c7a7;
      }

      .cls-19 {
        stroke: #8c6148;
      }

      .cls-20 {
        stroke: #f4ead5;
      }

      .cls-30 {
        fill: #ca9266;
      }

      .cls-21 {
        stroke: #9c806b;
      }

      .cls-22 {
        stroke: #f4e9d0;
      }
    </style>
  </defs>
  <g id="_图层_1-2" data-name="图层 1">
    <g>
      <path class="cls-16" d="M17.09,97.5c-6.3,12.13-10.62,25.81-12.96,41.03-2.59,16.82-2.16,32.96,1.29,48.43"/>
      <path class="cls-17" d="M5.41,186.97c6.89,30.42,22.15,56.47,45.8,78.16,4.3,3.95,8.18,6.9,11.63,8.85"/>
      <path class="cls-6" d="M62.84,273.98c.47,11.25,5.11,19.82,13.91,25.7,4.19,2.8,9.94,4.9,14.8,4.89,68.66,0,107.47.01,116.41.07,5.23.03,8.92-.23,11.07-.77,13.83-3.52,22.62-14.58,23.5-28.9"/>
      <path class="cls-3" d="M242.54,274.97c11.58-8.65,21.24-17.8,28.98-27.46,27.63-34.52,37.63-79.59,27.23-122.77-11.44-47.5-44.37-85.19-89.78-103.16-28.03-11.09-57.08-13.57-87.15-7.43-.33.07-.62.27-.79.56-.21.35-.48.62-.82.79"/>
      <path class="cls-6" d="M120.2,15.5c-3.74-4.89-6.64-8.01-8.69-9.36C104.34,1.43,97.19.04,90.05,1.95c-2.71.73-8.67,3.88-17.88,9.46-21.86,13.23-40.04,24.21-54.53,32.93-5.13,3.08-8.46,5.51-10.02,7.27-5.6,6.33-8.06,15.47-5.47,23.58,1.04,3.27,2.97,7.09,5.8,11.46,2.68,4.14,5.73,7.76,9.14,10.85"/>
      <path class="cls-15" d="M120.2,15.5l.7,1.14"/>
      <path class="cls-7" d="M120.91,16.64l2.55,4.19"/>
      <path class="cls-14" d="M123.46,20.82c2.79,3.89,4.58,8.55,5.36,13.98"/>
      <path class="cls-21" d="M128.82,34.8c.07,6.51-1.63,12.04-5.11,16.6-1.97,2.57-6.43,5.98-13.38,10.21-25.54,15.53-46.73,28.3-63.59,38.29-4.69,2.78-9.57,4.06-14.64,3.83"/>
      <path class="cls-14" d="M32.09,103.72l-9.52-2.6"/>
      <path class="cls-7" d="M22.57,101.13l-5.48-3.63"/>
      <path class="cls-4" d="M284.72,104.8c-6.61-15.78-15.76-29.87-27.46-42.27"/>
      <path class="cls-12" d="M257.26,62.53l-8.2-7.95"/>
      <path class="cls-13" d="M249.06,54.59c-16.06-14.71-34.72-25.11-55.97-31.19-23.1-6.6-46.31-7.46-69.63-2.57"/>
      <path class="cls-20" d="M249.06,54.59c.24,4.1-3.69,3.09-5.7,1.63-8.31-6-13.37-9.53-15.17-10.6-14.74-8.73-31.39-15.85-48.12-18.99-16.67-3.14-33.9-3.79-50.03-.69-.64.12-1.06.74-.94,1.38l1.37,7.48c.07.34-.15.68-.49.75-.22.04-.44-.02-.59-.18l-.56-.56"/>
      <path class="cls-2" d="M257.26,62.53c-3.02,4.77,2.32,9.87,4.82,13.2,1.65,2.19,3.01,4.18,4.07,5.96,7.03,11.78,11.8,21.28,14.3,28.51,8.76,25.33,10.81,56.38,2.29,83.1-2.16,6.77-5.21,14.18-9.14,22.25-5.43,11.11-13.45,20.63-21.35,30.09-1.06,1.27-3.47,3.68-7.24,7.23-2.57,2.42-4.92,4.89-7.06,7.43"/>
      <path class="cls-21" d="M237.96,260.31c-4.46-6.27-10.28-10.52-17.45-12.75-3.74-1.16-9.38-1.73-16.94-1.7-35.76.14-71.51.14-107.26-.01-14.28-.06-27.35,7.65-32.19,21.27"/>
      <path class="cls-18" d="M64.12,267.12c-10.24-7.98-19.28-17.1-27.1-27.35"/>
      <path class="cls-12" d="M37.02,239.77c-4.63-6.59-8.81-13.45-12.52-20.58"/>
      <path class="cls-20" d="M24.49,219.19c2.75-3.04,3.48-6.19,2.22-9.46-9.85-25.45-12.45-50.34-7.79-74.65,1.81-9.42,4.74-19.22,8.8-29.4.12-.31.42-.52.75-.53,3.73-.1,4.94-.58,3.63-1.44"/>
      <path class="cls-13" d="M22.57,101.13c-4.84,11.53-7.59,19.19-8.26,22.96-.7,3.95-1.4,7.9-2.1,11.86-5.15,29.25-1.05,57,12.29,83.24"/>
      <path class="cls-10" d="M37.02,239.77c1.31,3.72,2.05,7.42,2.23,11.11.02.14-.08.26-.22.27-.09.01-.18-.03-.23-.11-5.89-7.48-10.37-13.66-13.42-18.53-7.79-12.44-13.45-25.38-16.98-38.82-.77-2.94-1.26-6.08-2.16-9.01-.02-.1-.13-.16-.23-.13-.07.02-.13.08-.15.16l-.45,2.25"/>
      <path class="cls-15" d="M242.54,274.97l-1.17-7.62"/>
      <path class="cls-11" d="M241.36,267.35c4.68-3.83,8.13-6.79,10.34-8.87,12.9-12.19,22.85-25.36,29.86-39.52,14.51-29.32,17.97-60.49,10.37-93.51-1.13-4.91-3.54-11.79-7.21-20.65"/>
      <path class="cls-8" d="M284.72,104.8l9.7,10.78s.11.05.16.01c.04-.03.05-.08.03-.13-4.83-15.24-11.84-29.44-21.03-42.59-8.87-12.73-19.61-23.56-32.21-32.49-12.62-8.94-26.24-15.88-40.88-20.81-5.51-1.86-13.09-3.69-22.74-5.48-5.92-1.1-12.33-1.69-19.25-1.78-8.12-.1-14.57.04-19.37.43-5.04.41-10.45,1.23-16.24,2.47-.39.08-1.06.56-2,1.43"/>
      <path class="cls-1" d="M241.36,267.35l-3.4-7.04"/>
      <path class="cls-19" d="M64.12,267.12l-1.28,6.86"/>
      <path class="cls-5" d="M6.85,56.81c-7.13,12.1-1.79,21.75,5.58,31.89,8.94,12.31,22.11,15.87,35.53,7.14,4.16-2.71,11.9-7.37,23.21-13.98"/>
      <path class="cls-1" d="M71.17,81.87c14.38-8.75,28.77-17.5,43.15-26.24,3.72-2.25,6.5-5.07,8.35-8.46"/>
      <path class="cls-5" d="M122.67,47.17c3.68-7.12,3.57-14.49-.34-22.11-3.4-6.64-7.25-12.1-11.54-16.38"/>
      <path class="cls-14" d="M110.79,8.67c-6.73-4.82-13.5-6.33-20.3-4.54-2.23.59-7.93,3.63-17.09,9.13-19.24,11.53-38.47,23.1-57.7,34.69-4.03,2.42-6.98,5.38-8.86,8.86"/>
      <path class="cls-22" d="M110.79,8.67c-.05.54-.13.95-.22,1.23-.19.49-.65.52-1.4.08-5.44-3.25-11.11-4.23-17.01-2.97-5.64,1.22-13.54,7.14-18.16,9.37-4.1,1.97-7.77,5.09-12.04,7.39-6.02,3.25-13.7,8.33-18.31,10.98-6.71,3.86-13.26,8.03-19.67,12.51-2.58,1.81-7.41,3.74-9.58,6.19-2.56,2.89-4.23,5.39-5.01,7.49-.64,1.72-1.6,5.43-2.86,11.12-.05.21-.25.35-.47.34l-.34-.03c-.13-.01-.22-.13-.21-.26l1.34-15.29"/>
      <path class="cls-9" d="M122.67,47.17c.46-5.23,1.35-11.48.12-16.15-1.22-4.64-3.42-9.05-6.62-13.24-.12-.16-.34-.19-.5-.08-.07.05-.11.12-.13.2-.19.8-.15,1.43.15,1.9,2.07,3.33,3.53,6.2,4.36,8.61,2.93,8.38.96,17.07-6.31,22.27-2,1.43-3.46,2.46-4.38,3.08-3.75,2.52-12.16,7.7-25.26,15.53-13.26,7.93-24.6,14.8-34.02,20.62-6.57,4.06-11.12,6.32-13.65,6.77-5.21.93-10.1-.13-14.67-3.18-4.08-2.72-8.36-7.47-12.82-14.27-.08-.12-.25-.16-.38-.09h0c-.16.1-.22.3-.13.46,2.7,5.35,5.94,9.95,9.71,13.81,2.54,2.59,5.79,4.29,9.76,5.09,3.46.71,7.08.85,10.84.44.57-.06,1.12-.23,1.63-.51,3.68-2.02,6.33-3.44,7.97-4.24,1.51-.74,4.15-2.35,7.9-4.82,4.46-2.95,9.26-5.8,14.39-8.56.13-.07.29-.02.36.1.02.04.03.09.03.14-.02.25.03.53.15.82"/>
      <path class="cls-5" d="M63.49,57.91c1.87-.99,3.71-2.19,5.53-3.59,7.24-5.56,6.33-15.35-1.64-19.58-4.27-2.26-9.4.04-13.29,2.33-3.95,2.31-6.8,4.22-8.53,5.71-.75.66-.94,1.76-.44,2.62l14.45,25.02c.87,1.51,2.8,2.02,4.31,1.15l1.87-1.09c1.56-.9,2.1-2.9,1.2-4.45l-3.85-6.68c-.29-.5-.12-1.13.37-1.42,0,0,.02-.01.03-.02"/>
      <path class="cls-21" d="M133.34,86.04c.88-10.89-1.88-27.71-17.12-13.67-12,11.06-16.75,27.45-17.21,43.56-.01.56-.36,1.06-.88,1.26-12.46,4.92-20.7,13.68-24.73,26.27-.27.85-.63,1.66-1.09,2.43-1.23,2.07-2.16,3.67-2.78,4.8-4.91,9,.37,19.12,8.68,24.17,3.39,2.05,8.42,3.94,15.08,5.65.37.09.68.34.85.68.21.43.52,1.49.94,3.19,1.25,5.13,3.51,9.87,6.78,14.22.64.85.97,1.91.92,2.98-.1,2.16-.72,4.91-1.86,8.24-.91,2.66-6.02,9.89-3.63,14.53,2.29,4.41,8.58,4.35,12.7,2.65,5.82-2.41,8.63-6.94,11.56-12.71.27-.53.86-.8,1.43-.65l.94.25c.58.14.94.73.79,1.31,0,.04-.02.07-.03.11-.52,1.45-1.78,4.12-3.77,8.02-1.94,3.79-1.81,6.83.4,9.13,4.34,4.52,13.32,2.56,18.01-1.11,3.37-2.64,6.32-6.07,8.84-10.28.32-.54.91-.87,1.53-.85l12.92.22c.18,0,.33.14.33.33,0,.05-.01.1-.03.15-2.69,5.23-1.76,9.21,3.44,10.85,1.43.46,2.52.69,3.26.7,15.13.34,29.53-2.48,43.19-8.44,4.35-1.89,6.13-5.17,5.34-9.84-.1-.59-.05-1.19.16-1.75,1.05-2.91,3.23-6.01,4.34-9.04,1.53-4.15,2.64-8.39,3.32-12.73.06-.42.39-.75.81-.82,7.56-1.15,12.44-7.37,12.78-14.97.25-5.74-1.67-10.7-5.76-14.88-3.8-3.88-8.97-4.97-13.91-2.65-.4.19-.89.05-1.12-.34-8.22-13.71-20.28-21.94-36.17-24.69-13.08-2.27-25.19-.34-37.85,4.04-.32.11-.67-.05-.79-.36l-2.79-6.87c-.16-.4-.02-.86.32-1.11,14.79-10.63,25.31-24.83,26.9-43.42.66-7.62-.87-15.32-10.74-13.08-9.13,2.06-17.29,7.83-23.71,14.76-.13.14-.35.16-.49.03-.08-.07-.13-.19-.11-.3"/>
      <path class="cls-21" d="M54.82,45.76l3.65,6.09c.41.69,1.29.91,1.98.51,0,0,0,0,0,0l2.22-1.33c2.88-1.73,4.16-4.9,2.85-7.08,0,0,0,0,0,0l-.39-.65c-1.31-2.18-4.7-2.55-7.59-.83l-2.22,1.32c-.69.41-.91,1.29-.51,1.98,0,0,0,0,0,0"/>
      <path class="cls-7" d="M118.36,115.24c1.98-8.36,5.47-15.85,10.45-22.48.45-.59.73-1.3.82-2.04.67-5.9.97-13.61-1.9-18.74-.51-.91-1.56-1.35-2.55-1.07-4.88,1.33-9.75,7.28-13.05,12.1-6.46,9.41-8.75,21.1-9.47,32.57-.02.31.22.59.53.61.04,0,.08,0,.12,0,5.09-.66,9.53-1.41,14.19-.39.38.08.77-.16.86-.55"/>
      <path class="cls-21" d="M150.96,216.71l15.14-.08c.16,0,.33-.02.48-.07l9.24-2.67c.23-.07.37-.31.3-.54-.02-.07-.06-.14-.11-.19-1-.97-2.47-2.28-3.28-3.52-8.34-12.88-5.32-28.36,7.09-37.41.47-.35,1.09-.42,1.63-.19l.39.16c.39.17.58.62.41,1.01-.04.1-.11.19-.18.26-1.76,1.62-3.83,2.92-5.49,4.98-9.8,12.15-7.02,31.86,9.31,36.78.65.18,1.03.85.85,1.5-.15.53-.63.9-1.18.89-1.84.02-4.45-.85-6.7-.75-5.77.26-12.62,2.72-13.6,8.97-.08.56.15,1.11.6,1.44,1.28.9,2.55,1.36,3.82,1.38,14.17.18,27.7-2.37,40.6-7.65,1.98-.81,3.31-1.81,3.98-3,.25-.43.33-.93.23-1.41-.48-2.55-.51-4.29-.09-5.2,2.29-4.96,4.78-9.02,6.15-14.03,3.36-12.25,2.39-23.77-2.91-34.56-10.21-20.77-32.12-30.21-55.03-26.97-5.77.81-11.63,2.26-17.56,4.33-.35.13-.58.47-.56.84l.31,5.67c.03.64-.46,1.19-1.09,1.22h0s-.3.02-.3.02c-.7-.02-1.27-.56-1.32-1.25-.43-5.41-1.86-10.57-4.29-15.5-.2-.4-.69-.57-1.09-.37-.02,0-.03.02-.05.03l-1.04.6c-.52.29-1.18.11-1.48-.4-.16-.27-.18-.6-.08-.9.6-1.69,5.29-5.01,9.74-8.63,12.23-9.94,20.72-24.27,21-39.96.04-2.01-.34-3.73-1.12-5.17-.58-1.05-1.71-1.69-2.91-1.63-2.59.11-5,.73-7.23,1.85-14.35,7.15-24.45,18.26-30.3,33.3-1.32,3.4-2.62,7.37-3.89,11.91-.19.67-.89,1.05-1.55.86-.44-.13-.78-.49-.88-.94-.12-.53-.05-1.26.21-2.19.09-.35-.12-.71-.47-.81-.04,0-.08-.02-.11-.02-16-1.31-32.09,6.43-37.82,21.92-1.46,3.97-2.63,6.63-3.5,7.99-2.1,3.28-3.23,5.39-3.39,6.36-1,5.85,1.05,11.18,5.54,14.88.14.11.33.09.44-.04.05-.06.08-.15.06-.23l-.76-7.81c-.03-.31-.17-.59-.4-.79l-1.99-1.82c-.49-.44-.75-1.1-.68-1.77l.09-.98c.02-.28.27-.49.55-.47.16.01.3.1.39.23,2.18,3.07,4.88,3.36,8.09.87.43-.33,1.04-.25,1.37.17.05.06.09.13.12.21l.16.48c.16.5-.05,1.05-.5,1.32l-4.03,2.33c-.34.19-.55.56-.53.95l.44,7.93c.03.51.29.97.72,1.25,6.71,4.45,16.23,6.39,28.56,5.84.47-.02.87.34.89.81,0,.16-.03.32-.11.46l-.2.3c-.43.69-1.18,1.12-1.99,1.16l-9.65.54c-.23.01-.42.21-.4.45,0,.03,0,.05.01.08,3.82,15.41,13.01,23.94,27.26,29.79.29.12.62-.02.74-.31.02-.05.04-.11.04-.17l.58-6.75c.06-.62.54-1.12,1.15-1.21h.04c.61-.06,1.15.37,1.22.98,0,.02,0,.04,0,.05.51,9-1.61,14.87-5.34,22.88-.61,1.33-.27,2.88.83,3.76.69.54,1.64.83,2.85.86,14.41.34,21.51-18.22,24.73-29.05.15-.5.68-.79,1.18-.64.08.02.16.06.23.1l.03.03c.6.36.92,1.06.79,1.76-.85,4.97-2.14,9.15-3.87,12.56-.13.25-.03.56.22.69.07.04.15.06.24.06"/>
      <path class="cls-5" d="M226.49,186.35c15.85-4.85,9.43-30.52-5.08-25.79-.34.11-.53.48-.42.82,0,.02.02.04.03.07,3.47,7.59,5.04,15.69,4.7,24.32-.02.33.24.6.56.62.07,0,.14,0,.21-.03"/>
      <path class="cls-7" d="M105.85,204.04c-.49,4.74-2.1,9.51-4.81,14.29-.39.69-.62,1.74-.7,3.14-.16,2.69,2.95,3.19,5.01,2.93,7.09-.9,10.09-6.13,13.14-12.01.18-.35.04-.78-.31-.96,0,0-.01,0-.02-.01-3.99-1.91-7.72-4.51-11.19-7.8-.27-.25-.68-.24-.93.03-.1.11-.16.24-.17.38"/>
      <path class="cls-21" d="M156.33,81.07c-1.21.04-2.55.51-4.02,1.39-14.67,8.76-22.69,25.79-23.59,42.76-.02.52.38.96.9.98.06,0,.12,0,.18,0h.07c.65-.11,1.15-.63,1.23-1.28,2.31-18.37,8.99-33.18,25.64-42.44.36-.21.48-.67.28-1.02-.14-.24-.4-.39-.68-.37"/>
      <path class="cls-21" d="M108.31,140.5c-3.21-.45-6.23,2.23-6.75,5.98h0c-.52,3.75,1.66,7.14,4.87,7.59,3.21.45,6.23-2.23,6.75-5.98h0c.52-3.75-1.66-7.14-4.87-7.59"/>
      <path class="cls-5" d="M68.94,286.1c5.69,10.68,14.35,16,25.97,15.98,38.51-.07,77.02-.09,115.54-.06,2.33,0,4.15-.36,5.46-1.07"/>
      <path class="cls-1" d="M215.92,300.95c2.28.37,5.02-.44,8.22-2.42"/>
      <path class="cls-5" d="M224.14,298.53c10.51-5.68,15.43-14.12,14.76-25.33-.34-5.76-2.77-10.82-7.27-15.19"/>
      <path class="cls-14" d="M231.63,258.01c-3.76-3.54-7.94-6.07-12.54-7.59-3.26-1.07-8.12-1.61-14.59-1.6-64.52.07-100.3.09-107.34.04-19.58-.13-37.4,17.02-28.21,37.23"/>
      <path class="cls-22" d="M231.63,258.01c-3.25-.59-6.38-1.6-9.38-3.02-2.41-1.15-4.25-1.85-5.52-2.1-2.16-.43-4.14-.66-5.92-.69-15.34-.23-27.48-.33-36.44-.3-3.61.01-7.8.66-11.67.55-17.8-.52-37.55-.54-59.26-.07-8.47.18-13.72.59-15.77,1.22-9.14,2.84-15.67,12.32-17.12,21.74-.15.92-1.12,2.54-1.56,3.25-.15.23-.22.49-.21.76l.16,6.76"/>
      <path class="cls-9" d="M224.14,298.53c-.15-.1-.24-.21-.28-.31-.16-.37-.07-.67.27-.88,9.39-5.84,14.51-15.01,12.58-26.35-.48-2.84-1.59-5.38-3.3-7.61-.24-.32-.69-.39-1.02-.16-.27.19-.37.54-.25.85,4.15,11.1,2.51,22.34-7.77,28.84-3.55,2.25-6.28,3.64-8.18,4.17-4.6,1.3-9.79,1.91-15.55,1.82-34.09-.47-68.19-.46-102.3.02-9.84.13-17.23-4.33-24.62-10.31-.23-.18-.57-.14-.75.09-.14.17-.15.41-.04.6,4.86,7.93,13.25,11.02,22.1,11.07,12.85.07,22.93.13,30.26.17,7.97.04,13.71-.4,20.44-.3,4.51.07,9.62.08,15.31.01,18.2-.22,36.49,0,54.88.69"/>
      <path class="cls-5" d="M162.18,282.42v10.24c0,1.09.89,1.97,1.98,1.97h1.15c1.16,0,2.09-.94,2.09-2.09h0v-11.15c0-.59.4-1.11.97-1.25,2.3-.56,3.39-1.82,3.29-3.79-.13-2.44-2.48-1.92-3.84-.9-.07.06-.18.04-.24-.03-.02-.03-.03-.06-.03-.1v-5.89c0-.4.29-.74.69-.81.25-.04.59-.05,1.04-.02,1.14.07,1.73-.94,1.77-3.01.01-.85-.61-1.59-1.45-1.73l-1.73-.29c-.44-.08-.76-.47-.73-.91l.24-4.85c.06-1.18-.78-2.21-1.94-2.41l-.92-.16c-.97-.16-1.89.49-2.05,1.46-.01.07-.02.14-.02.21l-.29,6c-.02.33-.29.59-.62.59h-.31c-.46,0-.83-.37-.83-.82,0-.02,0-.03,0-.05l.17-3.32c.02-.44-.25-.83-.66-.97-.84-.28-1.78-.33-2.82-.17-.35.05-.62.33-.68.68l-2.07,12.4c-.14.83.42,1.62,1.25,1.76.06.01.12.02.18.02l.83.04c.93.05,1.75-.61,1.9-1.53l.38-2.25c.1-.61.62-1.05,1.23-1.05h1.43c.48,0,.87.38.87.86,0,.02,0,.04,0,.06l-.31,6.4c-.03.69-.53,1.26-1.21,1.39l-4.83.88c-1.19.21-1.97,1.35-1.76,2.53,0,0,0,.01,0,.02l.17.92c.19,1.01,1.15,1.68,2.16,1.5l4.92-.91c.29-.05.56.14.61.43,0,.03,0,.06,0,.09"/>
      <path class="cls-5" d="M127.19,263.08h-5.44c-.3,0-.54-.25-.54-.56,0-.08.02-.16.06-.24l1.15-2.18c.6-1.15.15-2.57-1-3.17-.12-.06-.25-.11-.37-.15l-1-.31c-1.5-.43-3.06.43-3.5,1.92-1.49,4.93-3.5,8.91-6.01,11.93-.5.59-.42,1.47.18,1.97.08.06.16.12.25.17l2.15,1.13c1.05.56,2.36.15,2.92-.9h0s2.17-4.13,2.17-4.13c.17-.32.51-.53.88-.53h8.21c.36,0,.65.29.65.65h0v5.94c0,.4-.33.73-.73.73h-9.67c-1.09,0-1.97.88-1.97,1.96h0v.63c0,1.15.93,2.08,2.08,2.08h9.42c.49,0,.9.4.9.9h0v6.36c0,.51-.41.93-.92.93h0l-14.49-.02c-1.2,0-2.17.97-2.17,2.17,0,.07,0,.14.01.21v.34c.02,1.27,1.05,2.31,2.33,2.31h35.99c1.34.01,2.43-1.07,2.43-2.42,0-.03,0-.06,0-.09v-.11c-.03-1.37-1.16-2.46-2.53-2.45l-14.27.12c-.34,0-.62-.26-.63-.6,0,0,0,0,0-.01v-7.09c0-.28.23-.5.5-.5h10.85c1.12,0,2.04-.91,2.04-2.04v-.83c0-1.08-.87-1.95-1.95-1.95h-11c-.28,0-.51-.24-.51-.53h0v-5.91c0-.38.31-.68.68-.68h12.31c1.16,0,2.1-.95,2.1-2.11h0v-.79c0-1.18-.95-2.14-2.13-2.14h-12.22c-.3,0-.55-.25-.55-.55v-4.45c0-1.49-1.21-2.7-2.7-2.7h-.4c-1.57,0-2.84,1.27-2.84,2.84v4.15c0,.4-.33.73-.74.73"/>
      <path class="cls-5" d="M191.1,269.73c-1.04,10.2-1.73,15.89-2.06,17.08-.56,1.98-2.02,2.72-4.38,2.2-.75-.17-1.5.31-1.67,1.06-.04.18-.04.38,0,.56l.27,1.44c.18.97.95,1.72,1.92,1.87,7.39,1.12,9.3-3.32,9.85-10.06.37-4.51.76-10.71,1.15-18.58.13-2.69-.5-3.32-3.08-3.37-6.56-.11-10.82-.04-12.78.21-.36.05-.68-.2-.73-.56-.01-.11,0-.23.05-.34l.96-2.35c.44-1.06-.05-2.28-1.12-2.72,0,0-.01,0-.02,0l-.66-.28c-1.21-.5-2.6.08-3.1,1.29-.04.1-.07.2-.1.3-1.09,4.1-3.01,8.22-5.76,12.38-.54.81-.33,1.91.48,2.45.1.07.2.12.31.17l.94.38c1.1.45,2.36.06,2.99-.94l3.03-4.72c.15-.23.39-.4.67-.45l.41-.08c.38-.07.75.19.81.57.02.13,0,.26-.04.39-1.92,4.74-4.48,8.86-7.69,12.34-.78.85-.74,2.17.11,2.95.09.08.19.16.29.23l.3.2c1.21.76,2.8.46,3.63-.69,3.98-5.57,6.62-10.58,7.92-15.03.13-.46.55-.77,1.03-.77h.35c.32,0,.57.25.58.57,0,.05,0,.09-.02.14-1.78,7.69-5.73,14.92-11.84,21.7-.73.81-.67,2.05.14,2.78.08.07.16.14.25.19l.29.19c1.36.87,3.16.58,4.19-.66,4.02-4.86,6.83-9.42,8.43-13.66,1.74-4.65,2.81-7.48,3.2-8.49.03-.13.16-.22.3-.18.13.03.22.16.18.3h0"/>
      <path class="cls-28" d="M120.2,15.5l.7,1.14,2.55,4.19c2.79,3.89,4.58,8.55,5.36,13.98.07,6.51-1.63,12.04-5.11,16.6-1.97,2.57-6.43,5.98-13.38,10.21-25.54,15.53-46.73,28.3-63.59,38.29-4.69,2.78-9.57,4.06-14.64,3.83l-9.52-2.6-5.48-3.63c-3.42-3.1-6.46-6.71-9.14-10.85-2.83-4.37-4.76-8.19-5.8-11.46-2.58-8.11-.12-17.24,5.47-23.58,1.55-1.77,4.89-4.19,10.02-7.27,14.5-8.72,32.67-19.7,54.53-32.93,9.21-5.57,15.17-8.72,17.88-9.46,7.14-1.91,14.29-.51,21.46,4.2,2.05,1.34,4.95,4.46,8.69,9.36ZM6.85,56.81c-7.13,12.1-1.79,21.75,5.58,31.89,8.94,12.31,22.11,15.87,35.53,7.14,4.16-2.71,11.9-7.37,23.21-13.98,14.38-8.75,28.77-17.5,43.15-26.24,3.72-2.25,6.5-5.07,8.35-8.46,3.68-7.12,3.57-14.49-.34-22.11-3.4-6.64-7.25-12.1-11.54-16.38-6.73-4.82-13.5-6.33-20.3-4.54-2.23.59-7.93,3.63-17.09,9.13-19.24,11.53-38.47,23.1-57.7,34.69-4.03,2.42-6.98,5.38-8.86,8.86Z"/>
      <path class="cls-26" d="M110.79,8.67c-.05.54-.13.95-.22,1.23-.19.49-.65.52-1.4.08-5.44-3.25-11.11-4.23-17.01-2.97-5.64,1.22-13.54,7.14-18.16,9.37-4.1,1.97-7.77,5.09-12.04,7.39-6.02,3.25-13.7,8.33-18.31,10.98-6.71,3.86-13.26,8.03-19.67,12.51-2.58,1.81-7.41,3.74-9.58,6.19-2.56,2.89-4.23,5.39-5.01,7.49-.64,1.72-1.6,5.43-2.86,11.12-.05.21-.25.35-.47.34l-.34-.03c-.13-.01-.22-.13-.21-.26l1.34-15.29c1.88-3.48,4.83-6.44,8.86-8.86,19.22-11.59,38.46-23.16,57.7-34.69,9.16-5.5,14.86-8.54,17.09-9.13,6.8-1.79,13.57-.28,20.3,4.54Z"/>
      <path class="cls-27" d="M110.79,8.67c4.29,4.28,8.14,9.74,11.54,16.38,3.9,7.62,4.01,15,.34,22.11.46-5.23,1.35-11.48.12-16.15-1.22-4.64-3.42-9.05-6.62-13.24-.12-.16-.34-.19-.5-.08-.07.05-.11.12-.13.2-.19.8-.15,1.43.15,1.9,2.07,3.33,3.53,6.2,4.36,8.61,2.93,8.38.96,17.07-6.31,22.27-2,1.43-3.46,2.46-4.38,3.08-3.75,2.52-12.16,7.7-25.26,15.53-13.26,7.93-24.6,14.8-34.02,20.62-6.57,4.06-11.12,6.32-13.65,6.77-5.21.93-10.1-.13-14.67-3.18-4.08-2.72-8.36-7.47-12.82-14.27-.08-.12-.25-.16-.38-.09h0c-.16.1-.22.3-.13.46,2.7,5.35,5.94,9.95,9.71,13.81,2.54,2.59,5.79,4.29,9.76,5.09,3.46.71,7.08.85,10.84.44.57-.06,1.12-.23,1.63-.51,3.68-2.02,6.33-3.44,7.97-4.24,1.51-.74,4.15-2.35,7.9-4.82,4.46-2.95,9.26-5.8,14.39-8.56.13-.07.29-.02.36.1.02.04.03.09.03.14-.02.25.03.53.15.82-11.31,6.61-19.05,11.27-23.21,13.98-13.42,8.73-26.59,5.17-35.53-7.14-7.37-10.14-12.71-19.8-5.58-31.89l-1.34,15.29c0,.13.09.25.21.26l.34.03c.22.02.42-.12.47-.34,1.27-5.69,2.22-9.4,2.86-11.12.78-2.1,2.45-4.59,5.01-7.49,2.17-2.45,6.99-4.38,9.58-6.19,6.41-4.48,12.97-8.65,19.67-12.51,4.61-2.65,12.29-7.73,18.31-10.98,4.27-2.29,7.95-5.42,12.04-7.39,4.62-2.23,12.52-8.15,18.16-9.37,5.9-1.27,11.57-.28,17.01,2.97.75.44,1.21.41,1.4-.08.1-.28.17-.69.22-1.23ZM63.49,57.91c1.87-.99,3.71-2.19,5.53-3.59,7.24-5.56,6.33-15.35-1.64-19.58-4.27-2.26-9.4.04-13.29,2.33-3.95,2.31-6.8,4.22-8.53,5.71-.75.66-.94,1.76-.44,2.62l14.45,25.02c.87,1.51,2.8,2.02,4.31,1.15l1.87-1.09c1.56-.9,2.1-2.9,1.2-4.45l-3.85-6.68c-.29-.5-.12-1.13.37-1.42,0,0,.02-.01.03-.02Z"/>
      <path class="cls-30" d="M242.54,274.97l-1.17-7.62c4.68-3.83,8.13-6.79,10.34-8.87,12.9-12.19,22.85-25.36,29.86-39.52,14.51-29.32,17.97-60.49,10.37-93.51-1.13-4.91-3.54-11.79-7.21-20.65l9.7,10.78s.11.05.16.01c.04-.03.05-.08.03-.13-4.83-15.24-11.84-29.44-21.03-42.59-8.87-12.73-19.61-23.56-32.21-32.49-12.62-8.94-26.24-15.88-40.88-20.81-5.51-1.86-13.09-3.69-22.74-5.48-5.92-1.1-12.33-1.69-19.25-1.78-8.12-.1-14.57.04-19.37.43-5.04.41-10.45,1.23-16.24,2.47-.39.08-1.06.56-2,1.43l-.7-1.14c.34-.18.61-.44.82-.79.17-.29.46-.49.79-.56,30.07-6.14,59.12-3.66,87.15,7.43,45.41,17.97,78.34,55.66,89.78,103.16,10.41,43.18.4,88.25-27.23,122.77-7.74,9.66-17.4,18.81-28.98,27.46Z"/>
      <path class="cls-24" d="M284.72,104.8c-6.61-15.78-15.76-29.87-27.46-42.27l-8.2-7.95c-16.06-14.71-34.72-25.11-55.97-31.19-23.1-6.6-46.31-7.46-69.63-2.57l-2.55-4.19c.95-.87,1.62-1.35,2-1.43,5.79-1.24,11.2-2.06,16.24-2.47,4.8-.39,11.25-.53,19.37-.43,6.92.09,13.33.68,19.25,1.78,9.65,1.8,17.23,3.63,22.74,5.48,14.64,4.94,28.26,11.88,40.88,20.81,12.6,8.93,23.34,19.76,32.21,32.49,9.18,13.15,16.19,27.35,21.03,42.59.02.06,0,.12-.06.14-.04.02-.1,0-.13-.03l-9.7-10.78Z"/>
      <path class="cls-25" d="M122.67,47.17c-1.85,3.39-4.63,6.21-8.35,8.46-14.38,8.74-28.77,17.49-43.15,26.24-.12-.29-.17-.56-.15-.82.01-.14-.09-.27-.24-.28-.05,0-.1,0-.15.03-5.13,2.76-9.93,5.61-14.39,8.56-3.75,2.48-6.39,4.08-7.9,4.82-1.63.81-4.29,2.22-7.97,4.24-.51.28-1.07.46-1.63.51-3.77.42-7.38.27-10.84-.44-3.97-.81-7.22-2.5-9.76-5.09-3.77-3.86-7.01-8.46-9.71-13.81-.08-.16-.02-.36.13-.45h0c.13-.08.3-.04.38.08,4.47,6.8,8.74,11.55,12.82,14.27,4.57,3.05,9.46,4.11,14.67,3.18,2.54-.46,7.09-2.71,13.65-6.77,9.42-5.82,20.76-12.69,34.02-20.62,13.09-7.83,21.51-13.01,25.26-15.53.92-.62,2.38-1.64,4.38-3.08,7.27-5.2,9.24-13.89,6.31-22.27-.84-2.41-2.29-5.28-4.36-8.61-.29-.47-.34-1.1-.15-1.9.04-.19.23-.3.42-.26.08.02.15.07.21.13,3.2,4.19,5.41,8.6,6.62,13.24,1.23,4.67.34,10.92-.12,16.15Z"/>
      <path class="cls-26" d="M249.06,54.59c.24,4.1-3.69,3.09-5.7,1.63-8.31-6-13.37-9.53-15.17-10.6-14.74-8.73-31.39-15.85-48.12-18.99-16.67-3.14-33.9-3.79-50.03-.69-.64.12-1.06.74-.94,1.38l1.37,7.48c.07.34-.15.68-.49.75-.22.04-.44-.02-.59-.18l-.56-.56c-.78-5.43-2.57-10.09-5.36-13.98,23.32-4.89,46.53-4.03,69.63,2.57,21.25,6.08,39.91,16.48,55.97,31.19Z"/>
      <path class="cls-29" d="M249.06,54.59l8.2,7.95c-3.02,4.77,2.32,9.87,4.82,13.2,1.65,2.19,3.01,4.18,4.07,5.96,7.03,11.78,11.8,21.28,14.3,28.51,8.76,25.33,10.81,56.38,2.29,83.1-2.16,6.77-5.21,14.18-9.14,22.25-5.43,11.11-13.45,20.63-21.35,30.09-1.06,1.27-3.47,3.68-7.24,7.23-2.57,2.42-4.92,4.89-7.06,7.43-4.46-6.27-10.28-10.52-17.45-12.75-3.74-1.16-9.38-1.73-16.94-1.7-35.76.14-71.51.14-107.26-.01-14.28-.06-27.35,7.65-32.19,21.27-10.24-7.98-19.28-17.1-27.1-27.35-4.63-6.59-8.81-13.45-12.52-20.58,2.75-3.04,3.48-6.19,2.22-9.46-9.85-25.45-12.45-50.34-7.79-74.65,1.81-9.42,4.74-19.22,8.8-29.4.12-.31.42-.52.75-.53,3.73-.1,4.94-.58,3.63-1.44,5.07.23,9.94-1.04,14.64-3.83,16.86-10,38.06-22.76,63.59-38.29,6.95-4.23,11.41-7.63,13.38-10.21,3.48-4.55,5.19-10.08,5.11-16.6l.56.56c.24.25.65.26.9.02.16-.15.23-.38.18-.59l-1.37-7.48c-.12-.64.3-1.25.94-1.38,16.14-3.1,33.36-2.45,50.03.69,16.73,3.14,33.38,10.26,48.12,18.99,1.81,1.07,6.86,4.6,15.17,10.6,2,1.45,5.93,2.46,5.7-1.63ZM133.34,86.04c.88-10.89-1.88-27.71-17.12-13.67-12,11.06-16.75,27.45-17.21,43.56-.01.56-.36,1.06-.88,1.26-12.46,4.92-20.7,13.68-24.73,26.27-.27.85-.63,1.66-1.09,2.43-1.23,2.07-2.16,3.67-2.78,4.8-4.91,9,.37,19.12,8.68,24.17,3.39,2.05,8.42,3.94,15.08,5.65.37.09.68.34.85.68.21.43.52,1.49.94,3.19,1.25,5.13,3.51,9.87,6.78,14.22.64.85.97,1.91.92,2.98-.1,2.16-.72,4.91-1.86,8.24-.91,2.66-6.02,9.89-3.63,14.53,2.29,4.41,8.58,4.35,12.7,2.65,5.82-2.41,8.63-6.94,11.56-12.71.27-.53.86-.8,1.43-.65l.94.25c.58.14.94.73.79,1.31,0,.04-.02.07-.03.11-.52,1.45-1.78,4.12-3.77,8.02-1.94,3.79-1.81,6.83.4,9.13,4.34,4.52,13.32,2.56,18.01-1.11,3.37-2.64,6.32-6.07,8.84-10.28.32-.54.91-.87,1.53-.85l12.92.22c.18,0,.33.14.33.33,0,.05-.01.1-.03.15-2.69,5.23-1.76,9.21,3.44,10.85,1.43.46,2.52.69,3.26.7,15.13.34,29.53-2.48,43.19-8.44,4.35-1.89,6.13-5.17,5.34-9.84-.1-.59-.05-1.19.16-1.75,1.05-2.91,3.23-6.01,4.34-9.04,1.53-4.15,2.64-8.39,3.32-12.73.06-.42.39-.75.81-.82,7.56-1.15,12.44-7.37,12.78-14.97.25-5.74-1.67-10.7-5.76-14.88-3.8-3.88-8.97-4.97-13.91-2.65-.4.19-.89.05-1.12-.34-8.22-13.71-20.28-21.94-36.17-24.69-13.08-2.27-25.19-.34-37.85,4.04-.32.11-.67-.05-.79-.36l-2.79-6.87c-.16-.4-.02-.86.32-1.11,14.79-10.63,25.31-24.83,26.9-43.42.66-7.62-.87-15.32-10.74-13.08-9.13,2.06-17.29,7.83-23.71,14.76-.13.14-.35.16-.49.03-.08-.07-.13-.19-.11-.3Z"/>
      <path class="cls-28" d="M63.49,57.91c-.5.27-.69.89-.42,1.4,0,.01.01.02.02.03l3.85,6.68c.9,1.56.36,3.55-1.2,4.45l-1.87,1.09c-1.51.87-3.44.35-4.31-1.15l-14.45-25.02c-.5-.86-.32-1.96.44-2.62,1.73-1.49,4.57-3.39,8.53-5.71,3.89-2.28,9.02-4.59,13.29-2.33,7.98,4.23,8.89,14.02,1.64,19.58-1.82,1.4-3.66,2.6-5.53,3.59ZM54.82,45.76l3.65,6.09c.41.69,1.29.91,1.98.51,0,0,0,0,0,0l2.22-1.33c2.88-1.73,4.16-4.9,2.85-7.08,0,0,0,0,0,0l-.39-.65c-1.31-2.18-4.7-2.55-7.59-.83l-2.22,1.32c-.69.41-.91,1.29-.51,1.98,0,0,0,0,0,0Z"/>
      <path class="cls-29" d="M54.82,45.76c-.41-.68-.18-1.57.5-1.98,0,0,0,0,0,0l2.22-1.32c2.88-1.72,6.28-1.35,7.59.83l.39.65c1.31,2.18.03,5.36-2.85,7.08,0,0,0,0,0,0l-2.22,1.33c-.68.41-1.57.18-1.98-.5,0,0,0,0,0,0l-3.65-6.09Z"/>
      <path class="cls-25" d="M284.72,104.8c3.67,8.86,6.07,15.74,7.21,20.65,7.59,33.02,4.14,64.19-10.37,93.51-7.01,14.16-16.96,27.33-29.86,39.52-2.21,2.09-5.65,5.05-10.34,8.87l-3.4-7.04c2.14-2.54,4.49-5.01,7.06-7.43,3.77-3.55,6.18-5.96,7.24-7.23,7.9-9.46,15.92-18.98,21.35-30.09,3.93-8.06,6.98-15.48,9.14-22.25,8.52-26.72,6.47-57.76-2.29-83.1-2.5-7.23-7.27-16.73-14.3-28.51-1.07-1.78-2.42-3.77-4.07-5.96-2.51-3.33-7.84-8.44-4.82-13.2,11.7,12.4,20.85,26.49,27.46,42.27Z"/>
      <path class="cls-28" d="M133.34,86.04c-.02.19.12.36.31.38.11.01.22-.03.3-.11,6.42-6.93,14.58-12.7,23.71-14.76,9.87-2.24,11.4,5.46,10.74,13.08-1.59,18.59-12.11,32.79-26.9,43.42-.35.25-.48.71-.32,1.11l2.79,6.87c.13.31.48.47.79.36,12.66-4.38,24.76-6.31,37.85-4.04,15.89,2.75,27.95,10.97,36.17,24.69.23.38.72.53,1.12.34,4.93-2.32,10.1-1.23,13.91,2.65,4.1,4.19,6.02,9.15,5.76,14.88-.34,7.6-5.21,13.82-12.78,14.97-.42.06-.75.4-.81.82-.69,4.34-1.79,8.59-3.32,12.73-1.11,3.03-3.29,6.13-4.34,9.04-.21.56-.26,1.16-.16,1.75.79,4.66-.99,7.94-5.34,9.84-13.67,5.96-28.07,8.77-43.19,8.44-.74-.01-1.82-.25-3.26-.7-5.19-1.64-6.12-5.63-3.44-10.85.08-.17.02-.37-.14-.45-.05-.02-.1-.03-.15-.03l-12.92-.22c-.63-.01-1.21.31-1.53.85-2.52,4.22-5.47,7.64-8.84,10.28-4.69,3.67-13.66,5.63-18.01,1.11-2.21-2.3-2.34-5.34-.4-9.13,1.99-3.9,3.25-6.58,3.77-8.02.2-.56-.09-1.19-.65-1.39-.04-.01-.07-.02-.11-.03l-.94-.25c-.57-.15-1.17.12-1.43.65-2.93,5.77-5.74,10.31-11.56,12.71-4.12,1.7-10.41,1.76-12.7-2.65-2.39-4.63,2.72-11.86,3.63-14.53,1.14-3.33,1.76-6.07,1.86-8.24.05-1.07-.27-2.12-.92-2.98-3.27-4.36-5.53-9.1-6.78-14.22-.42-1.7-.73-2.76-.94-3.19-.17-.34-.48-.59-.85-.68-6.66-1.72-11.69-3.6-15.08-5.65-8.31-5.05-13.6-15.17-8.68-24.17.62-1.13,1.54-2.73,2.78-4.8.45-.77.82-1.58,1.09-2.43,4.03-12.59,12.27-21.35,24.73-26.27.52-.2.87-.7.88-1.26.46-16.11,5.21-32.51,17.21-43.56,15.24-14.03,18.01,2.79,17.12,13.67ZM118.36,115.24c1.98-8.36,5.47-15.85,10.45-22.48.45-.59.73-1.3.82-2.04.67-5.9.97-13.61-1.9-18.74-.51-.91-1.56-1.35-2.55-1.07-4.88,1.33-9.75,7.28-13.05,12.1-6.46,9.41-8.75,21.1-9.47,32.57-.02.31.22.59.53.61.04,0,.08,0,.12,0,5.09-.66,9.53-1.41,14.19-.39.38.08.77-.16.86-.55ZM150.96,216.71l15.14-.08c.16,0,.33-.02.48-.07l9.24-2.67c.23-.07.37-.31.3-.54-.02-.07-.06-.14-.11-.19-1-.97-2.47-2.28-3.28-3.52-8.34-12.88-5.32-28.36,7.09-37.41.47-.35,1.09-.42,1.63-.19l.39.16c.39.17.58.62.41,1.01-.04.1-.11.19-.18.26-1.76,1.62-3.83,2.92-5.49,4.98-9.8,12.15-7.02,31.86,9.31,36.78.65.18,1.03.85.85,1.5-.15.53-.63.9-1.18.89-1.84.02-4.45-.85-6.7-.75-5.77.26-12.62,2.72-13.6,8.97-.08.56.15,1.11.6,1.44,1.28.9,2.55,1.36,3.82,1.38,14.17.18,27.7-2.37,40.6-7.65,1.98-.81,3.31-1.81,3.98-3,.25-.43.33-.93.23-1.41-.48-2.55-.51-4.29-.09-5.2,2.29-4.96,4.78-9.02,6.15-14.03,3.36-12.25,2.39-23.77-2.91-34.56-10.21-20.77-32.12-30.21-55.03-26.97-5.77.81-11.63,2.26-17.56,4.33-.35.13-.58.47-.56.84l.31,5.67c.03.64-.46,1.19-1.09,1.22h0s-.3.02-.3.02c-.7-.02-1.27-.56-1.32-1.25-.43-5.41-1.86-10.57-4.29-15.5-.2-.4-.69-.57-1.09-.37-.02,0-.03.02-.05.03l-1.04.6c-.52.29-1.18.11-1.48-.4-.16-.27-.18-.6-.08-.9.6-1.69,5.29-5.01,9.74-8.63,12.23-9.94,20.72-24.27,21-39.96.04-2.01-.34-3.73-1.12-5.17-.58-1.05-1.71-1.69-2.91-1.63-2.59.11-5,.73-7.23,1.85-14.35,7.15-24.45,18.26-30.3,33.3-1.32,3.4-2.62,7.37-3.89,11.91-.19.67-.89,1.05-1.55.86-.44-.13-.78-.49-.88-.94-.12-.53-.05-1.26.21-2.19.09-.35-.12-.71-.47-.81-.04,0-.08-.02-.11-.02-16-1.31-32.09,6.43-37.82,21.92-1.46,3.97-2.63,6.63-3.5,7.99-2.1,3.28-3.23,5.39-3.39,6.36-1,5.85,1.05,11.18,5.54,14.88.14.11.33.09.44-.04.05-.06.08-.15.06-.23l-.76-7.81c-.03-.31-.17-.59-.4-.79l-1.99-1.82c-.49-.44-.75-1.1-.68-1.77l.09-.98c.02-.28.27-.49.55-.47.16.01.3.1.39.23,2.18,3.07,4.88,3.36,8.09.87.43-.33,1.04-.25,1.37.17.05.06.09.13.12.21l.16.48c.16.5-.05,1.05-.5,1.32l-4.03,2.33c-.34.19-.55.56-.53.95l.44,7.93c.03.51.29.97.72,1.25,6.71,4.45,16.23,6.39,28.56,5.84.47-.02.87.34.89.81,0,.16-.03.32-.11.46l-.2.3c-.43.69-1.18,1.12-1.99,1.16l-9.65.54c-.23.01-.42.21-.4.45,0,.03,0,.05.01.08,3.82,15.41,13.01,23.94,27.26,29.79.29.12.62-.02.74-.31.02-.05.04-.11.04-.17l.58-6.75c.06-.62.54-1.12,1.15-1.21h.04c.61-.06,1.15.37,1.22.98,0,.02,0,.04,0,.05.51,9-1.61,14.87-5.34,22.88-.61,1.33-.27,2.88.83,3.76.69.54,1.64.83,2.85.86,14.41.34,21.51-18.22,24.73-29.05.15-.5.68-.79,1.18-.64.08.02.16.06.23.1l.03.03c.6.36.92,1.06.79,1.76-.85,4.97-2.14,9.15-3.87,12.56-.13.25-.03.56.22.69.07.04.15.06.24.06ZM226.49,186.35c15.85-4.85,9.43-30.52-5.08-25.79-.34.11-.53.48-.42.82,0,.02.02.04.03.07,3.47,7.59,5.04,15.69,4.7,24.32-.02.33.24.6.56.62.07,0,.14,0,.21-.03ZM105.85,204.04c-.49,4.74-2.1,9.51-4.81,14.29-.39.69-.62,1.74-.7,3.14-.16,2.69,2.95,3.19,5.01,2.93,7.09-.9,10.09-6.13,13.14-12.01.18-.35.04-.78-.31-.96,0,0-.01,0-.02-.01-3.99-1.91-7.72-4.51-11.19-7.8-.27-.25-.68-.24-.93.03-.1.11-.16.24-.17.38Z"/>
      <path class="cls-24" d="M117.5,115.78c-4.66-1.02-9.1-.27-14.19.39-.31.04-.6-.17-.64-.49,0-.04,0-.08,0-.12.72-11.47,3.01-23.16,9.47-32.57,3.3-4.81,8.17-10.77,13.05-12.1.99-.28,2.05.17,2.55,1.07,2.88,5.14,2.57,12.85,1.9,18.74-.09.74-.37,1.44-.82,2.04-4.98,6.63-8.47,14.13-10.45,22.48-.1.39-.48.63-.86.55Z"/>
      <path class="cls-29" d="M150.5,215.96c1.73-3.4,3.02-7.59,3.87-12.56.12-.7-.19-1.39-.79-1.76l-.03-.03c-.45-.28-1.03-.14-1.31.31-.04.07-.08.15-.1.23-3.22,10.83-10.32,29.39-24.73,29.05-1.22-.03-2.17-.32-2.85-.86-1.1-.88-1.44-2.43-.83-3.76,3.73-8.01,5.85-13.89,5.34-22.88-.03-.6-.56-1.07-1.17-1.03-.02,0-.04,0-.05,0h-.04c-.62.09-1.09.59-1.15,1.21l-.58,6.75c-.03.31-.3.55-.62.52-.06,0-.11-.02-.17-.04-14.25-5.85-23.44-14.38-27.26-29.79-.06-.23.08-.46.31-.51.03,0,.05-.01.08-.01l9.65-.54c.81-.04,1.56-.48,1.99-1.16l.2-.3c.23-.41.08-.93-.33-1.16-.14-.08-.3-.11-.46-.11-12.33.55-21.85-1.4-28.56-5.84-.42-.28-.69-.75-.72-1.25l-.44-7.93c-.02-.39.18-.76.53-.95l4.03-2.33c.46-.27.67-.82.5-1.32l-.16-.48c-.22-.49-.79-.72-1.28-.5-.07.03-.14.07-.21.12-3.22,2.48-5.91,2.19-8.09-.87-.16-.24-.48-.3-.71-.14-.13.09-.21.23-.23.39l-.09.98c-.06.67.19,1.32.68,1.77l1.99,1.82c.23.2.37.49.4.79l.76,7.81c.02.17-.1.32-.27.34-.08,0-.17-.01-.24-.07-4.49-3.7-6.54-9.03-5.54-14.88.16-.96,1.29-3.08,3.39-6.36.87-1.36,2.04-4.02,3.5-7.99,5.73-15.49,21.82-23.23,37.82-21.92.36.03.63.35.6.71,0,.04,0,.08-.02.11-.26.93-.33,1.66-.21,2.19.15.68.82,1.1,1.49.96.45-.1.81-.44.94-.88,1.28-4.54,2.57-8.5,3.89-11.91,5.86-15.05,15.96-26.15,30.3-33.3,2.23-1.12,4.64-1.73,7.23-1.85,1.2-.05,2.33.58,2.91,1.63.78,1.44,1.16,3.16,1.12,5.17-.28,15.69-8.77,30.02-21,39.96-4.44,3.61-9.13,6.94-9.74,8.63-.2.56.09,1.17.65,1.38.3.11.63.08.91-.08l1.04-.6c.39-.23.89-.09,1.12.3,0,.02.02.03.03.05,2.42,4.92,3.85,10.09,4.29,15.5.05.69.62,1.23,1.32,1.25l.3-.02c.64-.03,1.13-.57,1.1-1.22,0,0,0,0,0,0l-.31-5.67c-.02-.37.21-.71.56-.84,5.93-2.07,11.78-3.52,17.56-4.33,22.92-3.25,44.83,6.2,55.03,26.97,5.3,10.79,6.27,22.31,2.91,34.56-1.38,5.01-3.86,9.08-6.15,14.03-.43.92-.4,2.65.09,5.2.09.48.01.98-.23,1.41-.67,1.19-2,2.19-3.98,3-12.9,5.28-26.43,7.83-40.6,7.65-1.27-.01-2.54-.47-3.82-1.38-.45-.33-.69-.89-.6-1.44.97-6.26,7.82-8.72,13.6-8.97,2.25-.1,4.87.77,6.7.75.67,0,1.22-.54,1.23-1.21,0-.55-.36-1.04-.89-1.18-16.33-4.92-19.11-24.63-9.31-36.78,1.67-2.06,3.74-3.36,5.49-4.98.31-.29.33-.78.04-1.09-.07-.08-.16-.14-.26-.18l-.39-.16c-.54-.23-1.16-.16-1.63.19-12.41,9.05-15.43,24.53-7.09,37.41.81,1.24,2.28,2.55,3.28,3.52.17.17.17.45,0,.62-.05.05-.12.09-.19.11l-9.24,2.67c-.16.04-.32.07-.48.07l-15.14.08c-.28,0-.52-.23-.52-.51,0-.08.02-.16.06-.24ZM156.33,81.07c-1.21.04-2.55.51-4.02,1.39-14.67,8.76-22.69,25.79-23.59,42.76-.02.52.38.96.9.98.06,0,.12,0,.18,0h.07c.65-.11,1.15-.63,1.23-1.28,2.31-18.37,8.99-33.18,25.64-42.44.36-.21.48-.67.28-1.02-.14-.24-.4-.39-.68-.37ZM108.31,140.5c-3.21-.45-6.23,2.23-6.75,5.98h0c-.52,3.75,1.66,7.14,4.87,7.59,3.21.45,6.23-2.23,6.75-5.98h0c.52-3.75-1.66-7.14-4.87-7.59Z"/>
      <path class="cls-28" d="M156.33,81.07c.41-.02.76.31.78.72.01.28-.13.54-.37.68-16.65,9.27-23.33,24.07-25.64,42.44-.08.65-.58,1.16-1.23,1.26h-.07c-.51.09-.99-.27-1.07-.78,0-.06-.01-.12,0-.18.9-16.96,8.92-34,23.59-42.76,1.47-.88,2.81-1.34,4.02-1.39Z"/>
      <path class="cls-24" d="M17.09,97.5l5.48,3.63c-4.84,11.53-7.59,19.19-8.26,22.96-.7,3.95-1.4,7.9-2.1,11.86-5.15,29.25-1.05,57,12.29,83.24,3.72,7.12,7.89,13.98,12.52,20.58,1.31,3.72,2.05,7.42,2.23,11.11.02.14-.08.26-.22.27-.09.01-.18-.03-.23-.11-5.89-7.48-10.37-13.66-13.42-18.53-7.79-12.44-13.45-25.38-16.98-38.82-.77-2.94-1.26-6.08-2.16-9.01-.02-.1-.13-.16-.23-.13-.07.02-.13.08-.15.16l-.45,2.25c-3.45-15.47-3.88-31.62-1.29-48.43,2.34-15.23,6.65-28.9,12.96-41.03Z"/>
      <path class="cls-26" d="M22.57,101.13l9.52,2.6c1.31.87.1,1.35-3.63,1.44-.33,0-.63.21-.75.53-4.05,10.18-6.98,19.97-8.8,29.4-4.66,24.31-2.07,49.2,7.79,74.65,1.27,3.27.53,6.42-2.22,9.46-13.34-26.25-17.43-53.99-12.29-83.24.7-3.96,1.4-7.92,2.1-11.86.66-3.77,3.42-11.43,8.26-22.96Z"/>
      <ellipse class="cls-28" cx="107.37" cy="147.29" rx="6.85" ry="5.86" transform="translate(-53.28 233.39) rotate(-82.1)"/>
      <path class="cls-27" d="M225.72,185.76c.34-8.62-1.23-16.73-4.7-24.32-.15-.33,0-.71.33-.86.02,0,.04-.02.07-.03,14.51-4.72,20.93,20.95,5.08,25.79-.31.1-.65-.07-.74-.39-.02-.07-.03-.14-.03-.21Z"/>
      <path class="cls-23" d="M37.02,239.77c7.83,10.25,16.86,19.37,27.1,27.35l-1.28,6.86c-3.45-1.95-7.32-4.9-11.63-8.85-23.65-21.69-38.92-47.75-45.8-78.16l.45-2.25c.02-.11.13-.18.23-.16.07.01.13.07.15.14.9,2.93,1.39,6.07,2.16,9.01,3.53,13.44,9.19,26.38,16.98,38.82,3.05,4.87,7.52,11.05,13.42,18.53.08.11.23.14.34.06.08-.05.12-.14.11-.23-.18-3.69-.92-7.4-2.23-11.11Z"/>
      <path class="cls-24" d="M106.96,203.63c3.47,3.29,7.2,5.89,11.19,7.8.36.17.51.59.35.95,0,0,0,.01-.01.02-3.04,5.87-6.04,11.11-13.14,12.01-2.06.26-5.17-.25-5.01-2.93.08-1.4.32-2.45.7-3.14,2.72-4.78,4.32-9.55,4.81-14.29.04-.36.36-.63.72-.59.14.01.28.08.38.17Z"/>
      <path class="cls-28" d="M237.96,260.31l3.4,7.04,1.17,7.62c-.88,14.32-9.67,25.38-23.5,28.9-2.15.54-5.84.8-11.07.77-8.94-.05-47.75-.07-116.41-.07-4.87.01-10.62-2.09-14.8-4.89-8.8-5.89-13.44-14.45-13.91-25.7l1.28-6.86c4.85-13.62,17.92-21.33,32.19-21.27,35.75.15,71.5.15,107.26.01,7.56-.03,13.2.54,16.94,1.7,7.17,2.23,12.98,6.48,17.45,12.75ZM68.94,286.1c5.69,10.68,14.35,16,25.97,15.98,38.51-.07,77.02-.09,115.54-.06,2.33,0,4.15-.36,5.46-1.07,2.28.37,5.02-.44,8.22-2.42,10.51-5.68,15.43-14.12,14.76-25.33-.34-5.76-2.77-10.82-7.27-15.19-3.76-3.54-7.94-6.07-12.54-7.59-3.26-1.07-8.12-1.61-14.59-1.6-64.52.07-100.3.09-107.34.04-19.58-.13-37.4,17.02-28.21,37.23Z"/>
      <path class="cls-26" d="M231.63,258.01c-3.25-.59-6.38-1.6-9.38-3.02-2.41-1.15-4.25-1.85-5.52-2.1-2.16-.43-4.14-.66-5.92-.69-15.34-.23-27.48-.33-36.44-.3-3.61.01-7.8.66-11.67.55-17.8-.52-37.55-.54-59.26-.07-8.47.18-13.72.59-15.77,1.22-9.14,2.84-15.67,12.32-17.12,21.74-.15.92-1.12,2.54-1.56,3.25-.15.23-.22.49-.21.76l.16,6.76c-9.19-20.21,8.63-37.36,28.21-37.23,7.04.04,42.82.03,107.34-.04,6.47,0,11.33.53,14.59,1.6,4.6,1.52,8.78,4.05,12.54,7.59Z"/>
      <path class="cls-27" d="M231.63,258.01c4.51,4.36,6.93,9.43,7.27,15.19.67,11.21-4.25,19.66-14.76,25.33-.15-.1-.24-.21-.28-.31-.16-.37-.07-.67.27-.88,9.39-5.84,14.51-15.01,12.58-26.35-.48-2.84-1.59-5.38-3.3-7.61-.24-.32-.69-.39-1.02-.16-.27.19-.37.54-.25.85,4.15,11.1,2.51,22.34-7.77,28.84-3.55,2.25-6.28,3.64-8.18,4.17-4.6,1.3-9.79,1.91-15.55,1.82-34.09-.47-68.19-.46-102.3.02-9.84.13-17.23-4.33-24.62-10.31-.23-.18-.57-.14-.75.09-.14.17-.15.41-.04.6,4.86,7.93,13.25,11.02,22.1,11.07,12.85.07,22.93.13,30.26.17,7.97.04,13.71-.4,20.44-.3,4.51.07,9.62.08,15.31.01,18.2-.22,36.49,0,54.88.69-1.31.72-3.13,1.07-5.46,1.07-38.52-.03-77.03-.01-115.54.06-11.62.02-20.28-5.3-25.97-15.98l-.16-6.76c0-.27.07-.54.21-.76.44-.7,1.41-2.33,1.56-3.25,1.45-9.42,7.98-18.9,17.12-21.74,2.04-.63,7.3-1.04,15.77-1.22,21.71-.48,41.46-.46,59.26.07,3.87.11,8.06-.54,11.67-.55,8.95-.03,21.1.07,36.44.3,1.78.03,3.76.26,5.92.69,1.27.25,3.11.95,5.52,2.1,3,1.42,6.12,2.43,9.38,3.02ZM162.18,282.42v10.24c0,1.09.89,1.97,1.98,1.97h1.15c1.16,0,2.09-.94,2.09-2.09h0v-11.15c0-.59.4-1.11.97-1.25,2.3-.56,3.39-1.82,3.29-3.79-.13-2.44-2.48-1.92-3.84-.9-.07.06-.18.04-.24-.03-.02-.03-.03-.06-.03-.1v-5.89c0-.4.29-.74.69-.81.25-.04.59-.05,1.04-.02,1.14.07,1.73-.94,1.77-3.01.01-.85-.61-1.59-1.45-1.73l-1.73-.29c-.44-.08-.76-.47-.73-.91l.24-4.85c.06-1.18-.78-2.21-1.94-2.41l-.92-.16c-.97-.16-1.89.49-2.05,1.46-.01.07-.02.14-.02.21l-.29,6c-.02.33-.29.59-.62.59h-.31c-.46,0-.83-.37-.83-.82,0-.02,0-.03,0-.05l.17-3.32c.02-.44-.25-.83-.66-.97-.84-.28-1.78-.33-2.82-.17-.35.05-.62.33-.68.68l-2.07,12.4c-.14.83.42,1.62,1.25,1.76.06.01.12.02.18.02l.83.04c.93.05,1.75-.61,1.9-1.53l.38-2.25c.1-.61.62-1.05,1.23-1.05h1.43c.48,0,.87.38.87.86,0,.02,0,.04,0,.06l-.31,6.4c-.03.69-.53,1.26-1.21,1.39l-4.83.88c-1.19.21-1.97,1.35-1.76,2.53,0,0,0,.01,0,.02l.17.92c.19,1.01,1.15,1.68,2.16,1.5l4.92-.91c.29-.05.56.14.61.43,0,.03,0,.06,0,.09ZM127.19,263.08h-5.44c-.3,0-.54-.25-.54-.56,0-.08.02-.16.06-.24l1.15-2.18c.6-1.15.15-2.57-1-3.17-.12-.06-.25-.11-.37-.15l-1-.31c-1.5-.43-3.06.43-3.5,1.92-1.49,4.93-3.5,8.91-6.01,11.93-.5.59-.42,1.47.18,1.97.08.06.16.12.25.17l2.15,1.13c1.05.56,2.36.15,2.92-.9h0s2.17-4.13,2.17-4.13c.17-.32.51-.53.88-.53h8.21c.36,0,.65.29.65.65h0v5.94c0,.4-.33.73-.73.73h-9.67c-1.09,0-1.97.88-1.97,1.96h0v.63c0,1.15.93,2.08,2.08,2.08h9.42c.49,0,.9.4.9.9h0v6.36c0,.51-.41.93-.92.93h0l-14.49-.02c-1.2,0-2.17.97-2.17,2.17,0,.07,0,.14.01.21v.34c.02,1.27,1.05,2.31,2.33,2.31h35.99c1.34.01,2.43-1.07,2.43-2.42,0-.03,0-.06,0-.09v-.11c-.03-1.37-1.16-2.46-2.53-2.45l-14.27.12c-.34,0-.62-.26-.63-.6,0,0,0,0,0-.01v-7.09c0-.28.23-.5.5-.5h10.85c1.12,0,2.04-.91,2.04-2.04v-.83c0-1.08-.87-1.95-1.95-1.95h-11c-.28,0-.51-.24-.51-.53h0v-5.91c0-.38.31-.68.68-.68h12.31c1.16,0,2.1-.95,2.1-2.11h0v-.79c0-1.18-.95-2.14-2.13-2.14h-12.22c-.3,0-.55-.25-.55-.55v-4.45c0-1.49-1.21-2.7-2.7-2.7h-.4c-1.57,0-2.84,1.27-2.84,2.84v4.15c0,.4-.33.73-.74.73ZM191.1,269.73c-1.04,10.2-1.73,15.89-2.06,17.08-.56,1.98-2.02,2.72-4.38,2.2-.75-.17-1.5.31-1.67,1.06-.04.18-.04.38,0,.56l.27,1.44c.18.97.95,1.72,1.92,1.87,7.39,1.12,9.3-3.32,9.85-10.06.37-4.51.76-10.71,1.15-18.58.13-2.69-.5-3.32-3.08-3.37-6.56-.11-10.82-.04-12.78.21-.36.05-.68-.2-.73-.56-.01-.11,0-.23.05-.34l.96-2.35c.44-1.06-.05-2.28-1.12-2.72,0,0-.01,0-.02,0l-.66-.28c-1.21-.5-2.6.08-3.1,1.29-.04.1-.07.2-.1.3-1.09,4.1-3.01,8.22-5.76,12.38-.54.81-.33,1.91.48,2.45.1.07.2.12.31.17l.94.38c1.1.45,2.36.06,2.99-.94l3.03-4.72c.15-.23.39-.4.67-.45l.41-.08c.38-.07.75.19.81.57.02.13,0,.26-.04.39-1.92,4.74-4.48,8.86-7.69,12.34-.78.85-.74,2.17.11,2.95.09.08.19.16.29.23l.3.2c1.21.76,2.8.46,3.63-.69,3.98-5.57,6.62-10.58,7.92-15.03.13-.46.55-.77,1.03-.77h.35c.32,0,.57.25.58.57,0,.05,0,.09-.02.14-1.78,7.69-5.73,14.92-11.84,21.7-.73.81-.67,2.05.14,2.78.08.07.16.14.25.19l.29.19c1.36.87,3.16.58,4.19-.66,4.02-4.86,6.83-9.42,8.43-13.66,1.74-4.65,2.81-7.48,3.2-8.49.03-.13.16-.22.3-.18.13.03.22.16.18.3h0Z"/>
      <path class="cls-28" d="M161.56,281.9l-4.92.91c-1.01.18-1.97-.49-2.16-1.5l-.17-.92c-.22-1.18.56-2.33,1.74-2.55,0,0,.01,0,.02,0l4.83-.88c.67-.12,1.17-.7,1.21-1.39l.31-6.4c.03-.47-.33-.88-.82-.92-.02,0-.04,0-.06,0h-1.43c-.61,0-1.13.44-1.23,1.05l-.38,2.25c-.15.92-.97,1.58-1.9,1.53l-.83-.04c-.85-.04-1.5-.76-1.45-1.6,0-.06,0-.12.02-.18l2.07-12.4c.06-.35.34-.63.68-.68,1.04-.16,1.98-.11,2.82.17.41.14.68.54.66.97l-.17,3.32c-.02.45.33.84.78.86.02,0,.03,0,.05,0h.31c.33,0,.6-.26.62-.59l.29-6c.05-.98.88-1.74,1.86-1.69.07,0,.14.01.21.02l.92.16c1.16.19,1.99,1.23,1.94,2.41l-.24,4.85c-.03.44.29.83.73.91l1.73.29c.85.14,1.47.88,1.45,1.73-.04,2.07-.63,3.08-1.77,3.01-.45-.03-.79-.02-1.04.02-.4.07-.69.41-.69.81v5.89c0,.09.08.17.17.17.04,0,.07-.01.1-.03,1.35-1.03,3.7-1.54,3.84.9.1,1.97-.99,3.23-3.29,3.79-.57.14-.97.66-.97,1.25v11.15c0,1.16-.94,2.09-2.09,2.09h-1.15c-1.09,0-1.98-.88-1.98-1.97h0v-10.24c0-.29-.24-.52-.53-.52-.03,0-.06,0-.09,0Z"/>
      <path class="cls-28" d="M127.93,262.36v-4.15c0-1.57,1.27-2.84,2.84-2.84h.4c1.49,0,2.7,1.21,2.7,2.7v4.45c0,.3.25.55.55.55h12.22c1.17,0,2.13.96,2.13,2.14h0v.79c0,1.17-.94,2.11-2.1,2.11h-12.31c-.38,0-.68.31-.68.68v5.91c0,.29.23.53.51.53h11c1.08,0,1.95.87,1.95,1.95h0v.83c0,1.12-.91,2.04-2.04,2.04h-10.85c-.28,0-.5.23-.5.5v7.09c0,.34.28.62.62.62,0,0,0,0,.01,0l14.27-.12c1.37-.01,2.5,1.08,2.53,2.45v.11c.05,1.34-1,2.47-2.34,2.52-.03,0-.06,0-.09,0h-35.99c-1.27-.01-2.31-1.04-2.32-2.32v-.34c-.13-1.19.74-2.26,1.94-2.37.07,0,.14-.01.21-.01l14.49.02c.51,0,.92-.42.92-.93h0v-6.36c0-.49-.4-.9-.9-.9h-9.42c-1.15,0-2.08-.93-2.08-2.08h0v-.63c0-1.08.88-1.96,1.97-1.96h9.67c.4,0,.73-.33.73-.73h0v-5.94c0-.36-.29-.65-.65-.65h-8.21c-.37,0-.71.2-.88.53l-2.17,4.13c-.55,1.06-1.86,1.46-2.92.91h0s-2.15-1.13-2.15-1.13c-.68-.36-.95-1.2-.59-1.89.05-.09.1-.17.17-.25,2.51-3.02,4.52-7,6.01-11.93.44-1.49,2-2.35,3.5-1.92l1,.31c1.24.39,1.92,1.71,1.53,2.95-.04.13-.09.25-.15.37l-1.15,2.18c-.14.27-.03.6.24.74.07.04.15.06.24.06h5.44c.41,0,.74-.33.74-.73Z"/>
      <path class="cls-28" d="M190.61,269.62c-.4,1.01-1.46,3.85-3.2,8.49-1.6,4.24-4.41,8.8-8.43,13.66-1.03,1.24-2.82,1.53-4.19.66l-.29-.19c-.91-.59-1.18-1.81-.59-2.72.06-.09.12-.17.19-.25,6.11-6.77,10.06-14.01,11.84-21.7.07-.31-.11-.61-.42-.69-.05-.01-.09-.02-.14-.02h-.35c-.48,0-.9.31-1.03.77-1.3,4.45-3.94,9.46-7.92,15.03-.83,1.15-2.42,1.46-3.63.69l-.3-.2c-.97-.62-1.25-1.91-.63-2.88.07-.11.14-.2.23-.3,3.21-3.48,5.77-7.6,7.69-12.34.15-.36-.02-.77-.38-.92-.12-.05-.26-.07-.39-.04l-.41.08c-.28.05-.52.21-.67.45l-3.03,4.72c-.63,1-1.89,1.39-2.99.94l-.94-.38c-.9-.37-1.33-1.41-.96-2.31.04-.11.1-.21.17-.31,2.75-4.16,4.67-8.28,5.76-12.38.33-1.27,1.63-2.02,2.9-1.69.1.03.2.06.3.1l.66.28c1.06.44,1.57,1.65,1.14,2.72,0,0,0,.01,0,.02l-.96,2.35c-.14.33.02.71.35.85.11.04.22.06.34.05,1.95-.25,6.21-.32,12.78-.21,2.57.04,3.21.68,3.08,3.37-.4,7.87-.78,14.06-1.15,18.58-.55,6.74-2.46,11.18-9.85,10.06-.97-.15-1.75-.9-1.92-1.87l-.27-1.44c-.14-.76.36-1.49,1.12-1.63.19-.03.38-.03.56,0,2.36.51,3.82-.22,4.38-2.2.33-1.19,1.01-6.88,2.06-17.08.03-.13-.05-.27-.18-.3-.13-.03-.27.05-.3.18h0Z"/>
      <path class="cls-25" d="M224.14,298.53c-3.2,1.98-5.94,2.78-8.22,2.42-18.39-.69-36.68-.92-54.88-.69-5.69.07-10.79.06-15.31-.01-6.74-.1-12.48.35-20.44.3-7.33-.04-17.41-.09-30.26-.17-8.85-.04-17.24-3.13-22.1-11.07-.15-.26-.06-.59.19-.73.19-.11.43-.09.6.04,7.39,5.98,14.78,10.44,24.62,10.31,34.11-.48,68.21-.49,102.3-.02,5.77.08,10.95-.53,15.55-1.82,1.9-.54,4.63-1.93,8.18-4.17,10.27-6.5,11.92-17.74,7.77-28.84-.15-.37.04-.8.41-.94.31-.12.66-.02.85.25,1.72,2.23,2.82,4.77,3.3,7.61,1.94,11.35-3.19,20.51-12.58,26.35-.34.22-.43.51-.27.88.04.1.13.21.28.31Z"/>
    </g>
  </g>
</svg>