<?xml version="1.0" encoding="UTF-8"?>
<svg id="_图层_2" data-name="图层 2" xmlns="http://www.w3.org/2000/svg" viewBox="0 0 302.21 302.21">
  <defs>
    <style>
      .cls-1 {
        stroke: #e5c9b3;
      }

      .cls-1, .cls-2, .cls-3, .cls-4, .cls-5, .cls-6, .cls-7, .cls-8, .cls-9, .cls-10, .cls-11, .cls-12, .cls-13, .cls-14, .cls-15, .cls-16, .cls-17, .cls-18, .cls-19, .cls-20, .cls-21, .cls-22, .cls-23, .cls-24, .cls-25, .cls-26 {
        fill: none;
        stroke-linejoin: round;
        stroke-width: 2.24px;
      }

      .cls-27 {
        fill: #d2a883;
      }

      .cls-28 {
        fill: #e3c5a4;
      }

      .cls-2 {
        stroke: #ce9d75;
      }

      .cls-29 {
        fill: #afa497;
      }

      .cls-30 {
        fill: #e9ca98;
      }

      .cls-31 {
        fill: #f6eee0;
      }

      .cls-32 {
        fill: #f2e3c0;
      }

      .cls-3 {
        stroke: #9c7f66;
      }

      .cls-33 {
        fill: #f6cd46;
      }

      .cls-4 {
        stroke: #6a5146;
      }

      .cls-5 {
        stroke: #d7ac85;
      }

      .cls-6 {
        stroke: #eed7ac;
      }

      .cls-34 {
        fill: #451a0c;
      }

      .cls-7 {
        stroke: #e2c6a2;
      }

      .cls-8 {
        stroke: #dbb794;
      }

      .cls-9 {
        stroke: #debb93;
      }

      .cls-10 {
        stroke: #daae7f;
      }

      .cls-11 {
        stroke: #836555;
      }

      .cls-35 {
        fill: #c1b09d;
      }

      .cls-12 {
        stroke: #eddac2;
      }

      .cls-13 {
        stroke: #e4cbb2;
      }

      .cls-14 {
        stroke: #d5c7b4;
      }

      .cls-15 {
        stroke: #9f968c;
      }

      .cls-16 {
        stroke: #deb98e;
      }

      .cls-17 {
        stroke: #918047;
      }

      .cls-36 {
        fill: #e8ddcb;
      }

      .cls-18 {
        stroke: #7f6e65;
      }

      .cls-37 {
        fill: #2c3347;
      }

      .cls-38 {
        fill: #8e8780;
      }

      .cls-19 {
        stroke: #8c816b;
      }

      .cls-20 {
        stroke: #7a5f52;
      }

      .cls-21 {
        stroke: #5d5d64;
      }

      .cls-22 {
        stroke: #ebd4b2;
      }

      .cls-23 {
        stroke: #977c6c;
      }

      .cls-24 {
        stroke: #ccc1b1;
      }

      .cls-39 {
        fill: #ca9266;
      }

      .cls-25 {
        stroke: #39272a;
      }

      .cls-40 {
        fill: #ebcf8e;
      }

      .cls-26 {
        stroke: #f4e9d0;
      }
    </style>
  </defs>
  <g id="_图层_1-2" data-name="图层 1">
    <g>
      <path class="cls-1" d="M301.09,151.1C301.09,68.27,233.94,1.12,151.1,1.12h0C68.27,1.12,1.12,68.27,1.12,151.1s67.15,149.98,149.98,149.98,149.98-67.15,149.98-149.98"/>
      <path class="cls-2" d="M5.89,183.4c.81,4.09,2.25,9.08,4.32,14.97,7.88,22.47,19.96,42.7,36.39,59.03,2.22,2.22,5.56,1.13,6.59-1.61"/>
      <path class="cls-10" d="M53.19,255.79c15.73,14.51,33.56,25.07,53.47,31.68,16.61,5.52,34.1,7.46,51.68,6.75,20.69-.85,40.18-6.13,58.45-15.85,27.95-14.85,49.04-36.67,63.27-65.44,5.29-10.69,9.15-22.48,11.59-35.36,3.08-16.26,3.5-31.82,1.25-46.7"/>
      <path class="cls-9" d="M292.9,130.87c-2.55-18.17-8.31-34.89-17.27-50.18"/>
      <path class="cls-5" d="M275.63,80.69c3.39,1.4,5.93,3.41,7.6,6.01,1.7,2.65,3.39,7.68,6.75,11.82.03.03.07.03.09,0,.02-.02.02-.04.02-.07-4.7-12.47-11.06-24.28-19.08-35.43C240.75,20.99,187.15-2.74,135.72,3.19c-15.47,1.78-29.57,5.38-42.29,10.8-30.77,13.09-54.54,34.32-71.32,63.68-11.35,19.85-17.84,40.82-19.48,62.9-1.01,13.59.07,27.87,3.26,42.83"/>
      <path class="cls-22" d="M275.63,80.69c-4.07-6.97-8.53-13.48-13.36-19.55"/>
      <path class="cls-12" d="M262.27,61.14c-23.05-27.95-51.98-45.05-86.78-51.32-8.17-1.48-18.36-2.07-30.56-1.78-7.83.19-15.19,1.08-22.08,2.69-9.49,2.21-16.64,4.19-21.45,5.95-18.43,6.77-35.74,17.92-51.92,33.44-.44.42-.81.9-1.12,1.42-.34.6-.87,1.06-1.58,1.39-.34.16-.64.39-.9.68-9.74,11.34-17.61,23.11-23.6,35.31-13.31,27.07-17.32,57.93-11.98,87.61"/>
      <path class="cls-8" d="M10.3,176.53c-2.88,1.12-3.65,4.24-4.41,6.87"/>
      <path class="cls-26" d="M262.27,61.14c-3.01-1.84-5.82-4.02-8.45-6.55-2.36-2.27-4.07-3.63-5.13-4.07-1.79-.77-3.92-1.36-6.38-1.77-.36-.06-.69-.22-.95-.46-4.19-3.82-7.13-6.27-8.84-7.35-6.01-3.79-10.49-6.54-13.43-8.24-20.56-11.86-42.95-17.95-67.16-18.27-24.12-.31-45.59,6.19-66.36,17.17-11.79,6.23-22.54,14.61-32.26,25.13-.26.28-.55.58-.86.91-6.33,6.5-13.16,14.82-17.98,22.97-19.35,32.72-25.19,72.39-14.31,109.16,2.39,8.11,7.2,17.9,5.05,29.12"/>
      <path class="cls-13" d="M25.2,218.89c-7.09-13.32-12.06-27.44-14.91-42.37"/>
      <path class="cls-6" d="M292.9,130.87l-4.69-7.39c-.33-.53-1.03-.69-1.57-.36-.05.03-.1.07-.15.11-.78.68-1.07,1.59-.9,2.74,3.69,23.07,1.8,45.48-5.68,67.21-8.97,26.04-23.51,47.04-43.61,62.99-7.36,5.83-13.17,9.99-17.46,12.47-26.99,15.61-56.09,21.43-87.31,17.45-18.46-2.36-35.82-8.73-52.07-19.11-7.39-4.72-12.35-8.15-14.89-10.27-9.24-7.71-17.43-16.58-24.6-26.59-.22-.3-.54-.51-.92-.57-2.31-.37-4.61-.04-6.9.98"/>
      <path class="cls-7" d="M32.16,230.53l-6.96-11.64"/>
      <path class="cls-16" d="M53.19,255.79c-7.98-7.59-14.99-16.01-21.03-25.26"/>
      <path class="cls-3" d="M80.11,212.31c-4.04,5.39-5.42,11.38-4.14,17.95,2.36,12.1,28.28,21.68,39.05,24.44,33.05,8.49,73.27,6.38,102.26-12.75,4.66-3.07,8.29-6.07,9.48-11.19,1.6-6.91.59-13.19-3.05-18.84-.22-.33-.21-.76.01-1.09,6.31-9.31,11.4-18.17,14.63-28.79.17-.57.62-1.02,1.2-1.2,4.01-1.25,11.27-4.04,13.41-7.87,1.28-2.29,2.27-5.21,2.99-8.75,2.92-14.62,2.45-28.9-1.41-42.84-1.88-6.76-6.89-7.91-12.59-10.43-.73-.32-1.26-.98-1.42-1.76-2.9-14.14-8.56-27-16.98-38.58-13.31-18.33-37.21-30.97-59.26-33.08-13.01-1.24-25.49-.47-37.43,2.29-18.91,4.39-37.64,17.14-48.92,33.35-7.54,10.85-12.67,22.95-15.4,36.3-.15.76-.7,1.38-1.43,1.63-5.19,1.79-10.16,3.99-12.41,9.53-.6,1.47-1.28,4.71-2.05,9.71-1.97,12.75-1.5,25.12,1.42,37.12,1.88,7.74,8.55,11.07,15.38,13.25.72.23,1.28.79,1.52,1.51,3.45,10.47,8.5,20.15,15.16,29.04.23.31.23.72,0,1.03"/>
      <path class="cls-23" d="M151.49,82.49c15.7-.01,29.56,1.58,43.96,6.84.16.06.33-.03.39-.18,0-.02.01-.05.02-.07.94-11.69.36-26.44-4.33-37.1-.36-.84-1.01-1.52-1.82-1.94-12.05-6.07-24.74-8.15-38.23-8.14-13.48.01-26.17,2.1-38.21,8.19-.82.41-1.46,1.1-1.82,1.94-4.68,10.65-5.24,25.4-4.29,37.1.01.17.16.29.33.27.03,0,.05,0,.07-.02,14.39-5.28,28.26-6.88,43.94-6.89"/>
      <path class="cls-11" d="M129.68,233.65c6.65,1.82,14.45,2.61,23.41,2.36,17.96-.49,35.72-3.92,50.1-13.34,5.56-3.64,9.8-7.18,12.73-10.61,10.09-11.79,16.79-25.42,20.12-40.91,3.08-14.32,3.95-29.09,2.61-44.29-2.45-27.58-14.85-57.16-39.78-71.84"/>
      <path class="cls-23" d="M198.87,55.02l-2.9-1.77c-.13-.08-.3-.04-.38.1-.04.07-.05.14-.03.22,3.19,11.89,4.27,23.99,3.25,36.29-.02.36.18.69.5.83l7.78,3.21"/>
      <path class="cls-11" d="M207.09,93.9c8.52,3.87,15.38,7.74,17.57,16.82,3.04,12.6,4.43,24.6,4.19,35.99-.34,14.94-2.37,29.57-6.11,43.9-1.35,5.2-4.62,9.38-9.81,12.56-7.21,4.4-13.85,7.7-19.91,9.9"/>
      <path class="cls-23" d="M193.01,213.06c-13.17,3.89-26.2,5.87-39.08,5.92-19.38.08-40.39-3.56-57.81-12.26-3.73-1.86-9.37-5.52-11.64-8.34-2.43-3.02-4.34-7.96-5.73-14.82-5.01-24.82-6.36-51.05.64-74.8,1.37-4.63,4.53-8.36,9.49-11.19,6.01-3.42,10.87-5.68,14.57-6.77.45-.13.75-.56.72-1.03-.96-12.3.08-24.65,3.67-36.38.05-.17-.05-.34-.21-.39-.08-.02-.17-.01-.25.03-17.26,10.28-29.31,25.04-36.13,44.29-8.22,23.22-9.69,47.26-4.4,72.12,4.51,21.25,15.77,43.41,35.31,54.56,8.59,4.9,17.76,8.11,27.53,9.63"/>
      <path class="cls-14" d="M193.01,213.06c-9.77,9.69-21.5,15.64-35.17,17.84-9.07,1.46-18.46,2.38-28.15,2.75"/>
      <path class="cls-14" d="M198.87,55.02c-.38,2.87-.01,5.7,1.11,8.49.11.26.19.53.25.81,1.38,6.87,2.54,13.56,3.48,20.05.1.73.15,2.44.12,5.14,0,.39.15.76.41,1.03.88.91,2.01,1.71,3.4,2.41.42.2.53.44.34.72-.13.19-.43.26-.9.24"/>
      <path class="cls-4" d="M86.28,195.43c1.19,1.56,2.61,2.9,4.24,4.03,12,8.27,23.7,11.51,38.66,14.08,16.29,2.79,32.96,2.64,50-.44,13.2-2.39,24.8-7.21,34.81-14.47,1.97-1.43,3.64-3.37,4.35-5.42,1.72-4.94,3.01-9.72,3.87-14.33,3.51-18.82,4.96-39.99,1.13-58.51"/>
      <path class="cls-20" d="M223.35,120.36c-.78-6.39-1.79-10.78-3.04-13.17-1.13-2.15-2.81-3.92-5.06-5.3-30.25-18.69-70.8-20.13-103.85-10.6-6.74,1.95-12.48,4.23-17.22,6.85-5.83,3.22-10.54,6.13-12.16,11.91-1.25,4.45-2.14,8.76-2.66,12.95-2.63,21.03-1.63,41.96,3,62.79.76,3.44,2.07,6.65,3.93,9.65"/>
      <path class="cls-15" d="M223.35,120.36l-5.91,5.46"/>
      <path class="cls-20" d="M217.44,125.82l-2.69-13.31c-.05-.25-.13-.48-.25-.7-1.86-3.57-4.97-6.35-9.33-8.33-11.85-5.36-24.16-8.61-36.95-9.72-24.51-2.15-50.5-.39-72.43,10.98-4.21,2.19-6.75,5.08-7.61,8.68-5.61,23.34-5.41,46.84.59,70.48.76,2.99,1.55,5.3,2.37,6.92"/>
      <path class="cls-15" d="M91.15,190.82l-4.87,4.61"/>
      <path class="cls-4" d="M217.44,125.82c2.75,18.9,1.95,37.71-2.39,56.42-.66,2.83-1.55,5.4-2.69,7.71-4.91,10.08-27.92,15.83-38.32,17.58-22.11,3.72-45.34,2.14-66.37-5.83-5.72-2.17-12.91-5.55-16.53-10.89"/>
      <path class="cls-20" d="M51.04,135.96c-1.31,11.12-.59,21.75,2.15,31.89.35,1.32,1.19,2.46,2.34,3.2l6.15,3.94c.61.39,1.43.22,1.82-.4.19-.3.26-.66.18-1-2.26-9.97-3.41-20.51-3.46-31.62"/>
      <path class="cls-23" d="M60.23,141.97c-.21-8.74.34-16.85,1.63-24.35.11-.66-.33-1.28-.99-1.39-.28-.05-.56,0-.8.14l-4.61,2.65c-1.27.74-2.15,2.02-2.37,3.48l-2.05,13.46"/>
      <path class="cls-24" d="M60.23,141.97c-.42.4-.94.15-1.57-.73-.53-.74-.95-1.25-1.26-1.52-1.97-1.74-4.09-2.99-6.36-3.76"/>
      <path class="cls-20" d="M242.95,142.02c-.07,11.29-1.18,21.86-3.33,31.71-.14.67.29,1.33.96,1.47.3.06.61.01.87-.14l5.8-3.35c1.54-.89,2.62-2.39,2.98-4.13,3.43-16.55,3.37-31.65-.19-45.32-.68-2.6-2.7-4.29-6.08-5.05"/>
      <path class="cls-23" d="M243.96,117.22c-.53-.42-1.25-.76-2.16-1.02-.2-.06-.4.06-.46.26-.01.05-.02.1-.01.15,1.17,8.4,1.71,16.87,1.62,25.4"/>
      <path class="cls-24" d="M243.96,117.22c-.54,1.84-.41,4.77.39,8.77.39,1.95.59,6.42.6,13.42,0,1.02-.66,1.89-2,2.61"/>
      <path class="cls-4" d="M218.11,215.61c-4.72,4.98-8.94,8.6-12.64,10.87-10.32,6.32-22.1,10.51-35.34,12.58-24.48,3.83-47.57.32-69.29-10.53"/>
      <path class="cls-20" d="M100.84,228.53c-6.33-3.54-11.71-8.03-16.15-13.46-.16-.19-.45-.22-.65-.06-.03.03-.06.06-.08.09-3.45,4.87-5.9,14.32-.79,18.86,11.02,9.77,28.3,15.66,42.22,18.13,31.65,5.64,66.06,2.14,92.69-16.35,2.04-1.41,3.24-2.91,3.6-4.49,1.07-4.62.97-11.75-1.73-16.35-.18-.3-.55-.42-.87-.28-.46.2-.78.53-.96,1"/>
      <path class="cls-15" d="M100.84,228.53c-.98.95-1.19,1.68-.64,2.18,5.48,5,11.07,8.6,16.77,10.8,13.82,5.34,29.9,7.86,45.32,5.56,15.61-2.33,30.51-7.04,44.68-14.14,4.59-2.29,7.66-4.46,9.21-6.5,2.31-3.03,2.95-6.63,1.92-10.81"/>
      <path class="cls-25" d="M92.16,113.42c-1.92,5.48-3.25,11.91-3.96,19.29-1.22,12.54-.83,24.48,1.15,35.82.12.69.42,3.29.9,7.8.28,2.69,1.03,5.85,2.25,9.46,1.34,3.95,3.84,6.85,7.52,8.68,7.15,3.56,13.98,6.9,21.09,7.98,7.33,1.12,13.62,2.86,21.08,3.27,12.35.66,24.23,0,35.66-2,4.99-.87,8.25-2.22,13.46-3.96,4.02-1.35,8.04-3.4,12.06-6.15,6.05-4.15,7.26-8.28,8.56-15.26,1.07-5.81,1.91-11.71,2.5-17.69.04-.47.15-.93.31-1.38.31-.84.47-1.43.46-1.76-.13-5.41-.19-11.07-.17-16.98,0-2.34-.58-8.49-1.77-18.46-.37-3.04-1.29-6.29-2.79-9.76-.29-.67-.73-1.26-1.3-1.73-2.95-2.45-6.18-4.36-9.7-5.75-9.53-3.74-19.2-6.11-29.01-7.13-7.71-.8-18.96-.92-33.73-.37-4.3.16-8.62.69-12.95,1.57-6.56,1.34-10.79,2.33-12.7,2.98-5.87,2-17.12,6.34-18.95,11.55"/>
      <path class="cls-19" d="M118,119.06c.35,0,.62-.29.62-.64h0s-.11-4.92-.11-4.92c0-.35.27-.63.62-.64h0l10.61-.25c.35,0,.62-.29.62-.64h0s-.12-4.98-.12-4.98c0-.35-.29-.62-.64-.62h0l-16.88.38c-.35,0-.62.29-.62.64h0s.11,5.02.11,5.02c0,.35-.27.63-.62.64h0l-4.83.11c-.35,0-.62.29-.62.64h0s.11,4.63.11,4.63c0,.35-.27.63-.62.64h0l-5.28.12c-.35,0-.62.29-.62.64h0s.34,14.92.34,14.92c0,.35.29.62.64.62h0l4.96-.11c.35,0,.62-.29.62-.64h0s-.19-8.55-.19-8.55c0-.35.27-.63.62-.64h0l5.36-.12c.35,0,.62-.29.62-.64h0s-.12-4.87-.12-4.87c0-.35.27-.63.62-.64h0l4.82-.11"/>
      <path class="cls-17" d="M119.02,156.09v1.38c0,.4.33.72.73.72h9.94c.34,0,.62-.28.62-.62h0v-22.48c0-.72-.59-1.31-1.31-1.31h-7.3c-.57,0-1.03.47-1.03,1.04v3.54c0,.34-.28.62-.62.62h-4.67c-.35,0-.63.28-.63.63v14.63c0,.06.01.12.03.18.26.71,1.2.89,2.82.55.63-.14,1.25.26,1.38.89.02.08.03.17.03.25"/>
      <path class="cls-17" d="M183.83,156.05c0-.64.53-1.16,1.16-1.16.08,0,.16,0,.24.03,1.61.34,2.55.16,2.81-.54.02-.06.03-.12.03-.18l.04-14.54c0-.35-.28-.63-.63-.63h-4.63c-.34-.01-.62-.29-.62-.63v-3.5c.02-.57-.43-1.03-1-1.04,0,0,0,0-.01,0l-7.25-.02c-.72,0-1.3.57-1.31,1.29h0s-.06,22.35-.06,22.35c0,.34.27.61.6.62l9.88.02c.4,0,.72-.31.73-.7v-1.37"/>
      <path class="cls-18" d="M166.15,160.29c0-.49-.39-.89-.88-.89h0l-3.87-.03c-.49,0-.89.39-.89.88h0l-.04,4.07c0,.49.39.89.88.89h0l3.87.03c.49,0,.89-.39.89-.88h0s.04-4.07.04-4.07"/>
      <path class="cls-18" d="M142.43,160.39c0-.5-.4-.91-.9-.91h0l-3.38-.02c-.5,0-.91.4-.91.9h0s-.02,3.85-.02,3.85c0,.5.4.91.9.91h0l3.38.02c.5,0,.91-.4.91-.9h0s.02-3.85.02-3.85"/>
      <path class="cls-17" d="M160.17,166.06c0-.43-.35-.78-.78-.78h-15.38c-.43,0-.78.35-.78.78v4.77c0,.43.35.78.78.78h15.38c.43,0,.78-.35.78-.78v-4.77"/>
      <path class="cls-21" d="M207.47,167.75c0-.51-.4-.92-.9-.93h0l-3.6-.05c-.51,0-.92.4-.93.9h0s-.06,4.63-.06,4.63c0,.51.4.92.9.93h0l3.6.05c.51,0,.92-.4.93-.9h0s.06-4.63.06-4.63"/>
      <path class="cls-21" d="M199.69,182.54c0-.55-.45-1-1-1h-3.72c-.55,0-1,.45-1,1h0v4.34c0,.55.45,1,1,1h3.72c.55,0,1-.45,1-1h0v-4.34"/>
      <path class="cls-21" d="M191.78,190.38c0-.43-.33-.78-.76-.79l-3.94-.08c-.43,0-.78.33-.79.76l-.08,4.27c0,.43.33.78.76.79h0l3.94.08c.43,0,.78-.33.79-.76h0l.08-4.27"/>
      <path class="cls-39" d="M301.09,151.1c0,82.83-67.15,149.98-149.98,149.98S1.12,233.94,1.12,151.1,68.27,1.12,151.1,1.12s149.98,67.15,149.98,149.98h0ZM5.89,183.4c.81,4.09,2.25,9.08,4.32,14.97,7.88,22.47,19.96,42.7,36.39,59.03,2.22,2.22,5.56,1.13,6.59-1.61,15.73,14.51,33.56,25.07,53.47,31.68,16.61,5.52,34.1,7.46,51.68,6.75,20.69-.85,40.18-6.13,58.45-15.85,27.95-14.85,49.04-36.67,63.27-65.44,5.29-10.69,9.15-22.48,11.59-35.36,3.08-16.26,3.5-31.82,1.25-46.7-2.55-18.17-8.31-34.89-17.27-50.18,3.39,1.4,5.93,3.41,7.6,6.01,1.7,2.65,3.39,7.68,6.75,11.82.03.03.07.03.09,0,.02-.02.02-.04.02-.07-4.7-12.47-11.06-24.28-19.08-35.43C240.75,20.99,187.15-2.74,135.72,3.19c-15.47,1.78-29.57,5.38-42.29,10.8-30.77,13.09-54.54,34.32-71.32,63.68-11.35,19.85-17.84,40.82-19.48,62.9-1.01,13.59.07,27.87,3.26,42.83Z"/>
      <path class="cls-28" d="M275.63,80.69c-4.07-6.97-8.53-13.48-13.36-19.55-23.05-27.95-51.98-45.05-86.78-51.32-8.17-1.48-18.36-2.07-30.56-1.78-7.83.19-15.19,1.08-22.08,2.69-9.49,2.21-16.64,4.19-21.45,5.95-18.43,6.77-35.74,17.92-51.92,33.44-.44.42-.81.9-1.12,1.42-.34.6-.87,1.06-1.58,1.39-.34.16-.64.39-.9.68-9.74,11.34-17.61,23.11-23.6,35.31-13.31,27.07-17.32,57.93-11.98,87.61-2.88,1.12-3.65,4.24-4.41,6.87-3.19-14.96-4.27-29.23-3.26-42.83,1.64-22.08,8.14-43.05,19.48-62.9C38.89,48.31,62.66,27.08,93.43,13.99c12.72-5.42,26.82-9.02,42.29-10.8,51.43-5.93,105.03,17.8,135.29,59.83,8.02,11.15,14.38,22.96,19.08,35.43.01.04,0,.07-.04.08-.02,0-.05,0-.07-.02-3.36-4.14-5.05-9.16-6.75-11.82-1.67-2.6-4.2-4.61-7.6-6.01Z"/>
      <path class="cls-31" d="M262.27,61.14c-3.01-1.84-5.82-4.02-8.45-6.55-2.36-2.27-4.07-3.63-5.13-4.07-1.79-.77-3.92-1.36-6.38-1.77-.36-.06-.69-.22-.95-.46-4.19-3.82-7.13-6.27-8.84-7.35-6.01-3.79-10.49-6.54-13.43-8.24-20.56-11.86-42.95-17.95-67.16-18.27-24.12-.31-45.59,6.19-66.36,17.17-11.79,6.23-22.54,14.61-32.26,25.13-.26.28-.55.58-.86.91-6.33,6.5-13.16,14.82-17.98,22.97-19.35,32.72-25.19,72.39-14.31,109.16,2.39,8.11,7.2,17.9,5.05,29.12-7.09-13.32-12.06-27.44-14.91-42.37-5.34-29.68-1.32-60.54,11.98-87.61,5.99-12.2,13.86-23.97,23.6-35.31.25-.29.56-.52.9-.68.71-.33,1.23-.79,1.58-1.39.3-.52.68-1,1.12-1.42,16.18-15.52,33.49-26.66,51.92-33.44,4.81-1.76,11.96-3.75,21.45-5.95,6.89-1.6,14.25-2.5,22.08-2.69,12.2-.29,22.39.3,30.56,1.78,34.8,6.27,63.73,23.37,86.78,51.32Z"/>
      <path class="cls-32" d="M262.27,61.14c4.83,6.07,9.29,12.58,13.36,19.55,8.96,15.29,14.72,32.01,17.27,50.18l-4.69-7.39c-.33-.53-1.03-.69-1.57-.36-.05.03-.1.07-.15.11-.78.68-1.07,1.59-.9,2.74,3.69,23.07,1.8,45.48-5.68,67.21-8.97,26.04-23.51,47.04-43.61,62.99-7.36,5.83-13.17,9.99-17.46,12.47-26.99,15.61-56.09,21.43-87.31,17.45-18.46-2.36-35.82-8.73-52.07-19.11-7.39-4.72-12.35-8.15-14.89-10.27-9.24-7.71-17.43-16.58-24.6-26.59-.22-.3-.54-.51-.92-.57-2.31-.37-4.61-.04-6.9.98l-6.96-11.64c2.15-11.21-2.65-21-5.05-29.12-10.88-36.77-5.04-76.44,14.31-109.16,4.82-8.16,11.65-16.47,17.98-22.97.31-.33.6-.63.86-.91,9.72-10.53,20.47-18.9,32.26-25.13,20.77-10.98,42.24-17.48,66.36-17.17,24.22.32,46.6,6.41,67.16,18.27,2.94,1.7,7.42,4.45,13.43,8.24,1.71,1.08,4.66,3.53,8.84,7.35.26.24.59.4.95.46,2.46.41,4.59,1,6.38,1.77,1.05.45,2.76,1.81,5.13,4.07,2.63,2.52,5.44,4.7,8.45,6.55ZM80.11,212.31c-4.04,5.39-5.42,11.38-4.14,17.95,2.36,12.1,28.28,21.68,39.05,24.44,33.05,8.49,73.27,6.38,102.26-12.75,4.66-3.07,8.29-6.07,9.48-11.19,1.6-6.91.59-13.19-3.05-18.84-.22-.33-.21-.76.01-1.09,6.31-9.31,11.4-18.17,14.63-28.79.17-.57.62-1.02,1.2-1.2,4.01-1.25,11.27-4.04,13.41-7.87,1.28-2.29,2.27-5.21,2.99-8.75,2.92-14.62,2.45-28.9-1.41-42.84-1.88-6.76-6.89-7.91-12.59-10.43-.73-.32-1.26-.98-1.42-1.76-2.9-14.14-8.56-27-16.98-38.58-13.31-18.33-37.21-30.97-59.26-33.08-13.01-1.24-25.49-.47-37.43,2.29-18.91,4.39-37.64,17.14-48.92,33.35-7.54,10.85-12.67,22.95-15.4,36.3-.15.76-.7,1.38-1.43,1.63-5.19,1.79-10.16,3.99-12.41,9.53-.6,1.47-1.28,4.71-2.05,9.71-1.97,12.75-1.5,25.12,1.42,37.12,1.88,7.74,8.55,11.07,15.38,13.25.72.23,1.28.79,1.52,1.51,3.45,10.47,8.5,20.15,15.16,29.04.23.31.23.72,0,1.03Z"/>
      <path class="cls-34" d="M80.11,212.31c.23-.31.23-.72,0-1.03-6.66-8.89-11.72-18.56-15.16-29.04-.24-.72-.8-1.28-1.52-1.51-6.83-2.18-13.5-5.51-15.38-13.25-2.92-12-3.39-24.37-1.42-37.12.77-5.01,1.45-8.24,2.05-9.71,2.25-5.54,7.22-7.74,12.41-9.53.73-.25,1.28-.87,1.43-1.63,2.72-13.35,7.86-25.45,15.4-36.3,11.28-16.2,30.01-28.96,48.92-33.35,11.94-2.77,24.42-3.53,37.43-2.29,22.06,2.1,45.96,14.75,59.26,33.08,8.42,11.59,14.07,24.45,16.98,38.58.16.78.69,1.43,1.42,1.76,5.7,2.52,10.71,3.67,12.59,10.43,3.86,13.94,4.33,28.21,1.41,42.84-.72,3.54-1.71,6.46-2.99,8.75-2.14,3.83-9.4,6.61-13.41,7.87-.57.18-1.02.62-1.2,1.2-3.22,10.62-8.31,19.48-14.63,28.79-.22.33-.23.75-.01,1.09,3.64,5.65,4.66,11.94,3.05,18.84-1.19,5.13-4.82,8.12-9.48,11.19-28.98,19.12-69.21,21.24-102.26,12.75-10.78-2.76-36.69-12.34-39.05-24.44-1.28-6.57.1-12.56,4.14-17.95ZM151.49,82.49c15.7-.01,29.56,1.58,43.96,6.84.16.06.33-.03.39-.18,0-.02.01-.05.02-.07.94-11.69.36-26.44-4.33-37.1-.36-.84-1.01-1.52-1.82-1.94-12.05-6.07-24.74-8.15-38.23-8.14-13.48.01-26.17,2.1-38.21,8.19-.82.41-1.46,1.1-1.82,1.94-4.68,10.65-5.24,25.4-4.29,37.1.01.17.16.29.33.27.03,0,.05,0,.07-.02,14.39-5.28,28.26-6.88,43.94-6.89ZM129.68,233.65c6.65,1.82,14.45,2.61,23.41,2.36,17.96-.49,35.72-3.92,50.1-13.34,5.56-3.64,9.8-7.18,12.73-10.61,10.09-11.79,16.79-25.42,20.12-40.91,3.08-14.32,3.95-29.09,2.61-44.29-2.45-27.58-14.85-57.16-39.78-71.84l-2.9-1.77c-.13-.08-.3-.04-.38.1-.04.07-.05.14-.03.22,3.19,11.89,4.27,23.99,3.25,36.29-.02.36.18.69.5.83l7.78,3.21c8.52,3.87,15.38,7.74,17.57,16.82,3.04,12.6,4.43,24.6,4.19,35.99-.34,14.94-2.37,29.57-6.11,43.9-1.35,5.2-4.62,9.38-9.81,12.56-7.21,4.4-13.85,7.7-19.91,9.9-13.17,3.89-26.2,5.87-39.08,5.92-19.38.08-40.39-3.56-57.81-12.26-3.73-1.86-9.37-5.52-11.64-8.34-2.43-3.02-4.34-7.96-5.73-14.82-5.01-24.82-6.36-51.05.64-74.8,1.37-4.63,4.53-8.36,9.49-11.19,6.01-3.42,10.87-5.68,14.57-6.77.45-.13.75-.56.72-1.03-.96-12.3.08-24.65,3.67-36.38.05-.17-.05-.34-.21-.39-.08-.02-.17-.01-.25.03-17.26,10.28-29.31,25.04-36.13,44.29-8.22,23.22-9.69,47.26-4.4,72.12,4.51,21.25,15.77,43.41,35.31,54.56,8.59,4.9,17.76,8.11,27.53,9.63ZM86.28,195.43c1.19,1.56,2.61,2.9,4.24,4.03,12,8.27,23.7,11.51,38.66,14.08,16.29,2.79,32.96,2.64,50-.44,13.2-2.39,24.8-7.21,34.81-14.47,1.97-1.43,3.64-3.37,4.35-5.42,1.72-4.94,3.01-9.72,3.87-14.33,3.51-18.82,4.96-39.99,1.13-58.51-.78-6.39-1.79-10.78-3.04-13.17-1.13-2.15-2.81-3.92-5.06-5.3-30.25-18.69-70.8-20.13-103.85-10.6-6.74,1.95-12.48,4.23-17.22,6.85-5.83,3.22-10.54,6.13-12.16,11.91-1.25,4.45-2.14,8.76-2.66,12.95-2.63,21.03-1.63,41.96,3,62.79.76,3.44,2.07,6.65,3.93,9.65ZM51.04,135.96c-1.31,11.12-.59,21.75,2.15,31.89.35,1.32,1.19,2.46,2.34,3.2l6.15,3.94c.61.39,1.43.22,1.82-.4.19-.3.26-.66.18-1-2.26-9.97-3.41-20.51-3.46-31.62-.21-8.74.34-16.85,1.63-24.35.11-.66-.33-1.28-.99-1.39-.28-.05-.56,0-.8.14l-4.61,2.65c-1.27.74-2.15,2.02-2.37,3.48l-2.05,13.46ZM242.95,142.02c-.07,11.29-1.18,21.86-3.33,31.71-.14.67.29,1.33.96,1.47.3.06.61.01.87-.14l5.8-3.35c1.54-.89,2.62-2.39,2.98-4.13,3.43-16.55,3.37-31.65-.19-45.32-.68-2.6-2.7-4.29-6.08-5.05-.53-.42-1.25-.76-2.16-1.02-.2-.06-.4.06-.46.26-.01.05-.02.1-.01.15,1.17,8.4,1.71,16.87,1.62,25.4ZM218.11,215.61c-4.72,4.98-8.94,8.6-12.64,10.87-10.32,6.32-22.1,10.51-35.34,12.58-24.48,3.83-47.57.32-69.29-10.53-6.33-3.54-11.71-8.03-16.15-13.46-.16-.19-.45-.22-.65-.06-.03.03-.06.06-.08.09-3.45,4.87-5.9,14.32-.79,18.86,11.02,9.77,28.3,15.66,42.22,18.13,31.65,5.64,66.06,2.14,92.69-16.35,2.04-1.41,3.24-2.91,3.6-4.49,1.07-4.62.97-11.75-1.73-16.35-.18-.3-.55-.42-.87-.28-.46.2-.78.53-.96,1Z"/>
      <path class="cls-36" d="M151.47,41.91c13.48-.01,26.17,2.07,38.23,8.14.82.41,1.46,1.1,1.82,1.94,4.69,10.65,5.27,25.4,4.33,37.1-.01.17-.16.29-.33.27-.03,0-.05,0-.07-.02-14.39-5.26-28.26-6.85-43.96-6.84-15.69.01-29.55,1.61-43.94,6.89-.16.06-.33-.03-.39-.18,0-.02-.01-.05-.02-.07-.95-11.69-.39-26.44,4.29-37.1.36-.84,1.01-1.52,1.82-1.94,12.04-6.09,24.73-8.18,38.21-8.19Z"/>
      <path class="cls-36" d="M193.01,213.06c-9.77,9.69-21.5,15.64-35.17,17.84-9.07,1.46-18.46,2.38-28.15,2.75-9.77-1.52-18.94-4.73-27.53-9.63-19.54-11.16-30.8-33.31-35.31-54.56-5.29-24.86-3.82-48.91,4.4-72.12,6.83-19.25,18.87-34.01,36.13-44.29.15-.09.34-.04.43.11.04.07.05.16.03.25-3.59,11.73-4.63,24.08-3.67,36.38.03.47-.26.9-.72,1.03-3.7,1.09-8.56,3.35-14.57,6.77-4.96,2.83-8.12,6.56-9.49,11.19-6.99,23.75-5.65,49.98-.64,74.8,1.39,6.86,3.3,11.79,5.73,14.82,2.27,2.82,7.91,6.48,11.64,8.34,17.42,8.71,38.43,12.34,57.81,12.26,12.88-.05,25.9-2.03,39.08-5.92Z"/>
      <path class="cls-36" d="M198.87,55.02c-.38,2.87-.01,5.7,1.11,8.49.11.26.19.53.25.81,1.38,6.87,2.54,13.56,3.48,20.05.1.73.15,2.44.12,5.14,0,.39.15.76.41,1.03.88.91,2.01,1.71,3.4,2.41.42.2.53.44.34.72-.13.19-.43.26-.9.24l-7.78-3.21c-.33-.13-.53-.47-.5-.83,1.02-12.3-.06-24.4-3.25-36.29-.04-.15.05-.3.2-.34.07-.02.15,0,.22.03l2.9,1.77Z"/>
      <path class="cls-35" d="M129.68,233.65c9.7-.37,19.08-1.29,28.15-2.75,13.67-2.2,25.4-8.15,35.17-17.84,6.06-2.2,12.69-5.5,19.91-9.9,5.19-3.17,8.46-7.36,9.81-12.56,3.74-14.33,5.77-28.96,6.11-43.9.25-11.39-1.15-23.39-4.19-35.99-2.19-9.08-9.05-12.95-17.57-16.82.46.03.76-.05.9-.24.19-.28.08-.51-.34-.72-1.39-.69-2.52-1.5-3.4-2.41-.27-.27-.41-.64-.41-1.03.02-2.69-.02-4.41-.12-5.14-.94-6.5-2.1-13.18-3.48-20.05-.05-.28-.13-.55-.25-.81-1.12-2.79-1.49-5.62-1.11-8.49,24.93,14.68,37.33,44.26,39.78,71.84,1.34,15.2.47,29.97-2.61,44.29-3.33,15.49-10.03,29.12-20.12,40.91-2.93,3.43-7.18,6.97-12.73,10.61-14.38,9.42-32.14,12.85-50.1,13.34-8.96.25-16.76-.54-23.41-2.36Z"/>
      <path class="cls-29" d="M223.35,120.36l-5.91,5.46-2.69-13.31c-.05-.25-.13-.48-.25-.7-1.86-3.57-4.97-6.35-9.33-8.33-11.85-5.36-24.16-8.61-36.95-9.72-24.51-2.15-50.5-.39-72.43,10.98-4.21,2.19-6.75,5.08-7.61,8.68-5.61,23.34-5.41,46.84.59,70.48.76,2.99,1.55,5.3,2.37,6.92l-4.87,4.61c-1.86-2.99-3.17-6.21-3.93-9.65-4.63-20.83-5.63-41.76-3-62.79.52-4.19,1.41-8.5,2.66-12.95,1.62-5.77,6.33-8.68,12.16-11.91,4.74-2.62,10.48-4.9,17.22-6.85,33.05-9.53,73.6-8.09,103.85,10.6,2.25,1.39,3.93,3.16,5.06,5.3,1.25,2.39,2.27,6.79,3.04,13.17Z"/>
      <path class="cls-34" d="M217.44,125.82c2.75,18.9,1.95,37.71-2.39,56.42-.66,2.83-1.55,5.4-2.69,7.71-4.91,10.08-27.92,15.83-38.32,17.58-22.11,3.72-45.34,2.14-66.37-5.83-5.72-2.17-12.91-5.55-16.53-10.89-.82-1.62-1.61-3.92-2.37-6.92-6.01-23.64-6.2-47.13-.59-70.48.86-3.6,3.39-6.5,7.61-8.68,21.93-11.37,47.93-13.13,72.43-10.98,12.79,1.12,25.1,4.36,36.95,9.72,4.36,1.98,7.48,4.75,9.33,8.33.11.22.19.46.25.7l2.69,13.31ZM92.16,113.42c-1.92,5.48-3.25,11.91-3.96,19.29-1.22,12.54-.83,24.48,1.15,35.82.12.69.42,3.29.9,7.8.28,2.69,1.03,5.85,2.25,9.46,1.34,3.95,3.84,6.85,7.52,8.68,7.15,3.56,13.98,6.9,21.09,7.98,7.33,1.12,13.62,2.86,21.08,3.27,12.35.66,24.23,0,35.66-2,4.99-.87,8.25-2.22,13.46-3.96,4.02-1.35,8.04-3.4,12.06-6.15,6.05-4.15,7.26-8.28,8.56-15.26,1.07-5.81,1.91-11.71,2.5-17.69.04-.47.15-.93.31-1.38.31-.84.47-1.43.46-1.76-.13-5.41-.19-11.07-.17-16.98,0-2.34-.58-8.49-1.77-18.46-.37-3.04-1.29-6.29-2.79-9.76-.29-.67-.73-1.26-1.3-1.73-2.95-2.45-6.18-4.36-9.7-5.75-9.53-3.74-19.2-6.11-29.01-7.13-7.71-.8-18.96-.92-33.73-.37-4.3.16-8.62.69-12.95,1.57-6.56,1.34-10.79,2.33-12.7,2.98-5.87,2-17.12,6.34-18.95,11.55Z"/>
      <path class="cls-37" d="M92.16,113.42c1.82-5.2,13.07-9.55,18.95-11.55,1.91-.65,6.14-1.64,12.7-2.98,4.33-.88,8.64-1.4,12.95-1.57,14.77-.55,26.01-.43,33.73.37,9.81,1.01,19.48,3.39,29.01,7.13,3.52,1.39,6.76,3.3,9.7,5.75.57.47,1.01,1.07,1.3,1.73,1.49,3.47,2.42,6.72,2.79,9.76,1.19,9.97,1.78,16.13,1.77,18.46-.02,5.91.03,11.57.17,16.98,0,.33-.15.91-.46,1.76-.16.45-.27.91-.31,1.38-.59,5.98-1.42,11.88-2.5,17.69-1.3,6.98-2.51,11.11-8.56,15.26-4.02,2.75-8.04,4.8-12.06,6.15-5.21,1.75-8.47,3.09-13.46,3.96-11.43,2-23.32,2.67-35.66,2-7.46-.4-13.75-2.15-21.08-3.27-7.12-1.07-13.94-4.42-21.09-7.98-3.68-1.84-6.18-4.73-7.52-8.68-1.22-3.61-1.97-6.76-2.25-9.46-.48-4.51-.78-7.11-.9-7.8-1.98-11.34-2.37-23.28-1.15-35.82.72-7.39,2.04-13.82,3.96-19.29ZM118,119.06c.35,0,.62-.29.62-.64h0s-.11-4.92-.11-4.92c0-.35.27-.63.62-.64h0l10.61-.25c.35,0,.62-.29.62-.64h0s-.12-4.98-.12-4.98c0-.35-.29-.62-.64-.62h0l-16.88.38c-.35,0-.62.29-.62.64h0s.11,5.02.11,5.02c0,.35-.27.63-.62.64h0l-4.83.11c-.35,0-.62.29-.62.64h0s.11,4.63.11,4.63c0,.35-.27.63-.62.64h0l-5.28.12c-.35,0-.62.29-.62.64h0s.34,14.92.34,14.92c0,.35.29.62.64.62h0l4.96-.11c.35,0,.62-.29.62-.64h0s-.19-8.55-.19-8.55c0-.35.27-.63.62-.64h0l5.36-.12c.35,0,.62-.29.62-.64h0s-.12-4.87-.12-4.87c0-.35.27-.63.62-.64h0l4.82-.11ZM119.02,156.09v1.38c0,.4.33.72.73.72h9.94c.34,0,.62-.28.62-.62h0v-22.48c0-.72-.59-1.31-1.31-1.31h-7.3c-.57,0-1.03.47-1.03,1.04v3.54c0,.34-.28.62-.62.62h-4.67c-.35,0-.63.28-.63.63v14.63c0,.06.01.12.03.18.26.71,1.2.89,2.82.55.63-.14,1.25.26,1.38.89.02.08.03.17.03.25ZM183.83,156.05c0-.64.53-1.16,1.16-1.16.08,0,.16,0,.24.03,1.61.34,2.55.16,2.81-.54.02-.06.03-.12.03-.18l.04-14.54c0-.35-.28-.63-.63-.63h-4.63c-.34-.01-.62-.29-.62-.63v-3.5c.02-.57-.43-1.03-1-1.04,0,0,0,0-.01,0l-7.25-.02c-.72,0-1.3.57-1.31,1.29h0s-.06,22.35-.06,22.35c0,.34.27.61.6.62l9.88.02c.4,0,.72-.31.73-.7v-1.37ZM166.15,160.29c0-.49-.39-.89-.88-.89h0l-3.87-.03c-.49,0-.89.39-.89.88h0l-.04,4.07c0,.49.39.89.88.89h0l3.87.03c.49,0,.89-.39.89-.88h0s.04-4.07.04-4.07ZM142.43,160.39c0-.5-.4-.91-.9-.91h0l-3.38-.02c-.5,0-.91.4-.91.9h0s-.02,3.85-.02,3.85c0,.5.4.91.9.91h0l3.38.02c.5,0,.91-.4.91-.9h0s.02-3.85.02-3.85ZM160.17,166.06c0-.43-.35-.78-.78-.78h-15.38c-.43,0-.78.35-.78.78v4.77c0,.43.35.78.78.78h15.38c.43,0,.78-.35.78-.78v-4.77ZM207.47,167.75c0-.51-.4-.92-.9-.93h0l-3.6-.05c-.51,0-.92.4-.93.9h0s-.06,4.63-.06,4.63c0,.51.4.92.9.93h0l3.6.05c.51,0,.92-.4.93-.9h0s.06-4.63.06-4.63ZM199.69,182.54c0-.55-.45-1-1-1h-3.72c-.55,0-1,.45-1,1h0v4.34c0,.55.45,1,1,1h3.72c.55,0,1-.45,1-1h0v-4.34ZM191.78,190.38c0-.43-.33-.78-.76-.79l-3.94-.08c-.43,0-.78.33-.79.76l-.08,4.27c0,.43.33.78.76.79h0l3.94.08c.43,0,.78-.33.79-.76h0l.08-4.27Z"/>
      <path class="cls-40" d="M118,119.06l-4.82.11c-.35,0-.62.29-.62.64h0s.12,4.87.12,4.87c0,.35-.27.63-.62.64h0l-5.36.12c-.35,0-.62.29-.62.64h0s.19,8.55.19,8.55c0,.35-.27.63-.62.64h0l-4.96.11c-.35,0-.63-.27-.64-.62h0s-.34-14.92-.34-14.92c0-.35.27-.63.62-.64h0l5.28-.12c.35,0,.62-.29.62-.64h0s-.11-4.63-.11-4.63c0-.35.27-.63.62-.64h0l4.83-.11c.35,0,.62-.29.62-.64h0s-.11-5.02-.11-5.02c0-.35.27-.63.62-.64h0l16.88-.38c.35,0,.63.27.64.62h0s.12,4.98.12,4.98c0,.35-.27.63-.62.64h0l-10.61.25c-.35,0-.62.29-.62.64h0s.11,4.92.11,4.92c0,.35-.27.63-.62.64h0Z"/>
      <path class="cls-30" d="M292.9,130.87c2.25,14.88,1.83,30.44-1.25,46.7-2.44,12.88-6.3,24.67-11.59,35.36-14.23,28.77-35.32,50.59-63.27,65.44-18.27,9.71-37.75,15-58.45,15.85-17.58.72-35.07-1.23-51.68-6.75-19.91-6.61-37.73-17.17-53.47-31.68-7.98-7.59-14.99-16.01-21.03-25.26,2.29-1.03,4.59-1.36,6.9-.98.37.06.7.27.92.57,7.16,10.01,15.36,18.87,24.6,26.59,2.54,2.13,7.51,5.55,14.89,10.27,16.25,10.38,33.6,16.76,52.07,19.11,31.21,3.98,60.32-1.83,87.31-17.45,4.28-2.48,10.1-6.63,17.46-12.47,20.1-15.95,34.63-36.95,43.61-62.99,7.48-21.73,9.38-44.13,5.68-67.21-.18-1.15.12-2.06.9-2.74.48-.41,1.19-.37,1.6.1.04.05.08.09.11.15l4.69,7.39Z"/>
      <path class="cls-36" d="M60.23,141.97c-.42.4-.94.15-1.57-.73-.53-.74-.95-1.25-1.26-1.52-1.97-1.74-4.09-2.99-6.36-3.76l2.05-13.46c.23-1.46,1.1-2.74,2.37-3.48l4.61-2.65c.58-.33,1.32-.13,1.65.45.14.24.19.53.14.8-1.3,7.5-1.84,15.61-1.63,24.35Z"/>
      <path class="cls-36" d="M243.96,117.22c-.54,1.84-.41,4.77.39,8.77.39,1.95.59,6.42.6,13.42,0,1.02-.66,1.89-2,2.61.09-8.53-.45-17-1.62-25.4-.03-.21.12-.4.32-.43.05,0,.1,0,.15.01.91.26,1.63.6,2.16,1.02Z"/>
      <path class="cls-29" d="M242.95,142.02c1.34-.72,2.01-1.59,2-2.61-.01-7-.22-11.47-.6-13.42-.81-4.01-.94-6.93-.39-8.77,3.37.76,5.4,2.44,6.08,5.05,3.56,13.67,3.62,28.77.19,45.32-.36,1.74-1.44,3.24-2.98,4.13l-5.8,3.35c-.59.34-1.35.14-1.7-.46-.15-.26-.2-.58-.14-.87,2.16-9.85,3.27-20.43,3.33-31.71Z"/>
      <path class="cls-38" d="M223.35,120.36c3.83,18.52,2.38,39.69-1.13,58.51-.86,4.62-2.15,9.4-3.87,14.33-.72,2.05-2.38,3.98-4.35,5.42-10.01,7.26-21.62,12.08-34.81,14.47-17.04,3.08-33.71,3.23-50,.44-14.96-2.56-26.67-5.81-38.66-14.08-1.63-1.13-3.05-2.47-4.24-4.03l4.87-4.61c3.61,5.34,10.81,8.72,16.53,10.89,21.03,7.97,44.26,9.55,66.37,5.83,10.4-1.75,33.4-7.5,38.32-17.58,1.13-2.31,2.03-4.88,2.69-7.71,4.34-18.71,5.14-37.52,2.39-56.42l5.91-5.46Z"/>
      <path class="cls-33" d="M119.02,156.09c0-.64-.52-1.17-1.16-1.17-.08,0-.17,0-.25.03-1.62.34-2.56.16-2.82-.55-.02-.06-.03-.12-.03-.18v-14.63c0-.35.28-.63.63-.63h4.67c.34,0,.62-.28.62-.62h0v-3.54c0-.57.46-1.04,1.03-1.04h7.3c.72,0,1.31.59,1.31,1.31h0v22.48c0,.34-.28.62-.62.62h-9.94c-.4,0-.73-.32-.73-.72h0v-1.38Z"/>
      <path class="cls-33" d="M183.83,156.05v1.37c0,.39-.33.71-.73.7l-9.88-.02c-.34,0-.6-.28-.6-.62l.06-22.34c0-.72.58-1.3,1.3-1.3,0,0,0,0,.01,0l7.25.02c.56,0,1.02.46,1.02,1.03,0,0,0,0,0,.01v3.5c-.01.34.26.62.6.62h4.63c.35.01.63.29.63.64h0s-.04,14.54-.04,14.54c0,.06-.01.12-.03.18-.26.7-1.2.88-2.81.54-.62-.14-1.24.26-1.37.89-.02.08-.03.16-.03.24Z"/>
      <path class="cls-29" d="M60.23,141.97c.04,11.12,1.2,21.66,3.46,31.62.16.71-.29,1.42-1,1.58-.34.08-.71.01-1-.18l-6.15-3.94c-1.15-.74-1.99-1.88-2.34-3.2-2.74-10.15-3.45-20.78-2.15-31.89,2.27.77,4.39,2.02,6.36,3.76.31.28.73.78,1.26,1.52.63.88,1.15,1.12,1.57.73Z"/>
      <rect class="cls-27" x="160.39" y="159.48" width="5.84" height="5.64" rx=".88" ry=".88" transform="translate(-.41 324.19) rotate(-89.5)"/>
      <rect class="cls-27" x="136.99" y="159.71" width="5.66" height="5.19" rx=".91" ry=".91" transform="translate(-23.21 301.28) rotate(-89.7)"/>
      <rect class="cls-33" x="143.22" y="165.28" width="16.94" height="6.33" rx=".78" ry=".78"/>
      <rect class="cls-38" x="201.48" y="167.31" width="6.47" height="5.44" rx=".92" ry=".92" transform="translate(31.85 372.35) rotate(-89.2)"/>
      <path class="cls-27" d="M10.3,176.53c2.84,14.93,7.81,29.05,14.91,42.37l6.96,11.64c6.04,9.24,13.04,17.66,21.03,25.26-1.03,2.74-4.38,3.83-6.59,1.61-16.43-16.33-28.51-36.56-36.39-59.03-2.07-5.89-3.51-10.88-4.32-14.97.76-2.63,1.53-5.75,4.41-6.87Z"/>
      <rect class="cls-38" x="193.98" y="181.54" width="5.71" height="6.33" rx="1" ry="1"/>
      <rect class="cls-38" x="186.08" y="189.72" width="5.82" height="5.48" rx=".77" ry=".77" transform="translate(-7.06 377.73) rotate(-88.9)"/>
      <path class="cls-29" d="M100.84,228.53c-.98.95-1.19,1.68-.64,2.18,5.48,5,11.07,8.6,16.77,10.8,13.82,5.34,29.9,7.86,45.32,5.56,15.61-2.33,30.51-7.04,44.68-14.14,4.59-2.29,7.66-4.46,9.21-6.5,2.31-3.03,2.95-6.63,1.92-10.81.18-.46.5-.79.96-1,.32-.14.69-.02.87.28,2.71,4.6,2.81,11.73,1.73,16.35-.37,1.58-1.57,3.08-3.6,4.49-26.63,18.49-61.04,21.99-92.69,16.35-13.92-2.47-31.2-8.36-42.22-18.13-5.1-4.53-2.65-13.99.79-18.86.14-.21.43-.26.64-.11.03.02.06.05.09.08,4.44,5.43,9.82,9.92,16.15,13.46Z"/>
      <path class="cls-38" d="M218.11,215.61c1.03,4.18.39,7.78-1.92,10.81-1.55,2.04-4.62,4.21-9.21,6.5-14.17,7.1-29.07,11.82-44.68,14.14-15.42,2.29-31.5-.22-45.32-5.56-5.71-2.2-11.3-5.8-16.77-10.8-.55-.5-.34-1.23.64-2.18,21.72,10.85,44.81,14.36,69.29,10.53,13.23-2.07,25.01-6.26,35.34-12.58,3.71-2.27,7.92-5.89,12.64-10.87Z"/>
    </g>
  </g>
</svg>