<?xml version="1.0" encoding="UTF-8"?>
<svg id="_图层_2" data-name="图层 2" xmlns="http://www.w3.org/2000/svg" viewBox="0 0 306.19 314.21">
  <defs>
    <style>
      .cls-1 {
        stroke: #977252;
      }

      .cls-1, .cls-2, .cls-3, .cls-4, .cls-5, .cls-6, .cls-7, .cls-8, .cls-9, .cls-10, .cls-11, .cls-12, .cls-13, .cls-14, .cls-15, .cls-16, .cls-17, .cls-18, .cls-19, .cls-20, .cls-21, .cls-22, .cls-23, .cls-24, .cls-25, .cls-26 {
        fill: none;
        stroke-linejoin: round;
        stroke-width: 2.24px;
      }

      .cls-2 {
        stroke: #eed8b1;
      }

      .cls-3 {
        stroke: #e5c9b3;
      }

      .cls-27 {
        fill: #d2a883;
      }

      .cls-28 {
        fill: #e3c5a4;
      }

      .cls-4 {
        stroke: #98754d;
      }

      .cls-29 {
        fill: #afa497;
      }

      .cls-30 {
        fill: #e9ca98;
      }

      .cls-31 {
        fill: #f6eee0;
      }

      .cls-32 {
        fill: #f2e3c0;
      }

      .cls-5 {
        stroke: #9c7f66;
      }

      .cls-6 {
        stroke: #a28d86;
      }

      .cls-7 {
        stroke: #947058;
      }

      .cls-33 {
        fill: #fff;
      }

      .cls-8 {
        stroke: #d7ac85;
      }

      .cls-9 {
        stroke: #eed7ac;
      }

      .cls-34 {
        fill: #451a0c;
      }

      .cls-10 {
        stroke: #dbb794;
      }

      .cls-11 {
        stroke: #daae7f;
      }

      .cls-12 {
        stroke: #836555;
      }

      .cls-35 {
        fill: #c1b09d;
      }

      .cls-13 {
        stroke: #ebd5b7;
      }

      .cls-14 {
        stroke: #eddac2;
      }

      .cls-15 {
        stroke: #9e8476;
      }

      .cls-36 {
        fill: #f2e5ca;
      }

      .cls-16 {
        stroke: #885639;
      }

      .cls-17 {
        stroke: #f1e2d2;
      }

      .cls-18 {
        stroke: #e9d4c1;
      }

      .cls-19 {
        stroke: #debc98;
      }

      .cls-20 {
        stroke: #7a5f52;
      }

      .cls-21 {
        stroke: #e2c7a7;
      }

      .cls-22 {
        stroke: #f9f1e0;
      }

      .cls-23 {
        stroke: #8c6148;
      }

      .cls-24 {
        stroke: #f4ead5;
      }

      .cls-37 {
        fill: #ca9266;
      }

      .cls-25 {
        stroke: #9c806b;
      }

      .cls-38 {
        fill: #ebcf8e;
      }

      .cls-26 {
        stroke: #f4e9d0;
      }
    </style>
  </defs>
  <g id="_图层_1-2" data-name="图层 1">
    <g>
      <path class="cls-17" d="M17.56,98.13c-.09.58-.35,1.17-.78,1.77"/>
      <path class="cls-18" d="M16.78,99.9C2.71,131,.55,167.36,9.17,199.49c8.76,32.64,26.96,59.72,54.6,81.25"/>
      <path class="cls-6" d="M63.76,280.75c-.59,11.41,3.93,20.44,13.55,27.09,5.1,3.52,11.03,5.27,17.79,5.25,40.3-.14,80.6-.19,120.89-.13,6.45,0,12.23-1.73,17.36-5.21,9.23-6.28,13.61-15.17,13.14-26.68"/>
      <path class="cls-3" d="M246.49,281.06c10.56-8.05,19.91-17.51,28.07-28.38,32.19-42.93,39.48-99.73,19.16-149.45-16.92-41.43-50.58-71.61-92.86-86.14"/>
      <path class="cls-17" d="M200.86,17.09c-21.99-7.15-44.73-9.01-68.22-5.56-6.78.99-12.94,2.43-18.49,4.31"/>
      <path class="cls-6" d="M114.15,15.84c-7.16-12.12-22.57-19.33-35.48-11.38-5.94,3.66-26.86,16.99-62.78,40.02-4.56,2.92-7.62,5.31-9.18,7.15-5.48,6.5-6.94,15.96-4.36,23.84,2.61,7.99,8.59,16.76,15.21,22.67"/>
      <path class="cls-7" d="M114.15,15.84l3.77,5.92"/>
      <path class="cls-15" d="M117.93,21.76c3.22,5.28,4.74,10.81,4.54,16.57"/>
      <path class="cls-25" d="M122.47,38.33c-.51,8.57-4.33,15.14-11.46,19.72-22.76,14.59-45.54,29.15-68.43,43.55"/>
      <path class="cls-15" d="M42.58,101.6c-6.63,2.49-13.1,2.39-19.39-.29"/>
      <path class="cls-7" d="M23.19,101.31l-5.63-3.18"/>
      <path class="cls-14" d="M23.19,101.31c-3.21,8.37-5.94,16.89-8.2,25.55-8.18,31.37-3.91,65.6,9.81,94.16"/>
      <path class="cls-10" d="M35.01,239.71l2.48,12.97s0,.06-.04.07c-.03,0-.06,0-.07-.03-7.82-10.54-14.35-20.56-19.65-33.1-8.86-20.93-12.95-42.78-12.29-65.55.26-9.03,1.52-18.19,3.77-27.46,2.25-9.23,5.11-18.04,8.61-26.44.07-.16,0-.34-.17-.41-.06-.03-.14-.03-.2-.01l-.67.16"/>
      <path class="cls-24" d="M240.29,45.58c-1.79,1.15-3.75,1.98-5.87,2.48-.36.08-.73.01-1.04-.19-31.56-20.89-68.67-30.22-106.12-21.94-.81.18-2,.63-3.57,1.35-.3.14-.47.46-.41.78.65,3.57.38,6.99-.81,10.26"/>
      <path class="cls-2" d="M278.6,88.23l-3.44,3.92c-.3.35-.36.85-.15,1.25,2.29,4.45,4.71,8.78,6.39,13.29,11.1,29.86,12.4,60.1,3.88,90.72-1.37,4.94-3.1,9.88-5.17,14.82-2.8,6.65-5.01,11.4-6.65,14.25-8.03,14.03-18.21,26.36-30.53,36.98-.49.43-.8,1.02-.88,1.67-.1.86-.28,1.41-.53,1.66"/>
      <path class="cls-25" d="M241.53,266.78c-6.48-8.77-14.62-13.14-24.43-13.12-38.61.09-77.22.13-115.83.11-8.03,0-13.74.56-17.14,1.68-8.44,2.78-14.65,8.71-18.62,17.77"/>
      <path class="cls-21" d="M65.51,273.23c-11.91-9.59-22.08-20.76-30.5-33.51"/>
      <path class="cls-13" d="M35.01,239.71l-10.21-18.7"/>
      <path class="cls-24" d="M24.8,221.01c1.32.48,2.42.08,3.31-1.21.96-1.4,1.14-3.05.53-4.97-2.06-6.51-5.46-15.15-7.2-22.97-2.56-11.58-3.83-22.52-3.8-32.82.03-18.17,3.74-35.72,11.13-52.66.15-.34.49-.55.86-.54,5.45.22,9.76-1.19,12.95-4.24"/>
      <path class="cls-8" d="M200.86,17.09c-.13.13-.31.19-.54.17-.31-.02-.49,0-.53.06-.07.12-.11.24-.1.37,0,.11.08.2.18.22,27.53,9.39,50.11,24.27,67.73,44.64,4.81,5.56,9.52,12.47,14.13,20.75.07.1.04.24-.07.31-.06.04-.14.05-.21.02l-7.64-3.14"/>
      <path class="cls-13" d="M273.82,80.47c-2.36-2.98-4.76-6.03-7.22-9.16-7.59-9.71-16.36-18.29-26.31-25.73"/>
      <path class="cls-14" d="M240.29,45.58c-10.39-8.09-21.81-14.57-34.25-19.45-25.78-10.1-52.33-12.4-79.65-6.9-2.86.57-5.68,1.42-8.46,2.53"/>
      <path class="cls-23" d="M65.51,273.23l-1.75,7.52"/>
      <path class="cls-1" d="M244.92,273.28l-3.39-6.5"/>
      <path class="cls-16" d="M246.49,281.06l-1.57-7.78"/>
      <path class="cls-11" d="M244.92,273.28c15.29-12.82,27.46-27.78,36.51-44.87,9.14-17.27,14.55-35.75,16.24-55.45,2.51-29.45-3.85-57.69-19.08-84.73"/>
      <path class="cls-19" d="M278.6,88.23l-4.78-7.75"/>
      <path class="cls-5" d="M5.47,77.03c2.26,4.83,5.36,9.58,9.3,14.26,3.88,4.61,8.66,7.45,14.33,8.52,5.3.99,9.96.28,14-2.13,9.43-5.62,23.88-14.79,43.34-27.49"/>
      <path class="cls-1" d="M86.45,70.18c7.13-4.3,14.17-8.71,21.12-13.25,10.59-6.92,13.97-16.6,10.12-29.03-.75-2.42-2.52-5.68-5.32-9.77"/>
      <path class="cls-5" d="M112.36,18.13l-4.66-6.38"/>
      <path class="cls-6" d="M107.71,11.75c-9.05-9.62-18.99-11-29.82-4.13-21.11,13.38-42.2,26.81-63.26,40.27-9.68,6.18-13.78,18.49-9.15,29.13"/>
      <path class="cls-22" d="M107.71,11.75c-6.61-3.9-13.35-5.46-20.23-4.68-.34.04-.68.12-1.01.25-5.3,1.95-8.93,3.64-10.89,5.07-6.19,4.55-12.28,8.57-18.27,12.06-15.62,9.11-23.39,14.5-40.79,26.17-2.68,1.8-4.44,3.24-5.28,4.33-4.22,5.45-5.07,14.48-4.54,21.08.03.38-.08.66-.32.83-.23.16-.53.22-.9.16"/>
      <path class="cls-9" d="M112.36,18.13c-1.54,0-2.82-1.11-3.85-3.32-.26-.56-.81-1.2-1.63-1.91-.12-.1-.31-.09-.41.03-.06.07-.08.18-.05.27.39,1.28.72,2.12,1.01,2.53,8.05,11.41,12.9,26.42-.47,36.07-2.68,1.93-7.14,4.89-13.37,8.87-7.91,5.04-15.95,11.21-24.51,15.87-7.77,4.24-14.54,9.27-23.75,14.75-5.46,3.25-9.56,4.86-12.31,4.83-9.38-.08-14.3-5.44-20.44-11.96-.17-.16-.44-.16-.6.01-.12.13-.15.31-.08.47,5.42,10.7,14.22,15.15,26.39,13.36,2.2-.32,4.11-1.06,5.73-2.22,2.36-1.69,6.64-4.43,12.84-8.22,7.05-4.33,14.84-9.45,23.37-15.36,1.41-.98,3.49-1.65,6.23-2.01"/>
      <path class="cls-5" d="M64.86,42.45c3.38,6.48,5.73,11.55,9.56,17,1.05,1.49,3.07,1.94,4.66,1.03l.79-.46c1.62-.94,2.17-3.01,1.24-4.62-.02-.03-.03-.06-.05-.09l-15.17-24.5c-.53-.86-1.59-1.25-2.56-.95-1.63.51-3.42,1.53-5.38,3.08-.69.54-1.03,1.43-.87,2.31l3.54,19.24c.02.13-.06.25-.19.27-.07.01-.14,0-.19-.05l-15.24-11.25c-.56-.41-1.22-.65-1.9-.7-2.22-.22-5.67,2.6-6.92,4.26-.2.28-.23.65-.06.94,4.36,7.63,9.24,15.69,14.63,24.16,2.29,3.6,4.55,4.8,7.53,1.32.74-.86.87-2.08.35-3.09-3.16-6.07-7.08-11.49-11.47-17.1-.06-.09-.05-.22.04-.28.07-.05.16-.05.23,0l15.59,12.22c.54.42,1.22.6,1.89.49,2.72-.43,3.83-1.99,3.33-4.68-1.01-5.48-2.26-11.61-3.75-18.41-.02-.12.06-.23.17-.25.09-.01.17.02.22.1"/>
      <path class="cls-25" d="M213.66,213.14c11.12,5.51,20.79-6,13.78-16.26-.27-.39-.28-.9-.03-1.3,11.17-18.09,15.89-40.59,11.28-61.5-2.67-12.13-7.9-23.19-15.7-33.17-.41-.52-.46-1.25-.12-1.82,5.04-8.71,2.04-19.94-7.44-24.1-7.71-3.37-14.46-1.78-20.24,4.77-.21.23-.54.31-.83.18-19.63-8.68-38.99-10.32-58.09-4.9-12.88,3.65-24.52,9.7-34.9,18.16-.41.34-.98.39-1.44.12-9.62-5.51-19.27,5.18-13.64,14.52.23.38.22.85-.02,1.23-1.1,1.72-2.01,3.08-2.72,4.1-4.14,5.84-7.42,12.6-9.85,20.28-6.49,20.56-6.21,40.93,3.59,60.35,1.95,3.86,4.21,7.31,6.79,10.35.33.39.33.95.02,1.34-11.41,14.58,8.84,32.13,21.55,19.81.25-.25.64-.3.94-.12,3.89,2.16,6.58,3.59,8.07,4.27,33.09,15.25,71.94,8.94,98.22-16.19.21-.2.53-.25.79-.11"/>
      <path class="cls-25" d="M210.46,209.81c-5.49-9.25,2.74-20.06,13.15-15.62.26.11.55.01.69-.22,17.26-28.4,16.91-63.91-3.89-90.44-.23-.3-.67-.36-.97-.13-.02.01-.03.02-.05.04-6.73,6.09-16.56,5.56-23.06-.78-4.92-4.8-6.23-10.98-3.93-18.52.19-.61-.12-1.27-.72-1.53-31.13-13.55-61.8-7.25-88.19,13.32-.32.25-.44.69-.29,1.09,3.6,8.93-2.84,16.77-12.07,14.13-.97-.28-2,.09-2.57.91-11.97,16.94-17.09,35.56-15.38,55.84.95,11.34,5.39,22.69,13.32,34.06.24.35.72.45,1.09.22,13.83-8.63,27.08,4.93,20.87,19.15-.15.37-.01.79.32.98,33.4,19.45,72.96,14.48,101.5-11.22.36-.32.44-.85.19-1.26"/>
      <path class="cls-12" d="M212.49,77.42c-6.99-2.23-14.51,1.79-16.81,8.98s1.51,14.82,8.5,17.06h0c6.99,2.23,14.51-1.79,16.81-8.98,2.29-7.19-1.51-14.82-8.5-17.06h0"/>
      <path class="cls-12" d="M96.94,95.89c-3.16-1.37-6.87.17-8.28,3.44h0c-1.41,3.27,0,7.02,3.16,8.39h0c3.16,1.37,6.87-.17,8.28-3.44t0,0c1.41-3.27,0-7.02-3.16-8.39"/>
      <path class="cls-12" d="M220.23,196.73c-3.76-.52-7.24,2.23-7.78,6.14h0c-.54,3.91,2.08,7.49,5.84,8.01h0c3.76.51,7.24-2.23,7.78-6.14t0,0c.54-3.91-2.08-7.49-5.84-8.01h0"/>
      <path class="cls-20" d="M99.03,203.67c-5.77-1.81-11.95,1.51-13.8,7.41-1.85,5.9,1.33,12.16,7.1,13.96s11.95-1.51,13.8-7.41c1.85-5.9-1.33-12.16-7.1-13.96"/>
      <path class="cls-25" d="M145.57,206.07c2.36,7.69,11.25,9.55,16.66,3.68.47-.51,1.2-1.96,2.18-4.35.13-.32.41-.56.75-.65,24.91-6.5,41.49-26.1,41.92-52.28.1-5.64-1.2-11.79-3.89-18.45-.19-.45-.11-.97.19-1.35,6.71-8.63-1.66-19.61-11.9-15.52-.35.14-.74.06-1.02-.19-6.29-5.86-13.59-9.8-21.89-11.83-27.47-6.73-54.78,9.87-63.52,36.35-5.56,16.86-1.86,35.28,10.22,48.3,7.6,8.18,17.44,13.39,29.52,15.61.36.07.66.34.77.69"/>
      <path class="cls-25" d="M199.32,135.31c-9.91,3.17-16.64-6.37-11.72-15.16.25-.45.16-1.02-.22-1.37-6.33-5.79-13.89-9.45-22.67-10.98-14.91-2.59-28.21,1.04-39.9,10.9-14.2,11.96-21.44,28.71-17.94,47.12,3.59,18.9,19.17,32.53,37.79,36.13.38.08.76-.14.88-.51,3.18-9.3,15.03-10.22,18.37-.76.13.36.51.57.88.48,29.01-7.24,46.44-37.03,35.16-65.55-.1-.26-.38-.39-.64-.3"/>
      <path class="cls-23" d="M202.28,126.16c0-3.54-2.87-6.4-6.4-6.4s-6.4,2.87-6.4,6.4c0,3.54,2.87,6.4,6.4,6.4s6.4-2.87,6.4-6.4"/>
      <path class="cls-23" d="M160.8,203.72c0-3.28-2.66-5.93-5.93-5.93s-5.93,2.66-5.93,5.93,2.66,5.93,5.93,5.93,5.93-2.66,5.93-5.93"/>
      <path class="cls-25" d="M174.41,142.04c-6.83-10.75-21.2-13.86-32.1-6.94,0,0,0,0,0,0-10.91,6.92-14.21,21.25-7.39,32h0c6.83,10.75,21.2,13.86,32.1,6.94,0,0,0,0,0,0,10.91-6.92,14.21-21.25,7.39-32h0"/>
      <path class="cls-4" d="M168.75,140.5c-7.59-7.61-20.04-7.5-27.82.25-7.78,7.75-7.94,20.21-.35,27.82,7.59,7.61,20.04,7.5,27.82-.25,7.78-7.75,7.94-20.21.35-27.82"/>
      <path class="cls-5" d="M67.99,289.44c.73,4.37,2.94,8.54,6.64,12.5,5.25,5.63,12.09,8.43,20.5,8.43,54.74-.05,93.59-.04,116.57.03,4.95.01,8.71-.36,11.27-1.12,8.92-2.65,17.29-10.23,19.53-18.98,2.58-10.09.25-18.56-6.98-25.41"/>
      <path class="cls-15" d="M235.51,264.89c-5.8-5.51-12.41-8.29-19.81-8.34-16.7-.1-52.32-.11-106.88-.02-11.56.02-18.78.47-21.66,1.34-13.2,3.98-22.76,17.15-19.17,31.57"/>
      <path class="cls-26" d="M235.51,264.89c-7.64-3.5-14.41-5.21-20.3-5.15-10.42.13-20.25.06-29.5-.21-9.58-.28-19.52.45-30.01.35-16.29-.16-28.28-.18-35.99-.03-5.7.11-9.8.11-12.3,0-13.22-.58-25.96.77-33.15,13.09-.57.98-1.58,3.75-3.02,8.29-.85,2.69-1.94,5.43-3.26,8.21"/>
      <path class="cls-5" d="M125.26,280.47h21.49c.95,0,1.74-.74,1.8-1.69.12-2.08.14-5.76.06-11.03-.03-1.89-.91-2.88-2.65-2.97-.7-.04-9.32-.03-25.85.01-.96,0-1.75.74-1.84,1.69-.31,3.48-.39,7.06-.22,10.77.07,1.5.59,2.6,1.58,3.31.33.25.41.71.16,1.04,0,0-.01.02-.02.02l-5.56,7.11c-.42.53-.33,1.31.21,1.73,0,0,0,0,0,0l1.41,1.11c.72.57,1.75.54,2.43-.08l2.95-2.67c.28-.25.63-.4,1-.43,3.51-.22,6.12-.22,7.82,0,.67.09,1.14.71,1.04,1.37-.08.6-.59,1.05-1.2,1.06h-8.84c-.77,0-1.42.56-1.56,1.32l-.09.55c-.15.89.45,1.73,1.34,1.88.09.01.18.02.27.02h8.89c.54,0,1.01.39,1.11.93l.15.74c.11.6-.29,1.18-.89,1.29-.07.01-.13.02-.2.02h-14.69c-.96,0-1.74.77-1.74,1.73,0,.11,0,.21.03.32l.13.74c.16.87.91,1.5,1.79,1.5l35.69.02c1.15,0,2.08-.94,2.08-2.09,0-.01,0-.02,0-.03v-.04c-.06-1.23-1.07-2.2-2.31-2.2h-13.83c-.61,0-1.12-.43-1.23-1.03l-.07-.36c-.13-.71.34-1.39,1.05-1.52.08-.01.16-.02.23-.02h10.02c.56,0,1.01-.45,1-1,0-.06,0-.12-.02-.18l-.29-1.62c-.11-.59-.62-1.02-1.22-1.02h-9.37c-.56,0-1.04-.4-1.14-.95l-.1-.54c-.1-.53.25-1.04.78-1.14.06-.01.12-.02.17-.02h11.64c.99,0,1.79-.8,1.79-1.78h0v-.55c0-1.05-.85-1.89-1.89-1.89h-11.11c-.48,0-.91-.3-1.07-.75-.66-1.81-2.32-2.27-5-1.4-.43.14-.75.51-.83.96l-.06.35c-.08.47-.48.81-.96.81h-4.34c-.32,0-.58-.25-.59-.57,0-.05,0-.09.02-.14.16-.71.16-1.32.01-1.84-.1-.35.11-.72.46-.81.06-.02.12-.02.18-.02"/>
      <path class="cls-5" d="M177.82,301.57c4.66,0,8.81.06,12.45.18.41,0,1.03.27,1.87.79,1.52.94,3.42.94,4.3-.64.18-.32.27-.69.27-1.06-.04-8.61-.04-19.46,0-32.55,0-2.34-1.12-3.47-3.38-3.41h-15.51c-10.15,0-15.31,0-15.5-.01-2.26-.05-3.39,1.09-3.38,3.42.04,13.09.03,23.94-.01,32.55,0,.37.09.74.27,1.06.87,1.58,2.78,1.58,4.3.64.84-.52,1.46-.79,1.87-.81,3.65-.11,7.8-.17,12.45-.17"/>
      <path class="cls-9" d="M76.98,300.86c2.51,6.01,12.39,8.06,18.58,7.93,35.31-.66,74.06-.1,109.11,0,9.41.03,15.06-.15,16.93-.55,5.24-1.1,9.99-3.97,14.25-8.61,5.18-5.62,6.21-11.86,5.53-19.12-.41-4.39-1.87-8.15-4.36-11.28-.27-.34-.68-.54-1.11-.54h-1.1c-.25,0-.45.19-.45.44,0,.09.02.18.07.25,11.36,17.3-1.53,36.5-20.66,36.98-9.31.25-17.55-.54-25.49.06-11.08.81-23.97-.25-35.45.16-4.8.16-14.01.17-27.65.01-9.95-.11-23.26.4-34.49-.55-4.17-.35-8.64-2.16-13.42-5.43-.09-.06-.21-.03-.26.05-.04.05-.04.12-.02.18"/>
      <path class="cls-25" d="M143.25,269.8c0-.62-.5-1.12-1.12-1.12h-17.79c-.62,0-1.12.5-1.12,1.12v.04c0,.62.5,1.12,1.12,1.12h17.79c.62,0,1.12-.5,1.12-1.12v-.04"/>
      <path class="cls-25" d="M143.32,275.61c0-.62-.5-1.13-1.12-1.14h0l-17.75-.09c-.62,0-1.13.5-1.14,1.12h0s0,.04,0,.04c0,.62.5,1.13,1.12,1.14l17.75.09c.62,0,1.13-.5,1.14-1.12h0s0-.04,0-.04"/>
      <path class="cls-15" d="M186.32,297.12l4.3-.24c.35-.02.63-.31.63-.66v-25.87c0-.49-.4-.88-.88-.88h-25.42c-.43,0-.78.35-.78.78h0v12.81c0,.09.07.16.15.16.01,0,.02,0,.04,0l8.84-1.62c.24-.04.4-.27.35-.51-.02-.12-.09-.23-.19-.3l-2.58-1.66c-.18-.12-.42-.1-.58.04-1.4,1.25-2.83.83-4.32-1.24-.39-.55-.27-1.31.28-1.7.03-.02.05-.04.08-.05,2.61-1.59,4.83-3.42,6.65-5.49,1.3-1.47,2.62-1.23,3.98-.28.39.28.54.8.36,1.24l-.38.91c-.04.09,0,.2.1.23.02,0,.05.01.07.01h10.63c.59,0,1.06.48,1.06,1.06,0,.15-.03.29-.09.42-1.5,3.47-3.28,5.54-5.34,6.2-.25.08-.39.34-.31.59.05.16.18.28.34.32l6.62,1.72c.68.17,1.1.87.92,1.55-.03.13-.09.26-.16.37l-.35.55c-.83,1.29-2.46,1.8-3.87,1.22l-7.23-2.99c-.44-.19-.95-.19-1.4-.01l-8.43,3.41c-.27.11-.55.18-.83.19-1.51.07-2.86-.47-4.04-1.6-.1-.09-.26-.09-.35.01-.04.05-.07.1-.07.17v10.43c0,.38.31.68.68.68h18.13c.26-.02.46-.24.44-.5-.01-.19-.14-.36-.33-.42-4.43-1.07-8.8-1.81-13.12-2.24-.89-.08-1.45-.35-1.68-.82-.45-.89-.17-1.97.61-2.4.16-.09.33-.14.51-.17,5.14-.6,11.65,1.25,16.85,2.67.75.2,1.2.98.99,1.74-.03.1-.06.19-.11.28-.16.32-.52.72-1.06,1.21-.15.14-.16.37-.02.52.08.08.19.13.3.13"/>
      <path class="cls-15" d="M181.92,276.34l-7.14-.07s-.02,0-.02.02v.04c-.01,1.03,1.49,1.87,3.37,1.89h.4c1.87.02,3.4-.8,3.41-1.82v-.04s-.01-.02-.02-.02"/>
      <path class="cls-15" d="M172.41,287.03c-.2,1.13,2.25,2.5,5.46,3.05,0,0,0,0,0,0,3.21.55,5.97.09,6.17-1.05h0c.2-1.13-2.25-2.5-5.46-3.05,0,0,0,0,0,0-3.21-.55-5.97-.09-6.17,1.05h0"/>
      <path class="cls-34" d="M114.15,15.84l3.77,5.92c3.22,5.28,4.74,10.81,4.54,16.57-.51,8.57-4.33,15.14-11.46,19.72-22.76,14.59-45.54,29.15-68.43,43.55-6.63,2.49-13.1,2.39-19.39-.29l-5.63-3.18c-6.61-5.91-12.6-14.68-15.21-22.67-2.57-7.88-1.12-17.33,4.36-23.84,1.56-1.84,4.62-4.23,9.18-7.15C51.81,21.45,72.73,8.11,78.67,4.46c12.91-7.95,28.32-.74,35.48,11.38ZM5.47,77.03c2.26,4.83,5.36,9.58,9.3,14.26,3.88,4.61,8.66,7.45,14.33,8.52,5.3.99,9.96.28,14-2.13,9.43-5.62,23.88-14.79,43.34-27.49,7.13-4.3,14.17-8.71,21.12-13.25,10.59-6.92,13.97-16.6,10.12-29.03-.75-2.42-2.52-5.68-5.32-9.77l-4.66-6.38c-9.05-9.62-18.99-11-29.82-4.13-21.11,13.38-42.2,26.81-63.26,40.27-9.68,6.18-13.78,18.49-9.15,29.13Z"/>
      <path class="cls-33" d="M107.71,11.75c-6.61-3.9-13.35-5.46-20.23-4.68-.34.04-.68.12-1.01.25-5.3,1.95-8.93,3.64-10.89,5.07-6.19,4.55-12.28,8.57-18.27,12.06-15.62,9.11-23.39,14.5-40.79,26.17-2.68,1.8-4.44,3.24-5.28,4.33-4.22,5.45-5.07,14.48-4.54,21.08.03.38-.08.66-.32.83-.23.16-.53.22-.9.16-4.62-10.64-.53-22.95,9.15-29.13,21.06-13.47,42.15-26.89,63.26-40.27,10.83-6.87,20.77-5.49,29.82,4.13Z"/>
      <path class="cls-32" d="M107.71,11.75l4.66,6.38c-1.54,0-2.82-1.11-3.85-3.32-.26-.56-.81-1.2-1.63-1.91-.12-.1-.31-.09-.41.03-.06.07-.08.18-.05.27.39,1.28.72,2.12,1.01,2.53,8.05,11.41,12.9,26.42-.47,36.07-2.68,1.93-7.14,4.89-13.37,8.87-7.91,5.04-15.95,11.21-24.51,15.87-7.77,4.24-14.54,9.27-23.75,14.75-5.46,3.25-9.56,4.86-12.31,4.83-9.38-.08-14.3-5.44-20.44-11.96-.17-.16-.44-.16-.6.01-.12.13-.15.31-.08.47,5.42,10.7,14.22,15.15,26.39,13.36,2.2-.32,4.11-1.06,5.73-2.22,2.36-1.69,6.64-4.43,12.84-8.22,7.05-4.33,14.84-9.45,23.37-15.36,1.41-.98,3.49-1.65,6.23-2.01-19.46,12.7-33.91,21.87-43.34,27.49-4.04,2.41-8.7,3.12-14,2.13-5.68-1.07-10.46-3.91-14.33-8.52-3.94-4.68-7.04-9.43-9.3-14.26.37.06.66,0,.9-.16.25-.17.35-.45.32-.83-.53-6.6.32-15.63,4.54-21.08.84-1.09,2.6-2.53,5.28-4.33,17.4-11.67,25.17-17.07,40.79-26.17,5.99-3.49,12.08-7.51,18.27-12.06,1.95-1.43,5.58-3.12,10.89-5.07.33-.13.67-.21,1.01-.25,6.88-.78,13.62.78,20.23,4.68ZM64.86,42.45c3.38,6.48,5.73,11.55,9.56,17,1.05,1.49,3.07,1.94,4.66,1.03l.79-.46c1.62-.94,2.17-3.01,1.24-4.62-.02-.03-.03-.06-.05-.09l-15.17-24.5c-.53-.86-1.59-1.25-2.56-.95-1.63.51-3.42,1.53-5.38,3.08-.69.54-1.03,1.43-.87,2.31l3.54,19.24c.02.13-.06.25-.19.27-.07.01-.14,0-.19-.05l-15.24-11.25c-.56-.41-1.22-.65-1.9-.7-2.22-.22-5.67,2.6-6.92,4.26-.2.28-.23.65-.06.94,4.36,7.63,9.24,15.69,14.63,24.16,2.29,3.6,4.55,4.8,7.53,1.32.74-.86.87-2.08.35-3.09-3.16-6.07-7.08-11.49-11.47-17.1-.06-.09-.05-.22.04-.28.07-.05.16-.05.23,0l15.59,12.22c.54.42,1.22.6,1.89.49,2.72-.43,3.83-1.99,3.33-4.68-1.01-5.48-2.26-11.61-3.75-18.41-.02-.12.06-.23.17-.25.09-.01.17.02.22.1Z"/>
      <path class="cls-28" d="M200.86,17.09c-.13.13-.31.19-.54.17-.31-.02-.49,0-.53.06-.07.12-.11.24-.1.37,0,.11.08.2.18.22,27.53,9.39,50.11,24.27,67.73,44.64,4.81,5.56,9.52,12.47,14.13,20.75.07.1.04.24-.07.31-.06.04-.14.05-.21.02l-7.64-3.14c-2.36-2.98-4.76-6.03-7.22-9.16-7.59-9.71-16.36-18.29-26.31-25.73-10.39-8.09-21.81-14.57-34.25-19.45-25.78-10.1-52.33-12.4-79.65-6.9-2.86.57-5.68,1.42-8.46,2.53l-3.77-5.92c5.54-1.88,11.71-3.32,18.49-4.31,23.48-3.45,46.22-1.59,68.22,5.56Z"/>
      <path class="cls-30" d="M112.36,18.13c2.8,4.09,4.57,7.34,5.32,9.77,3.85,12.43.48,22.1-10.12,29.03-6.95,4.54-13.98,8.95-21.12,13.25-2.75.37-4.82,1.04-6.23,2.01-8.53,5.92-16.32,11.04-23.37,15.36-6.2,3.8-10.48,6.54-12.84,8.22-1.62,1.16-3.53,1.89-5.73,2.22-12.17,1.79-20.96-2.66-26.39-13.36-.1-.21,0-.47.21-.56.16-.07.34-.04.47.08,6.14,6.52,11.07,11.88,20.44,11.96,2.75.02,6.85-1.59,12.31-4.83,9.21-5.48,15.98-10.51,23.75-14.75,8.56-4.66,16.6-10.83,24.51-15.87,6.24-3.98,10.69-6.94,13.37-8.87,13.37-9.65,8.52-24.65.47-36.07-.28-.41-.62-1.25-1.01-2.53-.05-.15.03-.31.18-.35.1-.03.2-.01.28.05.83.72,1.37,1.35,1.63,1.91,1.03,2.22,2.31,3.32,3.85,3.32Z"/>
      <path class="cls-31" d="M240.29,45.58c-1.79,1.15-3.75,1.98-5.87,2.48-.36.08-.73.01-1.04-.19-31.56-20.89-68.67-30.22-106.12-21.94-.81.18-2,.63-3.57,1.35-.3.14-.47.46-.41.78.65,3.57.38,6.99-.81,10.26.19-5.77-1.32-11.29-4.54-16.57,2.78-1.11,5.6-1.95,8.46-2.53,27.33-5.5,53.88-3.2,79.65,6.9,12.44,4.88,23.86,11.36,34.25,19.45Z"/>
      <path class="cls-37" d="M246.49,281.06l-1.57-7.78c15.29-12.82,27.46-27.78,36.51-44.87,9.14-17.27,14.55-35.75,16.24-55.45,2.51-29.45-3.85-57.69-19.08-84.73l-4.78-7.75,7.64,3.14c.11.05.25,0,.3-.11.03-.07.02-.15-.02-.21-4.61-8.27-9.32-15.19-14.13-20.75-17.63-20.37-40.21-35.25-67.73-44.64-.1-.03-.17-.12-.18-.22,0-.13.03-.25.1-.37.04-.06.21-.08.53-.06.22.02.4-.03.54-.17,42.28,14.54,75.94,44.72,92.86,86.14,20.32,49.72,13.04,106.52-19.16,149.45-8.15,10.87-17.51,20.33-28.07,28.38Z"/>
      <path class="cls-36" d="M240.29,45.58c9.94,7.44,18.71,16.01,26.31,25.73,2.45,3.13,4.86,6.19,7.22,9.16l4.78,7.75-3.44,3.92c-.3.35-.36.85-.15,1.25,2.29,4.45,4.71,8.78,6.39,13.29,11.1,29.86,12.4,60.1,3.88,90.72-1.37,4.94-3.1,9.88-5.17,14.82-2.8,6.65-5.01,11.4-6.65,14.25-8.03,14.03-18.21,26.36-30.53,36.98-.49.43-.8,1.02-.88,1.67-.1.86-.28,1.41-.53,1.66-6.48-8.77-14.62-13.14-24.43-13.12-38.61.09-77.22.13-115.83.11-8.03,0-13.74.56-17.14,1.68-8.44,2.78-14.65,8.71-18.62,17.77-11.91-9.59-22.08-20.76-30.5-33.51l-10.21-18.7c1.32.48,2.42.08,3.31-1.21.96-1.4,1.14-3.05.53-4.97-2.06-6.51-5.46-15.15-7.2-22.97-2.56-11.58-3.83-22.52-3.8-32.82.03-18.17,3.74-35.72,11.13-52.66.15-.34.49-.55.86-.54,5.45.22,9.76-1.19,12.95-4.24,22.88-14.4,45.67-28.96,68.43-43.55,7.13-4.57,10.95-11.15,11.46-19.72,1.19-3.27,1.45-6.69.81-10.26-.05-.32.12-.64.41-.78,1.57-.72,2.76-1.17,3.57-1.35,37.44-8.28,74.56,1.05,106.12,21.94.31.2.68.27,1.04.19,2.13-.51,4.08-1.34,5.87-2.48ZM213.66,213.14c11.12,5.51,20.79-6,13.78-16.26-.27-.39-.28-.9-.03-1.3,11.17-18.09,15.89-40.59,11.28-61.5-2.67-12.13-7.9-23.19-15.7-33.17-.41-.52-.46-1.25-.12-1.82,5.04-8.71,2.04-19.94-7.44-24.1-7.71-3.37-14.46-1.78-20.24,4.77-.21.23-.54.31-.83.18-19.63-8.68-38.99-10.32-58.09-4.9-12.88,3.65-24.52,9.7-34.9,18.16-.41.34-.98.39-1.44.12-9.62-5.51-19.27,5.18-13.64,14.52.23.38.22.85-.02,1.23-1.1,1.72-2.01,3.08-2.72,4.1-4.14,5.84-7.42,12.6-9.85,20.28-6.49,20.56-6.21,40.93,3.59,60.35,1.95,3.86,4.21,7.31,6.79,10.35.33.39.33.95.02,1.34-11.41,14.58,8.84,32.13,21.55,19.81.25-.25.64-.3.94-.12,3.89,2.16,6.58,3.59,8.07,4.27,33.09,15.25,71.94,8.94,98.22-16.19.21-.2.53-.25.79-.11Z"/>
      <path class="cls-34" d="M64.86,42.45c-.06-.1-.19-.13-.29-.07-.07.05-.11.13-.1.22,1.48,6.8,2.73,12.93,3.75,18.41.49,2.69-.62,4.24-3.33,4.68-.67.11-1.36-.07-1.89-.49l-15.59-12.22c-.08-.07-.2-.05-.27.04-.05.07-.05.17,0,.24,4.39,5.61,8.31,11.03,11.47,17.1.53,1.01.39,2.23-.35,3.09-2.98,3.48-5.24,2.28-7.53-1.32-5.39-8.47-10.26-16.53-14.63-24.16-.17-.29-.15-.66.06-.94,1.24-1.67,4.7-4.49,6.92-4.26.69.05,1.35.3,1.9.7l15.24,11.25c.1.08.25.07.33-.03.04-.05.06-.12.05-.19l-3.54-19.24c-.16-.87.18-1.76.87-2.31,1.96-1.54,3.76-2.57,5.38-3.08.97-.3,2.03.09,2.56.95l15.17,24.5c.98,1.59.49,3.67-1.1,4.66-.03.02-.06.04-.09.05l-.79.46c-1.58.91-3.6.47-4.66-1.03-3.83-5.45-6.18-10.52-9.56-17Z"/>
      <path class="cls-34" d="M213.66,213.14c-.26-.14-.58-.09-.79.11-26.27,25.13-65.13,31.44-98.22,16.19-1.48-.69-4.17-2.11-8.07-4.27-.3-.17-.69-.12-.94.12-12.71,12.32-32.97-5.23-21.55-19.81.31-.4.3-.96-.02-1.34-2.58-3.04-4.85-6.49-6.79-10.35-9.8-19.42-10.08-39.79-3.59-60.35,2.42-7.68,5.71-14.44,9.85-20.28.71-1.01,1.62-2.38,2.72-4.1.24-.38.25-.85.02-1.23-5.63-9.34,4.02-20.03,13.64-14.52.46.26,1.03.21,1.44-.12,10.38-8.46,22.02-14.51,34.9-18.16,19.1-5.42,38.46-3.78,58.09,4.9.29.13.62.06.83-.18,5.78-6.55,12.53-8.14,20.24-4.77,9.48,4.16,12.48,15.4,7.44,24.1-.34.58-.29,1.3.12,1.82,7.8,9.98,13.03,21.04,15.7,33.17,4.61,20.91-.11,43.41-11.28,61.5-.24.4-.23.91.03,1.3,7.02,10.26-2.65,21.77-13.78,16.26ZM210.46,209.81c-5.49-9.25,2.74-20.06,13.15-15.62.26.11.55.01.69-.22,17.26-28.4,16.91-63.91-3.89-90.44-.23-.3-.67-.36-.97-.13-.02.01-.03.02-.05.04-6.73,6.09-16.56,5.56-23.06-.78-4.92-4.8-6.23-10.98-3.93-18.52.19-.61-.12-1.27-.72-1.53-31.13-13.55-61.8-7.25-88.19,13.32-.32.25-.44.69-.29,1.09,3.6,8.93-2.84,16.77-12.07,14.13-.97-.28-2,.09-2.57.91-11.97,16.94-17.09,35.56-15.38,55.84.95,11.34,5.39,22.69,13.32,34.06.24.35.72.45,1.09.22,13.83-8.63,27.08,4.93,20.87,19.15-.15.37-.01.79.32.98,33.4,19.45,72.96,14.48,101.5-11.22.36-.32.44-.85.19-1.26ZM212.49,77.42c-6.99-2.23-14.51,1.79-16.81,8.98s1.51,14.82,8.5,17.06h0c6.99,2.23,14.51-1.79,16.81-8.98,2.29-7.19-1.51-14.82-8.5-17.06h0ZM96.94,95.89c-3.16-1.37-6.87.17-8.28,3.44h0c-1.41,3.27,0,7.02,3.16,8.39h0c3.16,1.37,6.87-.17,8.28-3.44t0,0c1.41-3.27,0-7.02-3.16-8.39ZM220.23,196.73c-3.76-.52-7.24,2.23-7.78,6.14h0c-.54,3.91,2.08,7.49,5.84,8.01h0c3.76.51,7.24-2.23,7.78-6.14t0,0c.54-3.91-2.08-7.49-5.84-8.01h0ZM99.03,203.67c-5.77-1.81-11.95,1.51-13.8,7.41-1.85,5.9,1.33,12.16,7.1,13.96s11.95-1.51,13.8-7.41c1.85-5.9-1.33-12.16-7.1-13.96Z"/>
      <path class="cls-36" d="M210.27,211.08c-28.54,25.7-68.09,30.67-101.5,11.22-.34-.2-.48-.62-.32-.98,6.21-14.21-7.04-27.77-20.87-19.15-.36.23-.84.13-1.09-.22-7.92-11.37-12.36-22.72-13.32-34.06-1.72-20.28,3.41-38.9,15.38-55.84.58-.82,1.61-1.18,2.57-.91,9.23,2.64,15.68-5.2,12.07-14.13-.15-.39-.03-.83.29-1.09,26.39-20.57,57.06-26.87,88.19-13.32.6.26.9.92.72,1.53-2.31,7.54-1,13.72,3.93,18.52,6.5,6.34,16.34,6.87,23.06.78.28-.26.72-.24.98.04.01.01.03.03.04.05,20.8,26.53,21.15,62.04,3.89,90.44-.14.24-.44.33-.69.22-10.41-4.44-18.64,6.37-13.15,15.62.25.42.17.95-.19,1.26ZM145.57,206.07c2.36,7.69,11.25,9.55,16.66,3.68.47-.51,1.2-1.96,2.18-4.35.13-.32.41-.56.75-.65,24.91-6.5,41.49-26.1,41.92-52.28.1-5.64-1.2-11.79-3.89-18.45-.19-.45-.11-.97.19-1.35,6.71-8.63-1.66-19.61-11.9-15.52-.35.14-.74.06-1.02-.19-6.29-5.86-13.59-9.8-21.89-11.83-27.47-6.73-54.78,9.87-63.52,36.35-5.56,16.86-1.86,35.28,10.22,48.3,7.6,8.18,17.44,13.39,29.52,15.61.36.07.66.34.77.69Z"/>
      <ellipse class="cls-35" cx="208.33" cy="90.43" rx="13.66" ry="13.28" transform="translate(58.84 261.41) rotate(-72.3)"/>
      <path class="cls-30" d="M244.92,273.28l-3.39-6.5c.25-.25.42-.8.53-1.66.08-.65.39-1.24.88-1.67,12.32-10.62,22.49-22.95,30.53-36.98,1.63-2.85,3.85-7.6,6.65-14.25,2.07-4.94,3.8-9.88,5.17-14.82,8.51-30.62,7.22-60.86-3.88-90.72-1.68-4.51-4.1-8.84-6.39-13.29-.22-.4-.16-.9.15-1.25l3.44-3.92c15.23,27.04,21.59,55.29,19.08,84.73-1.69,19.69-7.1,38.18-16.24,55.45-9.05,17.09-21.22,32.05-36.51,44.87Z"/>
      <ellipse class="cls-35" cx="94.38" cy="101.8" rx="6.45" ry="6.23" transform="translate(-36.53 147.99) rotate(-66.6)"/>
      <path class="cls-28" d="M17.56,98.13l5.63,3.18c-3.21,8.37-5.94,16.89-8.2,25.55-8.18,31.37-3.91,65.6,9.81,94.16l10.21,18.7,2.48,12.97s0,.06-.04.07c-.03,0-.06,0-.07-.03-7.82-10.54-14.35-20.56-19.65-33.1-8.86-20.93-12.95-42.78-12.29-65.55.26-9.03,1.52-18.19,3.77-27.46,2.25-9.23,5.11-18.04,8.61-26.44.07-.16,0-.34-.17-.41-.06-.03-.14-.03-.2-.01l-.67.16c.43-.6.69-1.19.78-1.77Z"/>
      <path class="cls-27" d="M35.01,239.71c8.42,12.76,18.59,23.93,30.5,33.51l-1.75,7.52c-27.64-21.53-45.84-48.61-54.6-81.25-8.62-32.14-6.46-68.5,7.61-99.59l.67-.16c.17-.04.34.05.38.22.02.07.01.14-.01.2-3.49,8.4-6.36,17.21-8.61,26.44-2.25,9.27-3.51,18.43-3.77,27.46-.66,22.77,3.43,44.62,12.29,65.55,5.3,12.54,11.83,22.56,19.65,33.1.02.03.06.04.09.02.02-.01.03-.04.02-.06l-2.48-12.97Z"/>
      <path class="cls-31" d="M23.19,101.31c6.3,2.69,12.76,2.78,19.39.29-3.19,3.05-7.5,4.46-12.95,4.24-.37-.01-.71.2-.86.54-7.39,16.94-11.1,34.5-11.13,52.66-.02,10.3,1.25,21.24,3.8,32.82,1.73,7.82,5.14,16.46,7.2,22.97.61,1.92.44,3.57-.53,4.97-.89,1.29-1.99,1.69-3.31,1.21-13.72-28.56-17.99-62.79-9.81-94.16,2.26-8.66,4.99-17.18,8.2-25.55Z"/>
      <path class="cls-34" d="M144.79,205.38c-12.08-2.22-21.92-7.43-29.52-15.61-12.07-13.01-15.78-31.43-10.22-48.3,8.74-26.48,36.04-43.07,63.52-36.35,8.3,2.03,15.6,5.97,21.89,11.83.27.25.67.33,1.02.19,10.24-4.08,18.61,6.89,11.9,15.52-.3.39-.38.91-.19,1.35,2.69,6.66,3.99,12.81,3.89,18.45-.43,26.19-17.01,45.78-41.92,52.28-.34.08-.62.33-.75.65-.98,2.39-1.71,3.85-2.18,4.35-5.42,5.86-14.3,4.01-16.66-3.68-.11-.36-.41-.63-.77-.69ZM199.32,135.31c-9.91,3.17-16.64-6.37-11.72-15.16.25-.45.16-1.02-.22-1.37-6.33-5.79-13.89-9.45-22.67-10.98-14.91-2.59-28.21,1.04-39.9,10.9-14.2,11.96-21.44,28.71-17.94,47.12,3.59,18.9,19.17,32.53,37.79,36.13.38.08.76-.14.88-.51,3.18-9.3,15.03-10.22,18.37-.76.13.36.51.57.88.48,29.01-7.24,46.44-37.03,35.16-65.55-.1-.26-.38-.39-.64-.3ZM202.28,126.16c0-3.54-2.87-6.4-6.4-6.4s-6.4,2.87-6.4,6.4c0,3.54,2.87,6.4,6.4,6.4s6.4-2.87,6.4-6.4ZM160.8,203.72c0-3.28-2.66-5.93-5.93-5.93s-5.93,2.66-5.93,5.93,2.66,5.93,5.93,5.93,5.93-2.66,5.93-5.93Z"/>
      <path class="cls-36" d="M199.32,135.31c.26-.09.54.04.64.3,11.28,28.52-6.15,58.31-35.16,65.55-.37.09-.76-.12-.88-.48-3.35-9.46-15.2-8.54-18.37.76-.12.37-.5.59-.88.51-18.62-3.6-34.2-17.23-37.79-36.13-3.5-18.41,3.74-35.16,17.94-47.12,11.69-9.85,24.99-13.49,39.9-10.9,8.78,1.53,16.34,5.19,22.67,10.98.38.35.47.91.22,1.37-4.92,8.8,1.8,18.33,11.72,15.16ZM174.41,142.04c-6.83-10.75-21.2-13.86-32.1-6.94,0,0,0,0,0,0-10.91,6.92-14.21,21.25-7.39,32h0c6.83,10.75,21.2,13.86,32.1,6.94,0,0,0,0,0,0,10.91-6.92,14.21-21.25,7.39-32h0Z"/>
      <circle class="cls-27" cx="195.88" cy="126.16" r="6.4"/>
      <path class="cls-34" d="M174.41,142.04c6.83,10.75,3.52,25.08-7.39,32h0c-10.91,6.92-25.28,3.81-32.1-6.94t0,0c-6.83-10.75-3.52-25.08,7.39-32h0c10.91-6.92,25.28-3.81,32.1,6.94h0ZM168.75,140.5c-7.59-7.61-20.04-7.5-27.82.25-7.78,7.75-7.94,20.21-.35,27.82,7.59,7.61,20.04,7.5,27.82-.25,7.78-7.75,7.94-20.21.35-27.82Z"/>
      <ellipse class="cls-38" cx="154.66" cy="154.53" rx="19.89" ry="19.46" transform="translate(-63.97 154.24) rotate(-44.9)"/>
      <ellipse class="cls-35" cx="219.27" cy="203.8" rx="7.14" ry="6.87" transform="translate(-12.41 393.38) rotate(-82.2)"/>
      <circle class="cls-27" cx="154.86" cy="203.72" r="5.93"/>
      <ellipse class="cls-29" cx="95.68" cy="214.35" rx="11.2" ry="10.96" transform="translate(-137.48 241.56) rotate(-72.6)"/>
      <path class="cls-34" d="M241.53,266.78l3.39,6.5,1.57,7.78c.47,11.5-3.91,20.4-13.14,26.68-5.13,3.48-10.91,5.22-17.36,5.21-40.29-.05-80.59,0-120.89.13-6.76.02-12.69-1.73-17.79-5.25-9.62-6.65-14.14-15.68-13.55-27.09l1.75-7.52c3.97-9.06,10.18-14.99,18.62-17.77,3.4-1.12,9.12-1.68,17.14-1.68,38.61.01,77.22-.02,115.83-.11,9.81-.02,17.95,4.35,24.43,13.12ZM67.99,289.44c.73,4.37,2.94,8.54,6.64,12.5,5.25,5.63,12.09,8.43,20.5,8.43,54.74-.05,93.59-.04,116.57.03,4.95.01,8.71-.36,11.27-1.12,8.92-2.65,17.29-10.23,19.53-18.98,2.58-10.09.25-18.56-6.98-25.41-5.8-5.51-12.41-8.29-19.81-8.34-16.7-.1-52.32-.11-106.88-.02-11.56.02-18.78.47-21.66,1.34-13.2,3.98-22.76,17.15-19.17,31.57Z"/>
      <path class="cls-31" d="M235.51,264.89c-7.64-3.5-14.41-5.21-20.3-5.15-10.42.13-20.25.06-29.5-.21-9.58-.28-19.52.45-30.01.35-16.29-.16-28.28-.18-35.99-.03-5.7.11-9.8.11-12.3,0-13.22-.58-25.96.77-33.15,13.09-.57.98-1.58,3.75-3.02,8.29-.85,2.69-1.94,5.43-3.26,8.21-3.59-14.41,5.96-27.58,19.17-31.57,2.89-.87,10.11-1.32,21.66-1.34,54.56-.09,90.18-.08,106.88.02,7.4.04,14,2.82,19.81,8.34Z"/>
      <path class="cls-32" d="M235.51,264.89c7.24,6.86,9.56,15.33,6.98,25.41-2.24,8.75-10.61,16.33-19.53,18.98-2.56.76-6.32,1.13-11.27,1.12-22.98-.07-61.83-.09-116.57-.03-8.42,0-15.25-2.8-20.5-8.43-3.69-3.96-5.9-8.13-6.64-12.5,1.32-2.78,2.41-5.52,3.26-8.21,1.44-4.54,2.45-7.31,3.02-8.29,7.18-12.32,19.93-13.67,33.15-13.09,2.5.11,6.6.11,12.3,0,7.71-.14,19.7-.13,35.99.03,10.5.1,20.43-.63,30.01-.35,9.24.27,19.08.34,29.5.21,5.89-.07,12.66,1.65,20.3,5.15ZM125.26,280.47h21.49c.95,0,1.74-.74,1.8-1.69.12-2.08.14-5.76.06-11.03-.03-1.89-.91-2.88-2.65-2.97-.7-.04-9.32-.03-25.85.01-.96,0-1.75.74-1.84,1.69-.31,3.48-.39,7.06-.22,10.77.07,1.5.59,2.6,1.58,3.31.33.25.41.71.16,1.04,0,0-.01.02-.02.02l-5.56,7.11c-.42.53-.33,1.31.21,1.73,0,0,0,0,0,0l1.41,1.11c.72.57,1.75.54,2.43-.08l2.95-2.67c.28-.25.63-.4,1-.43,3.51-.22,6.12-.22,7.82,0,.67.09,1.14.71,1.04,1.37-.08.6-.59,1.05-1.2,1.06h-8.84c-.77,0-1.42.56-1.56,1.32l-.09.55c-.15.89.45,1.73,1.34,1.88.09.01.18.02.27.02h8.89c.54,0,1.01.39,1.11.93l.15.74c.11.6-.29,1.18-.89,1.29-.07.01-.13.02-.2.02h-14.69c-.96,0-1.74.77-1.74,1.73,0,.11,0,.21.03.32l.13.74c.16.87.91,1.5,1.79,1.5l35.69.02c1.15,0,2.08-.94,2.08-2.09,0-.01,0-.02,0-.03v-.04c-.06-1.23-1.07-2.2-2.31-2.2h-13.83c-.61,0-1.12-.43-1.23-1.03l-.07-.36c-.13-.71.34-1.39,1.05-1.52.08-.01.16-.02.23-.02h10.02c.56,0,1.01-.45,1-1,0-.06,0-.12-.02-.18l-.29-1.62c-.11-.59-.62-1.02-1.22-1.02h-9.37c-.56,0-1.04-.4-1.14-.95l-.1-.54c-.1-.53.25-1.04.78-1.14.06-.01.12-.02.17-.02h11.64c.99,0,1.79-.8,1.79-1.78h0v-.55c0-1.05-.85-1.89-1.89-1.89h-11.11c-.48,0-.91-.3-1.07-.75-.66-1.81-2.32-2.27-5-1.4-.43.14-.75.51-.83.96l-.06.35c-.08.47-.48.81-.96.81h-4.34c-.32,0-.58-.25-.59-.57,0-.05,0-.09.02-.14.16-.71.16-1.32.01-1.84-.1-.35.11-.72.46-.81.06-.02.12-.02.18-.02ZM177.82,301.57c4.66,0,8.81.06,12.45.18.41,0,1.03.27,1.87.79,1.52.94,3.42.94,4.3-.64.18-.32.27-.69.27-1.06-.04-8.61-.04-19.46,0-32.55,0-2.34-1.12-3.47-3.38-3.41h-15.51c-10.15,0-15.31,0-15.5-.01-2.26-.05-3.39,1.09-3.38,3.42.04,13.09.03,23.94-.01,32.55,0,.37.09.74.27,1.06.87,1.58,2.78,1.58,4.3.64.84-.52,1.46-.79,1.87-.81,3.65-.11,7.8-.17,12.45-.17ZM76.98,300.86c2.51,6.01,12.39,8.06,18.58,7.93,35.31-.66,74.06-.1,109.11,0,9.41.03,15.06-.15,16.93-.55,5.24-1.1,9.99-3.97,14.25-8.61,5.18-5.62,6.21-11.86,5.53-19.12-.41-4.39-1.87-8.15-4.36-11.28-.27-.34-.68-.54-1.11-.54h-1.1c-.25,0-.45.19-.45.44,0,.09.02.18.07.25,11.36,17.3-1.53,36.5-20.66,36.98-9.31.25-17.55-.54-25.49.06-11.08.81-23.97-.25-35.45.16-4.8.16-14.01.17-27.65.01-9.95-.11-23.26.4-34.49-.55-4.17-.35-8.64-2.16-13.42-5.43-.09-.06-.21-.03-.26.05-.04.05-.04.12-.02.18Z"/>
      <path class="cls-34" d="M124.62,281.31c.15.51.15,1.13-.01,1.84-.07.31.12.61.43.69.05.01.09.02.14.02h4.34c.48,0,.89-.34.96-.81l.06-.35c.07-.45.39-.82.83-.96,2.68-.87,4.35-.41,5,1.4.16.45.59.75,1.07.75h11.11c1.04,0,1.88.84,1.89,1.89v.55c0,.98-.8,1.78-1.79,1.78h-11.64c-.54,0-.97.44-.97.98,0,.06,0,.12.02.17l.1.54c.1.55.58.95,1.14.95h9.37c.6,0,1.11.43,1.22,1.02l.29,1.62c.11.54-.25,1.06-.8,1.17-.06.01-.12.02-.19.02h-10.02c-.72,0-1.31.59-1.31,1.31,0,.08,0,.16.02.23l.07.36c.11.6.63,1.03,1.23,1.03h13.83c1.23,0,2.25.98,2.29,2.2v.04c.03,1.16-.89,2.11-2.04,2.13-.01,0-.02,0-.03,0l-35.69-.02c-.88,0-1.63-.63-1.79-1.5l-.13-.74c-.17-.94.45-1.85,1.39-2.02.11-.02.21-.03.32-.03h14.69c.61,0,1.11-.5,1.1-1.11,0-.07,0-.13-.02-.2l-.15-.74c-.1-.54-.56-.93-1.11-.93h-8.89c-.9,0-1.63-.73-1.63-1.63,0-.09,0-.18.02-.27l.09-.55c.13-.76.79-1.32,1.56-1.32h8.84c.67,0,1.22-.55,1.21-1.23,0-.61-.45-1.12-1.06-1.2-1.7-.22-4.31-.22-7.82,0-.37.03-.72.18-1,.43l-2.95,2.67c-.68.61-1.7.65-2.43.08l-1.41-1.11c-.54-.42-.64-1.19-.22-1.73,0,0,0,0,0,0l5.56-7.11c.26-.32.2-.79-.12-1.04,0,0-.02-.01-.02-.02-.98-.71-1.51-1.81-1.58-3.31-.16-3.7-.09-7.29.22-10.77.08-.95.88-1.68,1.84-1.69,16.53-.04,25.15-.05,25.85-.01,1.74.09,2.62,1.08,2.65,2.97.08,5.27.06,8.95-.06,11.03-.06.95-.85,1.69-1.8,1.69h-21.49c-.36,0-.66.29-.66.66,0,.06,0,.12.02.18ZM143.25,269.8c0-.62-.5-1.12-1.12-1.12h-17.79c-.62,0-1.12.5-1.12,1.12v.04c0,.62.5,1.12,1.12,1.12h17.79c.62,0,1.12-.5,1.12-1.12v-.04ZM143.32,275.61c0-.62-.5-1.13-1.12-1.14h0l-17.75-.09c-.62,0-1.13.5-1.14,1.12h0s0,.04,0,.04c0,.62.5,1.13,1.12,1.14l17.75.09c.62,0,1.13-.5,1.14-1.12h0s0-.04,0-.04Z"/>
      <path class="cls-34" d="M177.82,264.88h15.51c2.26-.06,3.39,1.08,3.38,3.41-.04,13.09-.04,23.94,0,32.55,0,.37-.09.74-.27,1.06-.87,1.58-2.78,1.58-4.3.64-.84-.52-1.46-.79-1.87-.79-3.65-.12-7.8-.18-12.45-.18s-8.81.06-12.45.17c-.41.01-1.03.28-1.87.81-1.52.94-3.42.94-4.3-.64-.18-.32-.27-.69-.27-1.06.04-8.61.05-19.46.01-32.55,0-2.34,1.12-3.48,3.38-3.42.19,0,5.35.01,15.5.01ZM186.32,297.12l4.3-.24c.35-.02.63-.31.63-.66v-25.87c0-.49-.4-.88-.88-.88h-25.42c-.43,0-.78.35-.78.78h0v12.81c0,.09.07.16.15.16.01,0,.02,0,.04,0l8.84-1.62c.24-.04.4-.27.35-.51-.02-.12-.09-.23-.19-.3l-2.58-1.66c-.18-.12-.42-.1-.58.04-1.4,1.25-2.83.83-4.32-1.24-.39-.55-.27-1.31.28-1.7.03-.02.05-.04.08-.05,2.61-1.59,4.83-3.42,6.65-5.49,1.3-1.47,2.62-1.23,3.98-.28.39.28.54.8.36,1.24l-.38.91c-.04.09,0,.2.1.23.02,0,.05.01.07.01h10.63c.59,0,1.06.48,1.06,1.06,0,.15-.03.29-.09.42-1.5,3.47-3.28,5.54-5.34,6.2-.25.08-.39.34-.31.59.05.16.18.28.34.32l6.62,1.72c.68.17,1.1.87.92,1.55-.03.13-.09.26-.16.37l-.35.55c-.83,1.29-2.46,1.8-3.87,1.22l-7.23-2.99c-.44-.19-.95-.19-1.4-.01l-8.43,3.41c-.27.11-.55.18-.83.19-1.51.07-2.86-.47-4.04-1.6-.1-.09-.26-.09-.35.01-.04.05-.07.1-.07.17v10.43c0,.38.31.68.68.68h18.13c.26-.02.46-.24.44-.5-.01-.19-.14-.36-.33-.42-4.43-1.07-8.8-1.81-13.12-2.24-.89-.08-1.45-.35-1.68-.82-.45-.89-.17-1.97.61-2.4.16-.09.33-.14.51-.17,5.14-.6,11.65,1.25,16.85,2.67.75.2,1.2.98.99,1.74-.03.1-.06.19-.11.28-.16.32-.52.72-1.06,1.21-.15.14-.16.37-.02.52.08.08.19.13.3.13ZM181.92,276.34l-7.14-.07s-.02,0-.02.02v.04c-.01,1.03,1.49,1.87,3.37,1.89h.4c1.87.02,3.4-.8,3.41-1.82v-.04s-.01-.02-.02-.02Z"/>
      <path class="cls-30" d="M77.26,300.62c4.77,3.27,9.25,5.08,13.42,5.43,11.22.95,24.54.44,34.49.55,13.64.16,22.85.15,27.65-.01,11.48-.4,24.37.65,35.45-.16,7.95-.59,16.18.19,25.49-.06,19.12-.48,32.02-19.68,20.66-36.98-.14-.21-.08-.48.13-.62.07-.05.16-.08.25-.07h1.1c.43,0,.84.2,1.11.54,2.5,3.13,3.95,6.89,4.36,11.28.68,7.26-.35,13.51-5.53,19.12-4.26,4.63-9.01,7.5-14.25,8.61-1.87.4-7.52.58-16.93.55-35.05-.1-73.8-.66-109.11,0-6.19.12-16.07-1.92-18.58-7.93-.04-.1,0-.21.1-.25.06-.03.13-.02.18.02Z"/>
      <rect class="cls-36" x="123.22" y="268.68" width="20.03" height="2.28" rx="1.12" ry="1.12"/>
      <path class="cls-31" d="M186.04,296.47c.54-.48.9-.89,1.06-1.21.36-.7.08-1.55-.61-1.91-.09-.04-.18-.08-.27-.11-5.2-1.42-11.72-3.28-16.85-2.67-.89.11-1.47,1-1.31,1.99.03.2.1.39.19.57.23.46.79.73,1.68.82,4.31.43,8.68,1.17,13.12,2.24.25.08.39.34.31.59-.06.19-.23.32-.42.33h-18.13c-.38,0-.68-.31-.68-.68v-10.43c0-.14.11-.25.25-.25.06,0,.12.02.17.07,1.18,1.13,2.53,1.67,4.04,1.6.28-.01.56-.08.83-.19l8.43-3.41c.45-.18.95-.18,1.4.01l7.23,2.99c1.41.58,3.04.07,3.87-1.22l.35-.55c.38-.59.21-1.38-.39-1.76-.12-.07-.24-.13-.37-.16l-6.62-1.72c-.25-.06-.41-.31-.35-.56.04-.16.16-.29.32-.34,2.06-.66,3.84-2.73,5.34-6.2.23-.54-.01-1.16-.55-1.4-.13-.06-.28-.09-.42-.09h-10.63c-.1,0-.18-.08-.18-.18,0-.02,0-.05.01-.07l.38-.91c.18-.45.04-.96-.36-1.24-1.37-.95-2.69-1.19-3.98.28-1.82,2.07-4.04,3.91-6.65,5.49-.58.35-.76,1.1-.41,1.67.02.03.04.06.05.08,1.48,2.07,2.92,2.49,4.32,1.24.16-.15.4-.16.58-.04l2.58,1.66c.2.14.26.41.13.62-.07.1-.17.17-.29.19l-8.84,1.62c-.08.02-.17-.03-.19-.12,0-.01,0-.02,0-.04v-12.81c0-.43.35-.78.78-.78h25.42c.49,0,.88.4.88.88v25.87c0,.35-.28.64-.63.66l-4.3.24c-.21,0-.39-.15-.4-.36,0-.11.04-.22.12-.29ZM172.41,287.03c-.2,1.13,2.25,2.5,5.46,3.05,0,0,0,0,0,0,3.21.55,5.97.09,6.17-1.05h0c.2-1.13-2.25-2.5-5.46-3.05,0,0,0,0,0,0-3.21-.55-5.97-.09-6.17,1.05h0Z"/>
      <rect class="cls-36" x="132.16" y="265.57" width="2.31" height="20.01" rx="1.13" ry="1.13" transform="translate(-142.96 407.44) rotate(-89.7)"/>
      <path class="cls-31" d="M181.92,276.34s.02,0,.02.02v.04c-.01,1.03-1.54,1.84-3.41,1.82h-.4c-1.87-.02-3.38-.86-3.37-1.89,0,0,0,0,0,0v-.04s.01-.02.02-.02l7.14.07Z"/>
      <ellipse class="cls-34" cx="178.22" cy="288.03" rx="2.08" ry="5.9" transform="translate(-135.94 414.62) rotate(-80.2)"/>
    </g>
  </g>
</svg>